<?xml version="1.0" encoding="UTF-8" standalone="no"?><!DOCTYPE svg PUBLIC "-//W3C//DTD SVG 1.1//EN" "http://www.w3.org/Graphics/SVG/1.1/DTD/svg11.dtd"><svg width="100%" height="100%" viewBox="0 0 1081 620" version="1.1" xmlns="http://www.w3.org/2000/svg" xmlns:xlink="http://www.w3.org/1999/xlink" xml:space="preserve" xmlns:serif="http://www.serif.com/" style="fill-rule:evenodd;clip-rule:evenodd;stroke-linejoin:round;stroke-miterlimit:2;"><rect id="AEF_primary_Logo" x="0.26" y="0.55" width="1080" height="618.661" style="fill:none;"/><g><path d="M373.711,136.113l-211.253,0c-18.922,0 -37.069,7.517 -50.449,20.897c-13.38,13.38 -20.897,31.527 -20.897,50.449c0,42.594 0,97.312 0,139.906c0,18.922 7.517,37.07 20.897,50.45c13.38,13.38 31.527,20.896 50.449,20.896l74.092,0l3.45,0c-0,0 62.364,0 62.364,0c18.923,0 37.07,-7.516 50.45,-20.896c13.38,-13.38 20.897,-31.528 20.897,-50.45l-0,-63.959c-0,0 -0,-6.906 -0,-6.906c-0,-0 -0,-140.387 -0,-140.387Zm-275.693,147.293l0,63.959c0,17.091 6.789,33.481 18.874,45.566c12.085,12.085 28.476,18.874 45.566,18.874l70.636,0l-0,-128.399l-135.076,0Zm268.786,0l-126.804,0l-0,128.399l62.364,0c17.091,0 33.482,-6.789 45.566,-18.874c12.085,-12.085 18.874,-28.475 18.874,-45.566l0,-63.959Zm-126.804,-140.387l-0,133.481l126.804,-0l0,-133.481l-126.804,0Zm-6.906,0l-70.636,0c-17.09,0 -33.481,6.789 -45.566,18.874c-12.085,12.085 -18.874,28.476 -18.874,45.566l0,69.041l135.076,-0l-0,-133.481Z" style="fill:#313638;"/><path d="M208.14,195.07l-0,22.599l-15.961,15.961l-0,18.705l15.961,0l-0,-57.265Zm-37.32,37.32c-2.907,2.56 -6.657,3.984 -10.554,3.984c-8.812,-0 -15.966,-7.152 -15.966,-15.961c0,-8.815 7.148,-15.961 15.966,-15.961l0,-15.961c-17.635,-0 -31.932,14.292 -31.932,31.922c0,17.618 14.308,31.922 31.932,31.922c8.131,0 15.943,-3.1 21.852,-8.645l0,-0l0.001,-0.001c0.246,-0.23 0.488,-0.465 0.727,-0.704l-0.012,-0.011l9.345,-9.344l-0,-22.599l15.961,-15.961l-0,-22.566l-47.884,0l0,15.987l31.923,-0l-0,22.54l-21.359,21.359Z" style="fill:#313638;"/><path d="M145.656,350.638l-16.514,0c3.656,18.261 19.794,32.034 39.123,32.034c12.411,0 24.116,-5.774 31.667,-15.623l-12.667,-9.712c-4.531,5.91 -11.553,9.374 -19,9.374c-10.457,0 -19.357,-6.719 -22.609,-16.073Zm62.512,0l0,-7.868c0,-2.417 -0.215,-4.784 -0.627,-7.082c-0.06,-0.339 -0.125,-0.676 -0.194,-1.011c-3.74,-18.157 -19.816,-31.81 -39.082,-31.81c-19.25,-0 -35.335,13.661 -39.079,31.81l16.545,0c3.318,-9.237 12.16,-15.849 22.534,-15.849c10.383,-0 19.222,6.609 22.537,15.849l-45.071,0c-0.912,2.528 -1.407,5.253 -1.407,8.093c-0,2.756 0.467,5.404 1.332,7.868l62.512,0Z" style="fill:#313638;"/><g><path d="M121.205,480.105c-0.16,-1.627 -0.845,-2.891 -2.057,-3.792c-1.212,-0.901 -2.856,-1.352 -4.933,-1.352c-1.411,0 -2.603,0.199 -3.575,0.595c-0.971,0.397 -1.714,0.945 -2.226,1.644c-0.513,0.7 -0.769,1.493 -0.769,2.381c-0.027,0.739 0.13,1.385 0.469,1.936c0.34,0.552 0.809,1.026 1.408,1.423c0.599,0.396 1.292,0.739 2.077,1.028c0.786,0.289 1.624,0.535 2.516,0.737l3.675,0.887c1.784,0.404 3.422,0.942 4.913,1.614c1.491,0.672 2.782,1.499 3.874,2.481c1.092,0.982 1.941,2.138 2.546,3.47c0.606,1.331 0.916,2.858 0.929,4.579c-0.013,2.528 -0.649,4.717 -1.907,6.566c-1.258,1.849 -3.069,3.281 -5.432,4.297c-2.363,1.015 -5.209,1.523 -8.538,1.523c-3.302,-0 -6.174,-0.511 -8.617,-1.533c-2.443,-1.022 -4.347,-2.539 -5.712,-4.549c-1.364,-2.011 -2.08,-4.502 -2.147,-7.474l8.368,-0c0.093,1.385 0.489,2.538 1.188,3.46c0.699,0.921 1.638,1.613 2.816,2.077c1.179,0.464 2.513,0.696 4.004,0.696c1.465,0 2.74,-0.215 3.825,-0.645c1.085,-0.431 1.927,-1.029 2.526,-1.796c0.599,-0.766 0.899,-1.647 0.899,-2.642c-0,-0.928 -0.27,-1.708 -0.809,-2.34c-0.539,-0.632 -1.325,-1.17 -2.357,-1.614c-1.031,-0.444 -2.293,-0.847 -3.784,-1.21l-4.453,-1.13c-3.449,-0.847 -6.171,-2.172 -8.168,-3.974c-1.998,-1.802 -2.989,-4.229 -2.976,-7.282c-0.013,-2.502 0.649,-4.687 1.987,-6.556c1.338,-1.87 3.179,-3.329 5.522,-4.378c2.343,-1.049 5.006,-1.573 7.988,-1.573c3.036,-0 5.688,0.524 7.958,1.573c2.27,1.049 4.038,2.508 5.303,4.378c1.264,1.869 1.917,4.034 1.957,6.495l-8.288,0Z" style="fill:#ed5036;fill-rule:nonzero;"/><path d="M136.808,509.537l0,-30.985l8.248,0l0,5.406l0.32,0c0.559,-1.923 1.498,-3.379 2.816,-4.367c1.318,-0.989 2.836,-1.483 4.553,-1.483c0.426,0 0.885,0.027 1.378,0.081c0.493,0.054 0.925,0.128 1.298,0.222l0,7.625c-0.399,-0.121 -0.952,-0.229 -1.657,-0.323c-0.706,-0.094 -1.352,-0.141 -1.938,-0.141c-1.251,0 -2.366,0.272 -3.345,0.817c-0.978,0.545 -1.75,1.301 -2.316,2.269c-0.566,0.969 -0.849,2.085 -0.849,3.349l-0,17.53l-8.508,-0Z" style="fill:#ed5036;fill-rule:nonzero;"/><path d="M160.919,509.537l0,-30.985l8.508,0l-0,30.985l-8.508,-0Zm4.294,-34.979c-1.265,-0 -2.35,-0.427 -3.255,-1.281c-0.905,-0.854 -1.358,-1.879 -1.358,-3.076c-0,-1.184 0.453,-2.202 1.358,-3.056c0.905,-0.854 1.984,-1.281 3.235,-1.281c1.278,-0 2.367,0.427 3.265,1.281c0.899,0.854 1.348,1.872 1.348,3.056c0,1.197 -0.449,2.222 -1.348,3.076c-0.898,0.854 -1.98,1.281 -3.245,1.281Z" style="fill:#ed5036;fill-rule:nonzero;"/><path d="M198.717,509.537l-9.267,-0l14.12,-41.313l11.143,-0l14.1,41.313l-9.267,-0l-10.245,-31.873l-0.319,0l-10.265,31.873Zm-0.579,-16.239l21.887,0l0,6.818l-21.887,0l-0,-6.818Z" style="fill:#ed5036;fill-rule:nonzero;"/><path d="M244.541,510.041c-2.33,0 -4.437,-0.608 -6.32,-1.825c-1.884,-1.218 -3.375,-3.013 -4.474,-5.386c-1.098,-2.374 -1.647,-5.289 -1.647,-8.745c-0,-3.551 0.565,-6.506 1.697,-8.866c1.132,-2.36 2.639,-4.129 4.523,-5.305c1.884,-1.177 3.951,-1.765 6.201,-1.765c1.718,-0 3.152,0.292 4.304,0.877c1.152,0.585 2.084,1.311 2.796,2.179c0.712,0.867 1.255,1.718 1.627,2.552l0.26,-0l0,-15.533l8.488,-0l-0,41.313l-8.388,-0l-0,-4.963l-0.36,0c-0.399,0.861 -0.961,1.712 -1.687,2.552c-0.726,0.841 -1.664,1.537 -2.816,2.088c-1.152,0.551 -2.553,0.827 -4.204,0.827Zm2.696,-6.838c1.372,-0 2.533,-0.38 3.485,-1.14c0.952,-0.76 1.684,-1.826 2.197,-3.197c0.513,-1.372 0.769,-2.979 0.769,-4.822c-0,-1.842 -0.253,-3.442 -0.759,-4.801c-0.506,-1.358 -1.238,-2.407 -2.197,-3.146c-0.958,-0.74 -2.123,-1.11 -3.495,-1.11c-1.398,0 -2.576,0.383 -3.535,1.15c-0.958,0.766 -1.684,1.829 -2.176,3.187c-0.493,1.358 -0.739,2.932 -0.739,4.72c-0,1.802 0.249,3.393 0.749,4.771c0.499,1.379 1.225,2.455 2.176,3.228c0.952,0.773 2.127,1.16 3.525,1.16Z" style="fill:#ed5036;fill-rule:nonzero;"/><path d="M276.141,509.537l-8.347,-30.985l8.607,0l4.753,20.818l0.279,-0l4.953,-20.818l8.448,0l5.032,20.697l0.26,-0l4.673,-20.697l8.588,0l-8.328,30.985l-9.007,-0l-5.272,-19.487l-0.38,0l-5.272,19.487l-8.987,-0Z" style="fill:#ed5036;fill-rule:nonzero;"/><path d="M327.772,510.122c-1.957,-0 -3.701,-0.346 -5.232,-1.039c-1.532,-0.693 -2.74,-1.721 -3.625,-3.086c-0.886,-1.365 -1.328,-3.07 -1.328,-5.114c-0,-1.722 0.313,-3.167 0.938,-4.337c0.626,-1.17 1.478,-2.112 2.557,-2.824c1.078,-0.713 2.306,-1.251 3.684,-1.614c1.378,-0.363 2.826,-0.619 4.344,-0.767c1.784,-0.188 3.222,-0.366 4.314,-0.534c1.091,-0.168 1.883,-0.42 2.376,-0.757c0.493,-0.336 0.739,-0.833 0.739,-1.492l-0,-0.121c-0,-1.278 -0.396,-2.267 -1.188,-2.966c-0.792,-0.699 -1.914,-1.049 -3.365,-1.049c-1.531,0 -2.75,0.34 -3.655,1.019c-0.905,0.679 -1.504,1.53 -1.797,2.552l-7.869,-0.646c0.4,-1.883 1.185,-3.513 2.357,-4.892c1.171,-1.378 2.686,-2.44 4.543,-3.187c1.857,-0.746 4.011,-1.119 6.461,-1.119c1.704,-0 3.338,0.201 4.902,0.605c1.565,0.403 2.956,1.029 4.174,1.876c1.218,0.847 2.18,1.933 2.886,3.258c0.706,1.324 1.058,2.908 1.058,4.75l0,20.899l-8.068,-0l0,-4.297l-0.239,0c-0.493,0.968 -1.152,1.819 -1.977,2.552c-0.826,0.733 -1.818,1.304 -2.976,1.715c-1.158,0.41 -2.496,0.615 -4.014,0.615Zm2.436,-5.931c1.252,0 2.357,-0.252 3.315,-0.756c0.959,-0.505 1.711,-1.187 2.257,-2.048c0.546,-0.861 0.819,-1.836 0.819,-2.925l-0,-3.288c-0.266,0.175 -0.629,0.333 -1.089,0.474c-0.459,0.141 -0.975,0.269 -1.547,0.383c-0.573,0.115 -1.145,0.216 -1.718,0.303c-0.572,0.087 -1.091,0.165 -1.557,0.232c-0.999,0.148 -1.871,0.383 -2.617,0.706c-0.745,0.323 -1.324,0.756 -1.737,1.301c-0.413,0.545 -0.619,1.221 -0.619,2.027c-0,1.17 0.423,2.061 1.268,2.673c0.845,0.612 1.92,0.918 3.225,0.918Z" style="fill:#ed5036;fill-rule:nonzero;"/><path d="M356.904,521.096c-1.078,-0 -2.087,-0.084 -3.025,-0.253c-0.939,-0.168 -1.715,-0.373 -2.327,-0.615l1.917,-6.435c1.505,0.471 2.773,0.595 3.805,0.373c1.031,-0.222 1.847,-1.032 2.446,-2.43l0.499,-1.312l-11.004,-31.872l8.947,0l6.351,22.754l0.319,0l6.411,-22.754l9.007,0.04l-11.923,34.293c-0.572,1.655 -1.348,3.097 -2.326,4.327c-0.979,1.231 -2.214,2.186 -3.705,2.865c-1.491,0.679 -3.288,1.019 -5.392,1.019Z" style="fill:#ed5036;fill-rule:nonzero;"/><path d="M393.608,510.122c-1.957,-0 -3.701,-0.346 -5.232,-1.039c-1.531,-0.693 -2.74,-1.721 -3.625,-3.086c-0.885,-1.365 -1.328,-3.07 -1.328,-5.114c-0,-1.722 0.313,-3.167 0.939,-4.337c0.625,-1.17 1.477,-2.112 2.556,-2.824c1.078,-0.713 2.306,-1.251 3.684,-1.614c1.378,-0.363 2.826,-0.619 4.344,-0.767c1.784,-0.188 3.222,-0.366 4.314,-0.534c1.091,-0.168 1.884,-0.42 2.376,-0.757c0.493,-0.336 0.739,-0.833 0.739,-1.492l0,-0.121c0,-1.278 -0.396,-2.267 -1.188,-2.966c-0.792,-0.699 -1.914,-1.049 -3.365,-1.049c-1.531,0 -2.75,0.34 -3.655,1.019c-0.905,0.679 -1.504,1.53 -1.797,2.552l-7.869,-0.646c0.4,-1.883 1.185,-3.513 2.357,-4.892c1.171,-1.378 2.686,-2.44 4.543,-3.187c1.857,-0.746 4.011,-1.119 6.461,-1.119c1.704,-0 3.338,0.201 4.902,0.605c1.565,0.403 2.956,1.029 4.174,1.876c1.219,0.847 2.18,1.933 2.886,3.258c0.706,1.324 1.059,2.908 1.059,4.75l-0,20.899l-8.069,-0l0,-4.297l-0.239,0c-0.493,0.968 -1.152,1.819 -1.977,2.552c-0.826,0.733 -1.818,1.304 -2.976,1.715c-1.158,0.41 -2.496,0.615 -4.014,0.615Zm2.436,-5.931c1.252,0 2.357,-0.252 3.315,-0.756c0.959,-0.505 1.711,-1.187 2.257,-2.048c0.546,-0.861 0.819,-1.836 0.819,-2.925l-0,-3.288c-0.266,0.175 -0.629,0.333 -1.088,0.474c-0.46,0.141 -0.976,0.269 -1.548,0.383c-0.573,0.115 -1.145,0.216 -1.718,0.303c-0.572,0.087 -1.091,0.165 -1.557,0.232c-0.999,0.148 -1.871,0.383 -2.617,0.706c-0.745,0.323 -1.324,0.756 -1.737,1.301c-0.413,0.545 -0.619,1.221 -0.619,2.027c-0,1.17 0.423,2.061 1.268,2.673c0.846,0.612 1.921,0.918 3.225,0.918Z" style="fill:#ed5036;fill-rule:nonzero;"/><path d="M427.125,491.624l0,17.913l-8.507,-0l-0,-30.985l8.108,0l-0,5.467l0.359,-0c0.679,-1.802 1.818,-3.231 3.415,-4.287c1.598,-1.056 3.535,-1.583 5.812,-1.583c2.13,-0 3.987,0.47 5.571,1.412c1.585,0.941 2.816,2.282 3.695,4.024c0.879,1.742 1.318,3.816 1.318,6.223l0,19.729l-8.507,-0l-0,-18.196c0.013,-1.896 -0.466,-3.379 -1.438,-4.448c-0.972,-1.069 -2.31,-1.603 -4.014,-1.603c-1.145,-0 -2.154,0.248 -3.026,0.746c-0.872,0.498 -1.551,1.22 -2.037,2.169c-0.486,0.948 -0.736,2.087 -0.749,3.419Z" style="fill:#ed5036;fill-rule:nonzero;"/><path d="M463.458,510.122c-1.957,-0 -3.701,-0.346 -5.232,-1.039c-1.531,-0.693 -2.739,-1.721 -3.625,-3.086c-0.885,-1.365 -1.328,-3.07 -1.328,-5.114c0,-1.722 0.313,-3.167 0.939,-4.337c0.625,-1.17 1.478,-2.112 2.556,-2.824c1.078,-0.713 2.307,-1.251 3.685,-1.614c1.378,-0.363 2.825,-0.619 4.343,-0.767c1.784,-0.188 3.222,-0.366 4.314,-0.534c1.092,-0.168 1.884,-0.42 2.376,-0.757c0.493,-0.336 0.739,-0.833 0.739,-1.492l0,-0.121c0,-1.278 -0.396,-2.267 -1.188,-2.966c-0.792,-0.699 -1.914,-1.049 -3.365,-1.049c-1.531,0 -2.749,0.34 -3.655,1.019c-0.905,0.679 -1.504,1.53 -1.797,2.552l-7.868,-0.646c0.399,-1.883 1.184,-3.513 2.356,-4.892c1.172,-1.378 2.686,-2.44 4.543,-3.187c1.858,-0.746 4.011,-1.119 6.461,-1.119c1.704,-0 3.338,0.201 4.903,0.605c1.564,0.403 2.955,1.029 4.174,1.876c1.218,0.847 2.18,1.933 2.885,3.258c0.706,1.324 1.059,2.908 1.059,4.75l-0,20.899l-8.068,-0l-0,-4.297l-0.24,0c-0.493,0.968 -1.152,1.819 -1.977,2.552c-0.826,0.733 -1.817,1.304 -2.976,1.715c-1.158,0.41 -2.496,0.615 -4.014,0.615Zm2.437,-5.931c1.251,0 2.356,-0.252 3.315,-0.756c0.958,-0.505 1.711,-1.187 2.256,-2.048c0.546,-0.861 0.819,-1.836 0.819,-2.925l0,-3.288c-0.266,0.175 -0.629,0.333 -1.088,0.474c-0.46,0.141 -0.975,0.269 -1.548,0.383c-0.572,0.115 -1.145,0.216 -1.717,0.303c-0.573,0.087 -1.092,0.165 -1.558,0.232c-0.999,0.148 -1.871,0.383 -2.616,0.706c-0.746,0.323 -1.325,0.756 -1.738,1.301c-0.412,0.545 -0.619,1.221 -0.619,2.027c0,1.17 0.423,2.061 1.268,2.673c0.846,0.612 1.921,0.918 3.226,0.918Z" style="fill:#ed5036;fill-rule:nonzero;"/><path d="M496.975,491.624l0,17.913l-8.507,-0l-0,-30.985l8.108,0l-0,5.467l0.359,-0c0.679,-1.802 1.818,-3.231 3.415,-4.287c1.598,-1.056 3.535,-1.583 5.812,-1.583c2.13,-0 3.987,0.47 5.572,1.412c1.584,0.941 2.816,2.282 3.694,4.024c0.879,1.742 1.318,3.816 1.318,6.223l0,19.729l-8.507,-0l-0,-18.196c0.013,-1.896 -0.466,-3.379 -1.438,-4.448c-0.972,-1.069 -2.31,-1.603 -4.014,-1.603c-1.145,-0 -2.154,0.248 -3.026,0.746c-0.872,0.498 -1.551,1.22 -2.037,2.169c-0.486,0.948 -0.735,2.087 -0.749,3.419Z" style="fill:#ed5036;fill-rule:nonzero;"/><path d="M535.865,510.041c-2.33,0 -4.437,-0.608 -6.321,-1.825c-1.884,-1.218 -3.375,-3.013 -4.474,-5.386c-1.098,-2.374 -1.647,-5.289 -1.647,-8.745c-0,-3.551 0.566,-6.506 1.697,-8.866c1.132,-2.36 2.64,-4.129 4.524,-5.305c1.884,-1.177 3.951,-1.765 6.201,-1.765c1.717,-0 3.152,0.292 4.303,0.877c1.152,0.585 2.084,1.311 2.796,2.179c0.713,0.867 1.255,1.718 1.628,2.552l0.259,-0l0,-15.533l8.488,-0l-0,41.313l-8.388,-0l0,-4.963l-0.359,0c-0.4,0.861 -0.962,1.712 -1.688,2.552c-0.725,0.841 -1.664,1.537 -2.816,2.088c-1.151,0.551 -2.552,0.827 -4.203,0.827Zm2.696,-6.838c1.371,-0 2.533,-0.38 3.485,-1.14c0.951,-0.76 1.684,-1.826 2.196,-3.197c0.513,-1.372 0.769,-2.979 0.769,-4.822c0,-1.842 -0.253,-3.442 -0.759,-4.801c-0.506,-1.358 -1.238,-2.407 -2.196,-3.146c-0.959,-0.74 -2.124,-1.11 -3.495,-1.11c-1.398,0 -2.577,0.383 -3.535,1.15c-0.959,0.766 -1.684,1.829 -2.177,3.187c-0.493,1.358 -0.739,2.932 -0.739,4.72c0,1.802 0.25,3.393 0.749,4.771c0.499,1.379 1.225,2.455 2.177,3.228c0.952,0.773 2.127,1.16 3.525,1.16Z" style="fill:#ed5036;fill-rule:nonzero;"/><path d="M570.161,510.122c-1.957,-0 -3.702,-0.346 -5.233,-1.039c-1.531,-0.693 -2.739,-1.721 -3.624,-3.086c-0.886,-1.365 -1.328,-3.07 -1.328,-5.114c-0,-1.722 0.312,-3.167 0.938,-4.337c0.626,-1.17 1.478,-2.112 2.556,-2.824c1.079,-0.713 2.307,-1.251 3.685,-1.614c1.378,-0.363 2.826,-0.619 4.344,-0.767c1.784,-0.188 3.222,-0.366 4.313,-0.534c1.092,-0.168 1.884,-0.42 2.377,-0.757c0.492,-0.336 0.739,-0.833 0.739,-1.492l-0,-0.121c-0,-1.278 -0.396,-2.267 -1.188,-2.966c-0.793,-0.699 -1.914,-1.049 -3.366,-1.049c-1.531,0 -2.749,0.34 -3.654,1.019c-0.906,0.679 -1.505,1.53 -1.798,2.552l-7.868,-0.646c0.399,-1.883 1.185,-3.513 2.357,-4.892c1.171,-1.378 2.686,-2.44 4.543,-3.187c1.857,-0.746 4.011,-1.119 6.46,-1.119c1.705,-0 3.339,0.201 4.903,0.605c1.565,0.403 2.956,1.029 4.174,1.876c1.218,0.847 2.18,1.933 2.886,3.258c0.705,1.324 1.058,2.908 1.058,4.75l0,20.899l-8.068,-0l0,-4.297l-0.24,0c-0.492,0.968 -1.151,1.819 -1.977,2.552c-0.825,0.733 -1.817,1.304 -2.975,1.715c-1.159,0.41 -2.497,0.615 -4.014,0.615Zm2.436,-5.931c1.252,0 2.357,-0.252 3.315,-0.756c0.959,-0.505 1.711,-1.187 2.257,-2.048c0.546,-0.861 0.819,-1.836 0.819,-2.925l-0,-3.288c-0.267,0.175 -0.629,0.333 -1.089,0.474c-0.459,0.141 -0.975,0.269 -1.547,0.383c-0.573,0.115 -1.145,0.216 -1.718,0.303c-0.572,0.087 -1.092,0.165 -1.558,0.232c-0.998,0.148 -1.87,0.383 -2.616,0.706c-0.745,0.323 -1.325,0.756 -1.737,1.301c-0.413,0.545 -0.619,1.221 -0.619,2.027c-0,1.17 0.422,2.061 1.268,2.673c0.845,0.612 1.92,0.918 3.225,0.918Z" style="fill:#ed5036;fill-rule:nonzero;"/><path d="M609.496,509.537l-0,-41.313l16.136,-0c3.102,-0 5.745,0.595 7.928,1.785c2.184,1.19 3.851,2.838 5.003,4.942c1.152,2.105 1.727,4.529 1.727,7.272c0,2.744 -0.585,5.165 -1.757,7.262c-1.172,2.098 -2.866,3.732 -5.083,4.902c-2.216,1.17 -4.896,1.755 -8.038,1.755l-10.285,0l0,-6.999l8.887,-0c1.665,-0 3.039,-0.293 4.124,-0.878c1.085,-0.585 1.898,-1.399 2.437,-2.441c0.539,-1.042 0.809,-2.242 0.809,-3.601c-0,-1.371 -0.27,-2.572 -0.809,-3.6c-0.539,-1.029 -1.355,-1.829 -2.447,-2.401c-1.091,-0.571 -2.476,-0.857 -4.154,-0.857l-5.831,-0l-0,34.172l-8.647,-0Z" style="fill:#ed5036;fill-rule:nonzero;"/><path d="M666.558,496.344l0,-17.792l8.508,0l-0,30.985l-8.168,-0l-0,-5.628l-0.32,-0c-0.692,1.815 -1.84,3.274 -3.445,4.377c-1.604,1.103 -3.558,1.654 -5.861,1.654c-2.05,0 -3.854,-0.47 -5.412,-1.412c-1.558,-0.941 -2.773,-2.279 -3.645,-4.014c-0.872,-1.735 -1.315,-3.813 -1.328,-6.233l0,-19.729l8.508,0l-0,18.196c0.013,1.828 0.499,3.274 1.458,4.337c0.958,1.062 2.243,1.593 3.854,1.593c1.025,0 1.984,-0.238 2.876,-0.716c0.892,-0.477 1.614,-1.187 2.166,-2.128c0.553,-0.941 0.823,-2.105 0.809,-3.49Z" style="fill:#ed5036;fill-rule:nonzero;"/><path d="M683.14,509.537l0,-41.313l8.508,-0l-0,15.533l0.259,-0c0.373,-0.834 0.916,-1.685 1.628,-2.552c0.712,-0.868 1.644,-1.594 2.796,-2.179c1.152,-0.585 2.586,-0.877 4.304,-0.877c2.236,-0 4.3,0.588 6.191,1.765c1.89,1.176 3.401,2.945 4.533,5.305c1.132,2.36 1.697,5.315 1.697,8.866c0,3.456 -0.549,6.371 -1.647,8.745c-1.099,2.373 -2.59,4.168 -4.474,5.386c-1.884,1.217 -3.99,1.825 -6.32,1.825c-1.651,0 -3.053,-0.276 -4.204,-0.827c-1.152,-0.551 -2.094,-1.247 -2.826,-2.088c-0.732,-0.84 -1.291,-1.691 -1.678,-2.552l-0.379,0l0,4.963l-8.388,-0Zm8.328,-15.493c0,1.843 0.253,3.45 0.759,4.822c0.506,1.371 1.238,2.437 2.197,3.197c0.958,0.76 2.123,1.14 3.495,1.14c1.384,-0 2.556,-0.387 3.514,-1.16c0.959,-0.773 1.688,-1.849 2.187,-3.228c0.5,-1.378 0.749,-2.969 0.749,-4.771c0,-1.788 -0.246,-3.362 -0.739,-4.72c-0.492,-1.358 -1.218,-2.421 -2.177,-3.187c-0.958,-0.767 -2.136,-1.15 -3.534,-1.15c-1.385,0 -2.553,0.37 -3.505,1.11c-0.952,0.739 -1.681,1.788 -2.187,3.146c-0.506,1.359 -0.759,2.959 -0.759,4.801Z" style="fill:#ed5036;fill-rule:nonzero;"/><rect x="719.833" y="468.224" width="8.508" height="41.313" style="fill:#ed5036;fill-rule:nonzero;"/><path d="M736.255,509.537l0,-30.985l8.508,0l-0,30.985l-8.508,-0Zm4.294,-34.979c-1.265,-0 -2.35,-0.427 -3.255,-1.281c-0.906,-0.854 -1.358,-1.879 -1.358,-3.076c-0,-1.184 0.452,-2.202 1.358,-3.056c0.905,-0.854 1.983,-1.281 3.235,-1.281c1.278,-0 2.366,0.427 3.265,1.281c0.899,0.854 1.348,1.872 1.348,3.056c0,1.197 -0.449,2.222 -1.348,3.076c-0.899,0.854 -1.98,1.281 -3.245,1.281Z" style="fill:#ed5036;fill-rule:nonzero;"/><path d="M766.537,510.142c-3.142,-0 -5.841,-0.676 -8.098,-2.027c-2.257,-1.352 -3.988,-3.231 -5.192,-5.639c-1.205,-2.407 -1.808,-5.177 -1.808,-8.311c0,-3.173 0.609,-5.96 1.828,-8.361c1.218,-2.401 2.952,-4.277 5.202,-5.628c2.25,-1.352 4.926,-2.027 8.028,-2.027c2.676,-0 5.019,0.49 7.03,1.472c2.01,0.982 3.601,2.36 4.773,4.136c1.171,1.775 1.817,3.859 1.937,6.253l-8.028,-0c-0.227,-1.547 -0.822,-2.794 -1.788,-3.742c-0.965,-0.948 -2.226,-1.422 -3.784,-1.422c-1.318,-0 -2.466,0.36 -3.445,1.079c-0.979,0.72 -1.741,1.765 -2.287,3.137c-0.546,1.372 -0.818,3.032 -0.818,4.982c-0,1.977 0.269,3.658 0.808,5.044c0.54,1.385 1.302,2.44 2.287,3.167c0.985,0.726 2.137,1.089 3.455,1.089c0.972,-0 1.847,-0.202 2.626,-0.605c0.779,-0.404 1.425,-0.992 1.937,-1.765c0.513,-0.774 0.849,-1.705 1.009,-2.794l8.028,-0c-0.133,2.367 -0.769,4.448 -1.907,6.243c-1.139,1.795 -2.706,3.197 -4.703,4.206c-1.997,1.009 -4.361,1.513 -7.09,1.513Z" style="fill:#ed5036;fill-rule:nonzero;"/><path d="M823.346,480.105c-0.159,-1.627 -0.845,-2.891 -2.057,-3.792c-1.211,-0.901 -2.855,-1.352 -4.932,-1.352c-1.412,0 -2.603,0.199 -3.575,0.595c-0.972,0.397 -1.714,0.945 -2.227,1.644c-0.512,0.7 -0.769,1.493 -0.769,2.381c-0.026,0.739 0.13,1.385 0.47,1.936c0.339,0.552 0.808,1.026 1.408,1.423c0.599,0.396 1.291,0.739 2.077,1.028c0.785,0.289 1.624,0.535 2.516,0.737l3.674,0.887c1.784,0.404 3.422,0.942 4.913,1.614c1.491,0.672 2.783,1.499 3.875,2.481c1.091,0.982 1.94,2.138 2.546,3.47c0.606,1.331 0.915,2.858 0.928,4.579c-0.013,2.528 -0.649,4.717 -1.907,6.566c-1.258,1.849 -3.069,3.281 -5.432,4.297c-2.363,1.015 -5.209,1.523 -8.537,1.523c-3.302,-0 -6.175,-0.511 -8.618,-1.533c-2.443,-1.022 -4.347,-2.539 -5.711,-4.549c-1.365,-2.011 -2.08,-4.502 -2.147,-7.474l8.368,-0c0.093,1.385 0.489,2.538 1.188,3.46c0.699,0.921 1.637,1.613 2.816,2.077c1.178,0.464 2.513,0.696 4.004,0.696c1.464,0 2.739,-0.215 3.824,-0.645c1.085,-0.431 1.927,-1.029 2.527,-1.796c0.599,-0.766 0.898,-1.647 0.898,-2.642c0,-0.928 -0.269,-1.708 -0.809,-2.34c-0.539,-0.632 -1.324,-1.17 -2.356,-1.614c-1.032,-0.444 -2.293,-0.847 -3.785,-1.21l-4.453,-1.13c-3.448,-0.847 -6.171,-2.172 -8.168,-3.974c-1.997,-1.802 -2.989,-4.229 -2.976,-7.282c-0.013,-2.502 0.649,-4.687 1.987,-6.556c1.338,-1.87 3.179,-3.329 5.522,-4.378c2.344,-1.049 5.006,-1.573 7.989,-1.573c3.035,-0 5.688,0.524 7.958,1.573c2.27,1.049 4.037,2.508 5.302,4.378c1.265,1.869 1.917,4.034 1.957,6.495l-8.288,0Z" style="fill:#ed5036;fill-rule:nonzero;"/><path d="M852.81,510.142c-3.143,-0 -5.842,-0.676 -8.099,-2.027c-2.256,-1.352 -3.987,-3.231 -5.192,-5.639c-1.205,-2.407 -1.807,-5.177 -1.807,-8.311c-0,-3.173 0.609,-5.96 1.827,-8.361c1.218,-2.401 2.952,-4.277 5.202,-5.628c2.25,-1.352 4.926,-2.027 8.029,-2.027c2.676,-0 5.019,0.49 7.029,1.472c2.011,0.982 3.602,2.36 4.773,4.136c1.172,1.775 1.818,3.859 1.937,6.253l-8.028,-0c-0.226,-1.547 -0.822,-2.794 -1.787,-3.742c-0.965,-0.948 -2.227,-1.422 -3.785,-1.422c-1.318,-0 -2.466,0.36 -3.445,1.079c-0.978,0.72 -1.74,1.765 -2.286,3.137c-0.546,1.372 -0.819,3.032 -0.819,4.982c0,1.977 0.27,3.658 0.809,5.044c0.539,1.385 1.301,2.44 2.286,3.167c0.986,0.726 2.137,1.089 3.455,1.089c0.972,-0 1.848,-0.202 2.627,-0.605c0.778,-0.404 1.424,-0.992 1.937,-1.765c0.512,-0.774 0.848,-1.705 1.008,-2.794l8.028,-0c-0.133,2.367 -0.768,4.448 -1.907,6.243c-1.138,1.795 -2.706,3.197 -4.703,4.206c-1.997,1.009 -4.36,1.513 -7.089,1.513Z" style="fill:#ed5036;fill-rule:nonzero;"/><path d="M881.614,491.624l-0,17.913l-8.508,-0l0,-41.313l8.268,-0l-0,15.795l0.359,-0c0.693,-1.829 1.811,-3.265 3.356,-4.307c1.544,-1.042 3.481,-1.563 5.811,-1.563c2.13,-0 3.991,0.467 5.582,1.402c1.591,0.934 2.829,2.272 3.714,4.014c0.886,1.741 1.322,3.823 1.308,6.243l0,19.729l-8.507,-0l-0,-18.196c0.013,-1.909 -0.463,-3.395 -1.428,-4.458c-0.965,-1.062 -2.313,-1.593 -4.044,-1.593c-1.158,-0 -2.18,0.248 -3.066,0.746c-0.885,0.498 -1.577,1.22 -2.076,2.169c-0.5,0.948 -0.756,2.087 -0.769,3.419Z" style="fill:#ed5036;fill-rule:nonzero;"/><path d="M923.199,510.142c-3.102,-0 -5.782,-0.669 -8.038,-2.007c-2.257,-1.338 -3.998,-3.208 -5.223,-5.608c-1.224,-2.401 -1.837,-5.188 -1.837,-8.362c0,-3.2 0.613,-6.001 1.837,-8.401c1.225,-2.401 2.966,-4.27 5.223,-5.608c2.256,-1.338 4.936,-2.007 8.038,-2.007c3.102,-0 5.781,0.669 8.038,2.007c2.257,1.338 3.998,3.207 5.222,5.608c1.225,2.4 1.838,5.201 1.838,8.401c-0,3.174 -0.613,5.961 -1.838,8.362c-1.224,2.4 -2.965,4.27 -5.222,5.608c-2.257,1.338 -4.936,2.007 -8.038,2.007Zm0.04,-6.657c1.411,0 2.589,-0.407 3.535,-1.22c0.945,-0.814 1.661,-1.927 2.147,-3.339c0.486,-1.412 0.728,-3.019 0.728,-4.821c0,-1.802 -0.242,-3.409 -0.728,-4.821c-0.486,-1.412 -1.202,-2.529 -2.147,-3.349c-0.946,-0.82 -2.124,-1.23 -3.535,-1.23c-1.425,-0 -2.62,0.41 -3.585,1.23c-0.965,0.82 -1.691,1.937 -2.177,3.349c-0.486,1.412 -0.729,3.019 -0.729,4.821c0,1.802 0.243,3.409 0.729,4.821c0.486,1.412 1.212,2.525 2.177,3.339c0.965,0.813 2.16,1.22 3.585,1.22Z" style="fill:#ed5036;fill-rule:nonzero;"/><path d="M958.833,510.142c-3.102,-0 -5.781,-0.669 -8.038,-2.007c-2.257,-1.338 -3.998,-3.208 -5.222,-5.608c-1.225,-2.401 -1.838,-5.188 -1.838,-8.362c0,-3.2 0.613,-6.001 1.838,-8.401c1.224,-2.401 2.965,-4.27 5.222,-5.608c2.257,-1.338 4.936,-2.007 8.038,-2.007c3.102,-0 5.782,0.669 8.038,2.007c2.257,1.338 3.998,3.207 5.223,5.608c1.224,2.4 1.837,5.201 1.837,8.401c-0,3.174 -0.613,5.961 -1.837,8.362c-1.225,2.4 -2.966,4.27 -5.223,5.608c-2.256,1.338 -4.936,2.007 -8.038,2.007Zm0.04,-6.657c1.411,0 2.59,-0.407 3.535,-1.22c0.945,-0.814 1.661,-1.927 2.147,-3.339c0.486,-1.412 0.729,-3.019 0.729,-4.821c-0,-1.802 -0.243,-3.409 -0.729,-4.821c-0.486,-1.412 -1.202,-2.529 -2.147,-3.349c-0.945,-0.82 -2.124,-1.23 -3.535,-1.23c-1.425,-0 -2.62,0.41 -3.585,1.23c-0.965,0.82 -1.691,1.937 -2.177,3.349c-0.486,1.412 -0.728,3.019 -0.728,4.821c-0,1.802 0.242,3.409 0.728,4.821c0.486,1.412 1.212,2.525 2.177,3.339c0.965,0.813 2.16,1.22 3.585,1.22Z" style="fill:#ed5036;fill-rule:nonzero;"/><rect x="980.607" y="468.224" width="8.508" height="41.313" style="fill:#ed5036;fill-rule:nonzero;"/></g><g><path d="M441.793,203.883l13.201,0l3.688,-14.947l24.265,0l3.688,14.947l13.201,0l-17.859,-67.942l-22.324,0l-17.86,67.942Zm19.898,-26.788l8.25,-33.098l1.747,0l8.25,33.098l-18.247,-0Z" style="fill:#313638;fill-rule:nonzero;"/><rect x="508.377" y="135.941" width="12.23" height="67.942" style="fill:#313638;fill-rule:nonzero;"/><rect x="534.195" y="135.941" width="12.23" height="67.942" style="fill:#313638;fill-rule:nonzero;"/><path d="M566.128,150.112c4.465,-0 7.862,-3.106 7.862,-7.765c-0,-4.659 -3.397,-7.765 -7.862,-7.765c-4.465,0 -7.862,3.106 -7.862,7.765c0,4.659 3.397,7.765 7.862,7.765Zm-6.115,53.771l12.23,0l-0,-48.142l-12.23,0l0,48.142Z" style="fill:#313638;fill-rule:nonzero;"/><path d="M600.779,205.242c10.094,0 13.103,-5.435 13.976,-7.862l1.844,0l0,0.097c0,3.883 3.495,6.406 8.251,6.406l8.153,0l-0,-10.094l-3.883,0c-1.747,0 -2.718,-0.97 -2.718,-2.912l0,-17.956c0,-12.035 -7.958,-18.538 -20.576,-18.538c-12.521,-0 -18.83,6.309 -21.16,13.588l11.26,3.785c0.873,-4.367 3.591,-7.473 9.706,-7.473c6.211,-0 8.929,3.3 8.929,7.765l0,2.717l-13.2,0c-10.871,0 -18.636,5.145 -18.636,15.045c0,9.9 7.765,15.432 18.054,15.432Zm2.135,-9.9c-5.241,0 -7.959,-2.426 -7.959,-5.921c-0,-3.494 2.718,-5.532 7.279,-5.532l12.327,0l0,0.971c0,6.406 -4.853,10.482 -11.647,10.482Z" style="fill:#313638;fill-rule:nonzero;"/><path d="M641.932,203.883l12.23,0l-0,-24.459c-0,-8.929 4.368,-14.171 11.841,-14.171c6.6,0 10.289,3.592 10.289,10.871l-0,27.759l12.229,0l0,-28.729c0,-11.939 -7.473,-20.189 -18.732,-20.189c-8.639,-0 -12.521,3.785 -14.074,7.085l-1.747,0l-0,-6.309l-12.036,0l0,48.142Z" style="fill:#313638;fill-rule:nonzero;"/><path d="M724.337,205.242c13.782,0 21.644,-8.056 24.168,-18.441l-11.842,-2.815c-1.067,6.212 -4.659,10.386 -12.035,10.386c-7.377,-0 -13.006,-4.951 -13.006,-14.074l-0,-0.971c-0,-9.124 5.629,-14.074 13.006,-14.074c7.376,0 10.968,4.465 11.744,10.289l11.841,-2.524c-2.038,-10.676 -10.094,-18.635 -23.876,-18.635c-13.977,-0 -24.945,9.026 -24.945,24.75l-0,1.359c-0,15.724 10.968,24.75 24.945,24.75Z" style="fill:#313638;fill-rule:nonzero;"/><path d="M780.535,205.242c13.2,0 18.926,-7.473 21.644,-12.618l-9.997,-5.241c-1.65,3.688 -4.465,7.183 -11.259,7.183c-6.794,-0 -11.939,-4.562 -12.23,-11.162l35.039,-0l-0,-4.174c-0,-14.753 -9.221,-24.847 -23.392,-24.847c-14.365,-0 -24.071,9.706 -24.071,24.847l0,1.165c0,15.141 9.804,24.847 24.266,24.847Zm-11.745,-30.962c0.874,-5.532 4.853,-9.221 11.453,-9.221c6.309,0 10.483,3.689 11.065,9.221l-22.518,0Z" style="fill:#313638;fill-rule:nonzero;"/><path d="M446.452,307.698l44.26,0l-0,-11.647l-31.448,-0l0,-16.791l28.148,-0l-0,-11.648l-28.148,0l0,-16.209l30.866,0l-0,-11.647l-43.678,-0l0,67.942Z" style="fill:#313638;fill-rule:nonzero;"/><path d="M520.024,309.057c8.736,0 12.909,-3.494 15.142,-7.182l1.747,-0l-0,5.823l12.035,0l0,-67.942l-12.229,-0l-0,25.333l-1.747,-0c-2.039,-3.397 -6.212,-6.892 -14.948,-6.892c-11.647,0 -21.741,8.93 -21.741,24.654l-0,1.553c-0,15.724 10.191,24.653 21.741,24.653Zm3.689,-10.677c-7.474,0 -13.201,-4.95 -13.201,-14.267l0,-0.971c0,-9.318 5.63,-14.268 13.201,-14.268c7.57,0 13.2,4.95 13.2,14.268l-0,0.971c-0,9.317 -5.727,14.267 -13.2,14.267Z" style="fill:#313638;fill-rule:nonzero;"/><path d="M580.881,308.475c8.639,-0 12.521,-3.786 14.074,-7.086l1.747,0l-0,6.309l12.035,0l0,-48.142l-12.229,0l-0,24.459c-0,8.93 -4.368,14.171 -11.842,14.171c-6.6,0 -10.288,-3.591 -10.288,-10.87l0,-27.76l-12.23,0l0,28.73c0,11.939 7.474,20.189 18.733,20.189Z" style="fill:#313638;fill-rule:nonzero;"/><path d="M644.941,309.057c13.783,0 21.645,-8.056 24.168,-18.441l-11.841,-2.815c-1.068,6.212 -4.659,10.385 -12.036,10.385c-7.376,0 -13.006,-4.95 -13.006,-14.073l0,-0.971c0,-9.124 5.63,-14.074 13.006,-14.074c7.377,0 10.968,4.465 11.745,10.289l11.841,-2.524c-2.038,-10.677 -10.094,-18.636 -23.877,-18.636c-13.977,0 -24.944,9.027 -24.944,24.751l-0,1.359c-0,15.723 10.967,24.75 24.944,24.75Z" style="fill:#313638;fill-rule:nonzero;"/><path d="M694.151,309.057c10.094,0 13.103,-5.435 13.976,-7.862l1.845,0l-0,0.097c-0,3.883 3.494,6.406 8.25,6.406l8.153,0l-0,-10.094l-3.883,-0c-1.747,-0 -2.717,-0.971 -2.717,-2.912l-0,-17.956c-0,-12.036 -7.959,-18.539 -20.577,-18.539c-12.521,0 -18.83,6.309 -21.159,13.589l11.259,3.785c0.873,-4.367 3.591,-7.473 9.706,-7.473c6.212,-0 8.929,3.3 8.929,7.764l0,2.718l-13.2,0c-10.871,0 -18.636,5.144 -18.636,15.044c0,9.901 7.765,15.433 18.054,15.433Zm2.135,-9.9c-5.241,-0 -7.959,-2.427 -7.959,-5.921c0,-3.494 2.718,-5.532 7.28,-5.532l12.326,-0l0,0.97c0,6.406 -4.853,10.483 -11.647,10.483Z" style="fill:#313638;fill-rule:nonzero;"/><path d="M750.252,307.698l13.588,0l0,-10.094l-9.318,-0c-1.747,-0 -2.717,-0.971 -2.717,-2.912l-0,-25.041l13.2,-0l-0,-10.095l-13.2,0l-0,-14.947l-12.23,-0l0,14.947l-12.035,0l-0,10.095l12.035,-0l0,27.176c0,6.601 4.271,10.871 10.677,10.871Z" style="fill:#313638;fill-rule:nonzero;"/><path d="M782.185,253.927c4.464,-0 7.861,-3.106 7.861,-7.765c0,-4.659 -3.397,-7.765 -7.861,-7.765c-4.465,0 -7.862,3.106 -7.862,7.765c-0,4.659 3.397,7.765 7.862,7.765Zm-6.115,53.771l12.229,0l0,-48.142l-12.229,0l-0,48.142Z" style="fill:#313638;fill-rule:nonzero;"/><path d="M824.794,309.057c14.365,0 25.236,-9.124 25.236,-24.653l-0,-1.553c-0,-15.53 -10.871,-24.654 -25.236,-24.654c-14.365,0 -25.236,9.124 -25.236,24.654l0,1.553c0,15.529 10.871,24.653 25.236,24.653Zm0,-10.871c-7.474,0 -13.006,-5.047 -13.006,-14.073l-0,-0.971c-0,-9.027 5.435,-14.074 13.006,-14.074c7.571,0 13.006,5.047 13.006,14.074l0,0.971c0,9.026 -5.532,14.073 -13.006,14.073Z" style="fill:#313638;fill-rule:nonzero;"/><path d="M861.289,307.698l12.229,0l0,-24.459c0,-8.93 4.368,-14.171 11.842,-14.171c6.6,0 10.288,3.591 10.288,10.871l0,27.759l12.23,0l-0,-28.73c-0,-11.938 -7.474,-20.188 -18.733,-20.188c-8.638,-0 -12.521,3.785 -14.074,7.085l-1.747,0l0,-6.309l-12.035,0l-0,48.142Z" style="fill:#313638;fill-rule:nonzero;"/><path d="M936.025,309.057c10.095,0 13.104,-5.435 13.977,-7.862l1.844,0l0,0.097c0,3.883 3.494,6.406 8.25,6.406l8.153,0l0,-10.094l-3.882,-0c-1.747,-0 -2.718,-0.971 -2.718,-2.912l0,-17.956c0,-12.036 -7.959,-18.539 -20.576,-18.539c-12.521,0 -18.83,6.309 -21.16,13.589l11.259,3.785c0.874,-4.367 3.592,-7.473 9.706,-7.473c6.212,-0 8.93,3.3 8.93,7.764l-0,2.718l-13.2,0c-10.871,0 -18.636,5.144 -18.636,15.044c0,9.901 7.765,15.433 18.053,15.433Zm2.136,-9.9c-5.242,-0 -7.959,-2.427 -7.959,-5.921c-0,-3.494 2.717,-5.532 7.279,-5.532l12.327,-0l-0,0.97c-0,6.406 -4.853,10.483 -11.647,10.483Z" style="fill:#313638;fill-rule:nonzero;"/><rect x="977.179" y="239.756" width="12.23" height="67.942" style="fill:#313638;fill-rule:nonzero;"/><path d="M446.452,411.513l12.812,0l0,-28.245l27.566,0l-0,-11.647l-27.566,0l0,-16.403l29.895,-0l-0,-11.647l-42.707,-0l0,67.942Z" style="fill:#313638;fill-rule:nonzero;"/><path d="M521.189,412.872c14.365,-0 25.236,-9.124 25.236,-24.653l-0,-1.553c-0,-15.53 -10.871,-24.654 -25.236,-24.654c-14.365,0 -25.236,9.124 -25.236,24.654l0,1.553c0,15.529 10.871,24.653 25.236,24.653Zm-0,-10.871c-7.474,0 -13.006,-5.047 -13.006,-14.074l-0,-0.97c-0,-9.027 5.435,-14.074 13.006,-14.074c7.571,-0 13.006,5.047 13.006,14.074l0,0.97c0,9.027 -5.532,14.074 -13.006,14.074Z" style="fill:#313638;fill-rule:nonzero;"/><path d="M576.028,412.29c8.638,-0 12.521,-3.786 14.074,-7.086l1.747,0l-0,6.309l12.035,0l0,-48.142l-12.229,0l-0,24.459c-0,8.93 -4.368,14.171 -11.842,14.171c-6.6,0 -10.288,-3.591 -10.288,-10.871l0,-27.759l-12.23,0l0,28.73c0,11.938 7.474,20.189 18.733,20.189Z" style="fill:#313638;fill-rule:nonzero;"/><path d="M617.473,411.513l12.23,0l-0,-24.459c-0,-8.93 4.367,-14.171 11.841,-14.171c6.6,-0 10.288,3.591 10.288,10.871l0,27.759l12.23,0l-0,-28.73c-0,-11.938 -7.474,-20.188 -18.733,-20.188c-8.638,-0 -12.521,3.785 -14.073,7.085l-1.748,-0l0,-6.309l-12.035,0l-0,48.142Z" style="fill:#313638;fill-rule:nonzero;"/><path d="M696.674,412.872c8.736,-0 12.909,-3.494 15.142,-7.183l1.747,0l-0,5.824l12.035,0l0,-67.942l-12.229,-0l-0,25.332l-1.747,0c-2.039,-3.397 -6.212,-6.891 -14.948,-6.891c-11.647,0 -21.741,8.93 -21.741,24.654l-0,1.553c-0,15.723 10.191,24.653 21.741,24.653Zm3.689,-10.677c-7.474,0 -13.201,-4.95 -13.201,-14.268l0,-0.97c0,-9.318 5.63,-14.268 13.201,-14.268c7.57,-0 13.2,4.95 13.2,14.268l-0,0.97c-0,9.318 -5.727,14.268 -13.2,14.268Z" style="fill:#313638;fill-rule:nonzero;"/><path d="M754.134,412.872c10.094,-0 13.103,-5.436 13.977,-7.862l1.844,-0l-0,0.097c-0,3.882 3.494,6.406 8.25,6.406l8.153,0l0,-10.094l-3.882,-0c-1.747,-0 -2.718,-0.971 -2.718,-2.912l0,-17.956c0,-12.036 -7.959,-18.539 -20.577,-18.539c-12.521,0 -18.83,6.309 -21.159,13.589l11.259,3.785c0.874,-4.368 3.591,-7.474 9.706,-7.474c6.212,0 8.93,3.3 8.93,7.765l-0,2.718l-13.201,-0c-10.87,-0 -18.635,5.144 -18.635,15.044c-0,9.9 7.765,15.433 18.053,15.433Zm2.135,-9.9c-5.241,-0 -7.959,-2.427 -7.959,-5.921c0,-3.494 2.718,-5.532 7.28,-5.532l12.327,-0l-0,0.97c-0,6.406 -4.853,10.483 -11.648,10.483Z" style="fill:#313638;fill-rule:nonzero;"/><path d="M810.235,411.513l13.588,0l0,-10.094l-9.317,-0c-1.747,-0 -2.718,-0.971 -2.718,-2.912l-0,-25.042l13.2,0l0,-10.094l-13.2,0l-0,-14.947l-12.23,-0l0,14.947l-12.035,0l-0,10.094l12.035,0l0,27.177c0,6.6 4.271,10.871 10.677,10.871Z" style="fill:#313638;fill-rule:nonzero;"/><path d="M842.168,357.742c4.465,-0 7.862,-3.106 7.862,-7.765c-0,-4.659 -3.397,-7.765 -7.862,-7.765c-4.465,-0 -7.862,3.106 -7.862,7.765c0,4.659 3.397,7.765 7.862,7.765Zm-6.115,53.771l12.23,0l-0,-48.142l-12.23,0l0,48.142Z" style="fill:#313638;fill-rule:nonzero;"/><path d="M884.777,412.872c14.365,-0 25.236,-9.124 25.236,-24.653l0,-1.553c0,-15.53 -10.871,-24.654 -25.236,-24.654c-14.364,0 -25.235,9.124 -25.235,24.654l-0,1.553c-0,15.529 10.871,24.653 25.235,24.653Zm0,-10.871c-7.473,0 -13.006,-5.047 -13.006,-14.074l0,-0.97c0,-9.027 5.436,-14.074 13.006,-14.074c7.571,-0 13.007,5.047 13.007,14.074l-0,0.97c-0,9.027 -5.533,14.074 -13.007,14.074Z" style="fill:#313638;fill-rule:nonzero;"/><path d="M921.272,411.513l12.23,0l-0,-24.459c-0,-8.93 4.368,-14.171 11.841,-14.171c6.6,-0 10.289,3.591 10.289,10.871l-0,27.759l12.229,0l0,-28.73c0,-11.938 -7.473,-20.188 -18.732,-20.188c-8.639,-0 -12.521,3.785 -14.074,7.085l-1.747,-0l-0,-6.309l-12.036,0l0,48.142Z" style="fill:#313638;fill-rule:nonzero;"/></g><g><path d="M295.71,172.504l0,22.322l7.288,7.288l7.287,-7.288l-0.002,-22.322l-14.573,0Z" style="fill:#fa9e84;"/><path d="M295.71,252.335l0,-22.322l7.288,-7.287l7.287,7.287l-0.002,22.322l-14.573,0Z" style="fill:#f06046;"/><path d="M342.913,205.132l-22.322,0l-7.287,7.288l7.287,7.287l22.322,-0.001l-0,-14.574Z" style="fill:#f57f65;"/><path d="M263.082,205.132l22.322,0l7.288,7.288l-7.288,7.287l-22.322,-0.001l0,-14.574Z" style="fill:#ffbda3;"/><path d="M326.07,179.042l-15.784,15.784l0,10.306l10.306,0l15.783,-15.785l-10.305,-10.305Z" style="fill:#f78e74;"/><path d="M279.928,179.042l15.784,15.784l-0,10.306l-10.306,0l-15.783,-15.785l10.305,-10.305Z" style="fill:#fcad93;"/><path d="M326.07,245.794l-15.784,-15.784l0,-10.306l10.306,-0l15.783,15.785l-10.305,10.305Z" style="fill:#f26f55;"/><path d="M279.928,245.794l15.784,-15.784l-0,-10.306l-10.306,-0l-15.783,15.785l10.305,10.305Z" style="fill:#ed5036;"/><path d="M299.979,205.132l3.019,-3.018l3.018,3.018l4.269,0l0,4.269l3.017,3.017l-3.017,3.017c0,0 0,4.269 0,4.269l-4.266,-0l-0.003,0.003l-0.003,0l-3.015,3.016l-3.016,-3.016l-0.003,0l-0.003,-0.003l-4.266,-0l0,-4.269l-3.017,-3.017l3.017,-3.017l0,-4.269l4.269,0Z" style="fill:#f6bc1e;"/></g><path d="M284.877,350.743l-15.962,0l0,31.929l15.962,0l-0,-31.929Zm40.901,-24.869l11.306,-11.305c-4.038,-4.044 -8.935,-7.212 -14.397,-9.232c-20.656,-7.639 -43.628,2.93 -51.266,23.585c-0.707,1.911 -1.265,3.87 -1.661,5.86l16.549,-0c-0.932,2.615 -1.452,5.374 -1.432,8.152l-0,7.809l31.957,0l0,-15.961l-30.525,-0l0.108,-0.314c4.578,-12.379 18.345,-18.713 30.724,-14.135c3.278,1.212 6.216,3.114 8.637,5.541Z" style="fill:#313638;"/></g></svg>