<?xml version="1.0" encoding="UTF-8" standalone="no"?>
<!-- Generator: Adobe Illustrator 14.0.0, SVG Export Plug-In . SVG Version: 6.00 Build 43363)  -->
<svg xmlns:dc="http://purl.org/dc/elements/1.1/" xmlns:cc="http://creativecommons.org/ns#" xmlns:rdf="http://www.w3.org/1999/02/22-rdf-syntax-ns#" xmlns:svg="http://www.w3.org/2000/svg" xmlns="http://www.w3.org/2000/svg" xmlns:sodipodi="http://sodipodi.sourceforge.net/DTD/sodipodi-0.dtd" xmlns:inkscape="http://www.inkscape.org/namespaces/inkscape" version="1.1" x="0px" y="0px" width="400.31396" height="56.437904" viewBox="0 0 400.31396 56.437904" enable-background="new 0 0 434 88" xml:space="preserve" id="svg2" inkscape:version="0.47 r22583" sodipodi:docname="National_Institute_of_Design_Bangalore_logo.svg"><metadata id="metadata191"><rdf:RDF><cc:Work rdf:about=""><dc:format>image/svg+xml</dc:format><dc:type rdf:resource="http://purl.org/dc/dcmitype/StillImage"/></cc:Work></rdf:RDF></metadata><defs id="defs189"><inkscape:perspective sodipodi:type="inkscape:persp3d" inkscape:vp_x="0 : 44 : 1" inkscape:vp_y="0 : 1000 : 0" inkscape:vp_z="434 : 44 : 1" inkscape:persp3d-origin="217 : 29.333333 : 1" id="perspective193"/></defs><sodipodi:namedview pagecolor="#ffffff" bordercolor="#666666" borderopacity="1" objecttolerance="10" gridtolerance="10" guidetolerance="10" inkscape:pageopacity="0" inkscape:pageshadow="2" inkscape:window-width="1280" inkscape:window-height="750" id="namedview187" showgrid="false" inkscape:zoom="3.5192411" inkscape:cx="99.916441" inkscape:cy="7.202798" inkscape:window-x="-8" inkscape:window-y="-8" inkscape:window-maximized="1" inkscape:current-layer="svg2"/>
<g id="Layer_1" transform="translate(-2.88826, -3.65256)">
</g>

<g id="Layer_3" transform="matrix(0.980318, 0, 0, 0.980318, -11.4982, -13.0353)">
	<g id="g9">
		<polygon clip-rule="evenodd" points="11.729,29.166 45.813,29.166 45.813,70.868 " id="polygon11" style="fill:#231f20;fill-rule:evenodd"/>
		<path clip-rule="evenodd" d="m 56.645,29.153 h 7.732 c 7.594,0 19.15,6.736 19.15,20.521 0,14.392 -11.556,20.374 -19.15,20.374 H 56.645 V 29.153 z" id="path13" style="fill:#231f20;fill-rule:evenodd"/>
		<circle clip-rule="evenodd" cx="51.271999" cy="20.541" r="7.244" id="circle15" d="m 58.515999,20.541 c 0,4.000751 -3.243249,7.244 -7.244,7.244 -4.00075,0 -7.244,-3.243249 -7.244,-7.244 0,-4.00075 3.24325,-7.244 7.244,-7.244 4.000751,0 7.244,3.24325 7.244,7.244 z" sodipodi:cx="51.271999" sodipodi:cy="20.541" sodipodi:rx="7.244" sodipodi:ry="7.244" style="fill:#231f20;fill-rule:evenodd"/>
	</g>
	<polygon points="136.35,69.84 136.35,55.907 133.745,55.907 133.745,66.324 133.615,66.324 128.407,55.907 124.891,55.907 124.891,69.84 127.625,69.84 127.625,59.423 127.625,59.423 132.964,69.84 " id="polygon17" style="fill:#231f20"/>
	<polygon points="151.454,55.907 151.454,58.121 155.36,58.121 155.36,69.84 158.225,69.84 158.225,58.121 162.132,58.121 162.132,55.907 " id="polygon19" style="fill:#231f20"/>
	<g id="g21">
		<rect x="163.30299" y="55.907001" width="2.865" height="13.933" id="rect23" style="fill:#231f20"/>
		<path d="M 164.735,62.874" id="path25" style="fill:#231f20"/>
	</g>
	<polygon points="195.205,69.84 195.205,55.907 192.601,55.907 192.601,66.324 192.471,66.324 187.262,55.907 183.876,55.907 183.876,69.84 186.481,69.84 186.481,59.423 186.481,59.423 191.819,69.84 " id="polygon27" style="fill:#231f20"/>
	<polygon points="211.742,55.907 211.742,69.84 219.945,69.84 219.945,67.626 214.606,67.626 214.606,55.907 " id="polygon29" style="fill:#231f20"/>
	<g id="g31">
		<rect x="226.455" y="55.907001" width="2.865" height="13.933" id="rect33" style="fill:#231f20"/>
		<path d="M 227.888,62.874" id="path35" style="fill:#231f20"/>
	</g>
	<polygon points="243.384,69.84 243.384,55.907 240.648,55.907 240.648,66.324 240.648,66.324 235.44,55.907 231.925,55.907 231.925,69.84 234.658,69.84 234.658,59.423 234.658,59.423 239.998,69.84 " id="polygon37" style="fill:#231f20"/>
	<path d="m 253.67,56.168 c -0.911,-0.391 -2.083,-0.521 -3.256,-0.521 -2.474,0 -4.817,1.172 -4.817,4.297 0,4.557 5.99,3.385 5.99,6.12 0,1.172 -1.433,1.823 -2.475,1.823 -1.041,0 -2.084,-0.391 -3.125,-0.912 l -0.261,2.474 c 1.433,0.391 2.084,0.521 3.646,0.521 2.734,0 5.208,-1.042 5.208,-4.167 0,-4.688 -6.12,-3.646 -6.12,-5.99 0,-1.563 1.173,-1.953 2.214,-1.953 0.912,0 1.953,0.261 2.734,0.521 l 0.262,-2.213 z" id="path39" style="fill:#231f20"/>
	<polygon points="255.232,55.907 255.232,58.121 259.27,58.121 259.27,69.84 262.003,69.84 262.003,58.121 266.04,58.121 266.04,55.907 " id="polygon41" style="fill:#231f20"/>
	<g id="g43">
		<rect x="267.21201" y="55.907001" width="2.734" height="13.933" id="rect45" style="fill:#231f20"/>
		<path d="M 268.579,62.874" id="path47" style="fill:#231f20"/>
	</g>
	<polygon points="271.378,55.907 271.378,58.121 275.285,58.121 275.285,69.84 278.149,69.84 278.149,58.121 282.056,58.121 282.056,55.907 " id="polygon49" style="fill:#231f20"/>
	<path d="m 283.357,64.762 c 0,3.776 2.215,5.208 5.73,5.208 3.515,0 5.729,-1.432 5.729,-5.208 v -8.854 h -2.865 v 7.943 c 0,2.474 -0.78,4.037 -2.863,4.037 -2.084,0 -2.865,-1.563 -2.865,-4.037 v -7.943 h -2.865 v 8.854 z" id="path51" style="fill:#231f20"/>
	<polygon points="295.989,55.907 295.989,58.121 299.895,58.121 299.895,69.84 302.76,69.84 302.76,58.121 306.666,58.121 306.666,55.907 " id="polygon53" style="fill:#231f20"/>
	<polygon points="315.911,63.72 315.911,61.506 310.963,61.506 310.963,58.121 316.301,58.121 316.301,55.907 308.098,55.907 308.098,69.84 316.432,69.84 316.432,67.626 310.963,67.626 310.963,63.72 " id="polygon55" style="fill:#231f20"/>
	<polygon points="341.953,61.506 341.953,58.121 346.901,58.121 346.901,55.907 339.219,55.907 339.219,69.84 341.953,69.84 341.953,63.72 346.641,63.72 346.641,61.506 " id="polygon57" style="fill:#231f20"/>
	<polygon points="375.809,63.72 375.809,61.506 370.86,61.506 370.86,58.121 376.329,58.121 376.329,55.907 368.126,55.907 368.126,69.84 376.329,69.84 376.329,67.626 370.86,67.626 370.86,63.72 " id="polygon59" style="fill:#231f20"/>
	<path d="m 386.485,56.168 c -0.912,-0.391 -2.083,-0.521 -3.255,-0.521 -2.475,0 -4.818,1.172 -4.818,4.297 0,4.557 5.99,3.385 5.99,6.12 0,1.172 -1.303,1.823 -2.474,1.823 -1.042,0 -2.084,-0.391 -3.126,-0.912 l -0.26,2.474 c 1.432,0.391 2.083,0.521 3.646,0.521 2.734,0 5.208,-1.042 5.208,-4.167 0,-4.688 -6.12,-3.646 -6.12,-5.99 0,-1.563 1.173,-1.953 2.214,-1.953 0.912,0 1.953,0.261 2.735,0.521 l 0.26,-2.213 z" id="path61" style="fill:#231f20"/>
	<g id="g63">
		<rect x="389.35001" y="55.907001" width="2.7349999" height="13.933" id="rect65" style="fill:#231f20"/>
		<path d="M 390.717,62.874" id="path67" style="fill:#231f20"/>
	</g>
	<path d="m 405.888,56.168 c -1.173,-0.261 -2.475,-0.521 -4.037,-0.521 -4.688,0 -7.683,2.734 -7.683,7.422 0,4.688 3.125,6.901 7.683,6.901 1.433,0 2.995,-0.26 4.428,-0.651 v -7.552 h -5.6 v 2.213 h 2.995 v 3.646 c -0.521,0.131 -1.042,0.261 -1.823,0.261 -2.995,0 -4.688,-2.214 -4.688,-4.948 0,-2.865 1.692,-5.079 4.948,-5.079 1.172,0 2.604,0.261 3.646,0.782 l 0.131,-2.474 z" id="path69" style="fill:#231f20"/>
	<polygon points="420.08,69.84 420.08,55.907 417.476,55.907 417.476,66.324 417.346,66.324 412.138,55.907 408.621,55.907 408.621,69.84 411.356,69.84 411.356,59.423 411.356,59.423 416.694,69.84 " id="polygon71" style="fill:#231f20"/>
	<g id="g73">
		<polygon points="144.422,55.907 144.422,58.642 144.422,58.642 146.506,64.371 144.422,64.371 144.422,66.585 147.287,66.585 148.459,69.84 151.584,69.84 146.115,55.907 " id="polygon75" style="fill:#231f20"/>
		<polygon points="142.47,64.371 144.422,58.642 144.422,58.642 144.422,55.907 142.99,55.907 137.521,69.84 140.386,69.84 141.688,66.585 144.422,66.585 144.422,64.371 " id="polygon77" style="fill:#231f20"/>
	</g>
	<g id="g79">
		<path d="m 175.022,69.97 c 4.427,0 6.9,-2.995 6.9,-7.161 0,-4.166 -2.474,-7.162 -6.9,-7.162 v 2.213 c 2.864,0 3.906,2.475 3.906,4.948 0,2.474 -1.042,5.078 -3.906,5.078 v 2.084 z" id="path81" style="fill:#231f20"/>
		<path d="m 168.251,62.809 c 0,4.297 2.344,7.161 6.771,7.161 v -2.083 c -2.734,0 -3.906,-2.604 -3.906,-5.078 0,-2.474 1.172,-4.948 3.906,-4.948 v -2.213 c -4.296,-0.001 -6.771,2.863 -6.771,7.161 z" id="path83" style="fill:#231f20"/>
	</g>
	<g id="g85">
		<polygon points="210.44,69.84 204.971,55.907 203.408,55.907 203.408,58.642 203.408,58.642 205.361,64.371 203.408,64.371 203.408,66.585 206.143,66.585 207.314,69.84 " id="polygon87" style="fill:#231f20"/>
		<polygon points="201.846,55.907 196.377,69.84 199.372,69.84 200.544,66.585 203.408,66.585 203.408,64.371 201.324,64.371 203.278,58.642 203.408,58.642 203.408,55.907 " id="polygon89" style="fill:#231f20"/>
	</g>
	<g id="g91">
		<path d="m 330.364,69.97 c 4.427,0 6.771,-2.995 6.771,-7.161 0,-4.166 -2.475,-7.162 -6.771,-7.162 v 2.213 c 2.734,0 3.906,2.475 3.906,4.948 0,2.474 -1.041,5.078 -3.906,5.078 v 2.084 z" id="path93" style="fill:#231f20"/>
		<path d="m 323.593,62.809 c 0,4.297 2.345,7.161 6.771,7.161 v -2.083 c -2.864,0 -3.906,-2.604 -3.906,-5.078 0,-2.474 1.172,-4.948 3.906,-4.948 v -2.213 c -4.426,-0.001 -6.771,2.863 -6.771,7.161 z" id="path95" style="fill:#231f20"/>
	</g>
	<g id="g97">
		<path d="m 360.053,69.71 c 3.386,-0.521 5.99,-2.214 5.99,-6.901 0,-4.558 -2.604,-6.38 -5.99,-6.771 v 2.344 c 1.692,0.521 2.994,2.083 2.994,4.427 0,2.344 -1.302,3.906 -2.994,4.557 v 2.344 z" id="path99" style="fill:#231f20"/>
		<path d="m 354.193,69.84 h 3.776 c 0.78,0 1.432,-0.13 2.083,-0.13 v -2.344 c -0.521,0.13 -1.042,0.26 -1.563,0.26 h -1.563 v -9.505 h 1.563 c 0.521,0 1.042,0 1.563,0.26 v -2.344 c -0.651,-0.13 -1.303,-0.13 -2.083,-0.13 h -3.776 V 69.84 z" id="path101" style="fill:#231f20"/>
	</g>
	<g id="g103">
		<path d="m 134.526,31.072 v -2.214 h -11.068 v 2.214 h 5.86 v 3.906 c 0,0.651 -0.521,1.692 -1.954,1.692 0.391,-2.083 -0.912,-3.125 -2.083,-2.734 -3.516,1.171 1.433,6.119 1.433,6.119 l 4.297,4.558 2.213,-1.823 -4.948,-4.297 c 1.823,0 3.775,-1.563 3.775,-3.255 v -4.167 h 2.475 z" id="path105" style="fill:#231f20"/>
		<polygon points="135.568,43.572 138.303,44.614 138.303,31.072 140.906,31.072 140.906,28.858 133.615,28.858 133.615,31.072 135.568,31.072 " id="polygon107" style="fill:#231f20"/>
		<path d="m 161.61,31.072 v -2.214 h -14.193 v 2.214 h 6.901 v 1.692 c -3.516,0.13 -5.989,1.563 -5.989,5.859 0.13,3.646 2.344,5.729 6.51,5.729 4.037,0 5.339,-2.865 5.859,-4.427 l -2.604,-1.172 c -0.521,1.693 -1.302,3.125 -3.255,3.125 -1.953,0.13 -3.516,-0.782 -3.516,-3.256 0,-1.823 0.651,-2.604 1.692,-2.994 1.173,-0.391 2.865,-0.391 4.037,-0.261 V 31.07 h 4.558 z" id="path109" style="fill:#231f20"/>
		<polygon points="161.741,49.432 155.751,45.135 154.059,45.135 148.068,49.432 149.631,51.254 154.839,46.828 160.178,51.254 " id="polygon111" style="fill:#231f20"/>
		<path d="m 167.47,31.072 v -2.214 h -2.344 v -2.995 c 0,-2.083 -0.13,-4.687 -4.688,-4.687 -3.776,0 -4.817,2.474 -4.817,4.818 v 1.171 l 2.864,1.042 v -2.344 c 0,-1.302 0.391,-2.213 1.953,-2.213 1.433,0 1.953,0.781 1.953,2.213 v 2.995 h -1.953 v 2.214 h 1.823 v 12.5 l 2.864,1.042 V 31.072 h 2.345 z" id="path113" style="fill:#231f20"/>
		<path d="m 178.538,39.405 -1.303,-1.692 c -0.911,0.911 -2.083,1.563 -3.386,1.692 -2.343,0.13 -2.864,-1.563 -3.124,-2.604 3.124,-0.912 3.906,-3.125 2.213,-5.729 h 2.604 v -2.214 h -8.724 v 2.214 h 3.125 c 0.521,0.26 1.563,1.172 1.302,2.474 0,1.172 -2.475,1.433 -3.386,1.693 -0.261,3.646 1.172,6.641 5.599,6.51 2.476,0 4.038,-1.432 5.08,-2.344 z" id="path115" style="fill:#231f20"/>
		<polygon points="176.715,43.572 179.449,44.614 179.449,31.072 181.923,31.072 181.923,28.858 174.762,28.858 174.762,31.072 176.715,31.072 " id="polygon117" style="fill:#231f20"/>
		<path d="m 205.101,26.385 c -2.995,-2.344 -6.901,-5.208 -10.416,-5.208 -3.906,0 -5.6,2.083 -5.6,4.687 v 2.995 h -1.953 v 2.214 h 1.953 v 12.5 l 2.864,1.042 V 31.072 h 2.474 v -2.214 h -2.474 v -2.995 c 0,-1.041 0.781,-2.213 2.604,-2.213 2.734,0 7.161,2.864 8.854,4.557 l 1.694,-1.822 z" id="path119" style="fill:#231f20"/>
		<path d="m 206.143,31.072 v -2.214 h -12.5 v 2.214 h 7.292 v 1.172 c -2.995,-0.26 -5.859,0.26 -5.859,3.515 0,2.865 2.474,3.386 3.516,3.386 l 2.474,0.13 c 0.781,0 1.432,0.391 1.563,1.302 0.131,1.562 -1.692,1.562 -2.734,1.562 -1.563,0 -3.646,-0.781 -4.427,-1.432 l -1.434,2.083 c 1.303,1.042 3.646,1.563 5.99,1.563 2.474,0.13 5.078,-0.261 5.209,-3.776 0.13,-2.995 -2.604,-3.646 -3.776,-3.646 h -2.083 c -1.954,-0.13 -1.693,-1.953 -0.781,-2.344 0.521,-0.26 1.822,-0.26 2.474,-0.26 1.172,0.13 1.823,0.13 2.604,0.26 v -3.516 h 2.472 z" id="path121" style="fill:#231f20"/>
		<g id="g123">
			<rect x="205.231" y="28.858" width="10.547" height="2.214" id="rect125" style="fill:#231f20"/>
			<path d="M 210.505,29.965" id="path127" style="fill:#231f20"/>
		</g>
		<path d="m 217.861,36.281 v -2.344 h -5.989 l -0.781,1.822 c 0.521,0.651 1.432,1.042 1.563,1.954 0.261,1.042 0.261,2.083 -0.911,2.214 -2.604,0.129 -3.517,-3.907 -3.646,-6.511 l -2.214,0.521 c 0.13,2.864 1.042,8.463 6.12,8.463 1.563,0 3.386,-0.912 3.386,-3.516 0,-0.521 -0.392,-1.953 -1.042,-2.604 h 3.514 z" id="path129" style="fill:#231f20"/>
		<polygon points="216.82,43.572 219.685,44.614 219.685,31.072 222.158,31.072 222.158,28.858 214.867,28.858 214.867,31.072 216.82,31.072 " id="polygon131" style="fill:#231f20"/>
		<polygon points="208.226,43.703 206.402,45.395 208.226,47.348 210.049,45.525 " id="polygon133" style="fill:#231f20"/>
		<polygon points="223.331,43.572 226.195,44.614 226.195,31.072 228.669,31.072 228.669,28.858 221.508,28.858 221.508,31.072 223.331,31.072 " id="polygon135" style="fill:#231f20"/>
		<path d="m 239.478,31.072 v -2.214 h -11.59 v 2.214 h 6.511 v 1.563 c -2.994,-0.13 -5.599,0 -5.729,3.125 0,2.604 1.823,2.995 3.906,3.386 1.172,0.13 2.995,0.13 3.126,1.693 0,1.563 -1.173,2.213 -3.126,2.083 -0.26,-1.823 -1.562,-3.125 -3.125,-2.343 -1.563,0.781 -1.041,2.734 -0.26,3.255 0.391,0.391 2.083,0.912 2.083,0.912 l 2.344,3.646 2.084,-1.302 -2.084,-2.344 c 2.084,-0.13 4.948,-0.912 4.817,-4.167 0,-2.995 -2.083,-3.386 -4.427,-3.646 -1.172,-0.13 -3.516,-0.13 -2.344,-2.083 0.391,-0.521 2.214,-0.391 2.864,-0.391 1.173,0.13 1.823,0 2.735,0.13 v -3.516 h 2.215 z" id="path137" style="fill:#231f20"/>
		<g id="g139">
			<rect x="238.69501" y="28.858" width="8.4639997" height="2.214" id="rect141" style="fill:#231f20"/>
			<path d="M 242.928,29.965" id="path143" style="fill:#231f20"/>
		</g>
		<path d="m 249.634,37.192 v -2.474 h -8.204 c -1.563,0 -2.734,0.521 -2.343,2.214 0,0 0.521,0.911 1.171,1.692 0.781,0.781 1.563,1.563 1.563,1.563 2.084,0.651 2.604,-1.302 2.475,-2.995 h 5.338 z" id="path145" style="fill:#231f20"/>
		<polygon points="248.331,43.572 251.195,44.614 251.195,31.072 253.67,31.072 253.67,28.858 246.378,28.858 246.378,31.072 248.331,31.072 " id="polygon147" style="fill:#231f20"/>
		<path d="M 272.16,38.234 V 36.02 h -5.339 c 0.391,-1.172 0.26,-2.734 0.26,-4.948 h 3.386 v -2.214 h -11.589 v 2.214 h 5.47 v 3.906 c 0,0.651 -0.391,1.692 -1.823,1.692 0.391,-2.083 -0.912,-3.125 -2.214,-2.734 -3.516,1.171 1.433,6.119 1.433,6.119 l 4.427,4.558 2.084,-1.823 -5.079,-4.557 c -10e-4,0.001 8.333,0.001 8.984,0.001 z" id="path149" style="fill:#231f20"/>
		<polygon points="271.378,43.572 274.243,44.614 274.243,31.072 276.718,31.072 276.718,28.858 269.556,28.858 269.556,31.072 271.378,31.072 " id="polygon151" style="fill:#231f20"/>
		<polygon points="272.681,22.087 270.467,24.301 272.681,26.645 274.895,24.431 " id="polygon153" style="fill:#231f20"/>
		<path d="M 289.348,38.234 V 36.02 h -5.208 c 0.391,-1.172 0.13,-2.734 0.13,-4.948 h 3.385 v -2.214 h -11.588 v 2.214 h 5.469 v 3.906 c 0,0.651 -0.391,1.692 -1.693,1.692 0.261,-2.083 -0.911,-3.125 -2.213,-2.734 -3.646,1.171 1.302,6.119 1.432,6.119 l 4.297,4.558 2.215,-1.823 -5.209,-4.557 c -0.002,0.001 8.332,0.001 8.983,0.001 z" id="path155" style="fill:#231f20"/>
		<polygon points="297.682,43.572 300.416,44.614 300.416,31.072 303.02,31.072 303.02,28.858 295.728,28.858 295.728,31.072 297.682,31.072 " id="polygon157" style="fill:#231f20"/>
		<polygon points="304.063,43.572 306.927,44.614 306.927,31.072 309.4,31.072 309.4,28.858 302.239,28.858 302.239,31.072 304.063,31.072 " id="polygon159" style="fill:#231f20"/>
		<g id="g161">
			<rect x="308.61801" y="28.858" width="8.4650002" height="2.214" id="rect163" style="fill:#231f20"/>
			<path d="M 312.851,29.965" id="path165" style="fill:#231f20"/>
		</g>
		<path d="m 319.557,37.192 v -2.474 h -8.203 c -1.563,0 -2.735,0.521 -2.344,2.214 0,0 0.521,0.911 1.172,1.692 0.781,0.781 1.563,1.563 1.563,1.563 2.083,0.651 2.604,-1.302 2.475,-2.995 h 5.337 z" id="path167" style="fill:#231f20"/>
		<polygon points="318.255,43.572 320.988,44.614 320.988,31.072 323.593,31.072 323.593,28.858 316.301,28.858 316.301,31.072 318.255,31.072 " id="polygon169" style="fill:#231f20"/>
		<g id="g171">
			<path d="M 149.892,39.405 V 35.89 l -3.125,-3.125 v 2.604 l 2.213,2.213 c -0.521,0.391 -1.041,0.651 -2.083,0.651 h -0.13 v 2.344 c 1.041,0.001 2.212,-0.65 3.125,-1.172 l 0,0 z" id="path173" style="fill:#231f20"/>
			<rect x="146.767" y="28.858" width="1.302" height="2.214" id="rect175" style="fill:#231f20"/>
			<path d="m 146.767,32.765 -1.692,-1.692 h 1.692 v -2.214 h -6.642 v 2.214 h 1.433 v 5.078 c 0,2.995 2.214,4.297 4.818,4.427 0.13,0 0.26,0 0.391,0 v -2.344 c -1.433,0 -2.345,-0.782 -2.345,-1.953 v -2.995 l 2.345,2.083 v -2.604 z" id="path177" style="fill:#231f20"/>
		</g>
		<g id="g179">
			<path d="m 299.765,39.405 -1.563,-1.823 c -1.172,1.172 -2.213,1.693 -4.036,1.823 -1.042,0.13 -1.824,-0.26 -2.474,-0.651 v 2.734 c 0.649,0.13 1.302,0.26 1.952,0.26 3.256,0.001 3.256,-0.389 6.121,-2.343 l 0,0 z" id="path181" style="fill:#231f20"/>
			<path d="m 291.692,36.411 c 1.952,-0.912 3.775,-2.474 3.775,-4.557 0,-2.083 -1.172,-3.516 -3.775,-3.646 v 2.213 c 0.521,0.13 1.171,0.651 1.171,1.172 0,0.651 -0.391,1.302 -1.042,1.823 0,0 0,0 -0.129,-0.13 v 3.125 z" id="path183" style="fill:#231f20"/>
			<path d="m 291.692,38.754 c -0.782,-0.521 -1.043,-1.302 -1.043,-1.823 0.261,-0.13 0.651,-0.261 1.043,-0.521 v -3.125 c -0.652,-0.391 -1.043,-0.912 -1.043,-1.693 0,-0.651 0.521,-1.172 1.043,-1.172 l 0,0 v -2.213 l 0,0 c -2.215,0 -3.776,1.172 -3.776,3.385 0,1.433 1.041,2.474 2.474,3.125 -0.781,0.261 -1.953,1.042 -2.735,1.042 0,2.344 1.303,4.948 4.038,5.729 v -2.734 z" id="path185" style="fill:#231f20"/>
		</g>
	</g>
</g>
</svg>