<?xml version="1.0" encoding="UTF-8" standalone="no"?>
<!DOCTYPE svg PUBLIC "-//W3C//DTD SVG 1.1//EN" "http://www.w3.org/Graphics/SVG/1.1/DTD/svg11.dtd">
<svg width="100%" height="100%" viewBox="0 0 2033 2033" version="1.1" xmlns="http://www.w3.org/2000/svg" xmlns:xlink="http://www.w3.org/1999/xlink" xml:space="preserve" xmlns:serif="http://www.serif.com/" style="fill-rule:evenodd;clip-rule:evenodd;stroke-linejoin:round;stroke-miterlimit:2;">
    <g transform="matrix(1,0,0,1,-1.089e+06,0)">
        <g id="Avarta-LogoMark--LQ" serif:id="Avarta LogoMark  LQ" transform="matrix(0.0894742,0,0,0.0894742,1.03356e+06,-30166)">
            <rect x="619702" y="337147" width="22719.3" height="22719.3" style="fill:white;"/>
            <g transform="matrix(0.347431,1.29663,1.29663,-0.347431,-40072.6,-348665)">
                <circle cx="631061" cy="348506" r="6464.45" style="fill:none;"/>
                <clipPath id="_clip1">
                    <circle cx="631061" cy="348506" r="6464.45"/>
                </clipPath>
                <g clip-path="url(#_clip1)">
                    <g transform="matrix(23.3427,0.0741752,-0.0741752,23.3427,623985,341382)">
                        <path d="M318.218,363.079C316.404,363.032 314.742,362.868 313.263,362.61C318.609,375.475 337.501,382.632 350.608,385.459C392.909,394.587 439.492,368.5 467.424,338.039C507.792,294.013 517.225,234.602 523.802,177.61C527.872,162.55 545.775,169.347 555.546,174.073C567.511,179.86 576.161,187.395 586.564,195.035C587.393,195.643 588.198,197.143 588.824,195.513C574.917,163.874 558.6,134.081 536.074,107.615C518.476,86.939 496.918,67.716 473.207,51.658C467.499,47.793 461.666,44.111 455.734,40.637C435.723,28.916 414.58,19.555 393.271,13.472C390.18,12.59 388.161,11.622 386.047,11.371C384.283,11.161 382.452,11.452 379.876,12.71C367.552,18.728 308.148,27.464 317.126,21.366C328.121,13.897 338.97,10.173 350.789,4.984C351.453,4.692 352.496,4.632 352.666,4.145C352.736,3.942 352.655,3.665 352.332,3.266C340.577,1.974 328.869,1.035 317.181,0.609C294.712,-0.21 272.322,0.871 249.835,4.999C233.477,8.003 216.847,12.565 200.495,18.524C199.286,19.374 198.198,20.616 197.08,22.67C188.116,39.118 196.674,47.124 212.336,51.299C229.234,55.803 248.717,56.728 266.046,60.574C303.643,68.923 340.672,89.272 369.582,114.438C420.123,158.435 450.32,261.467 405.283,318.278C375.954,356.576 342.604,365.985 318.218,363.079ZM542.021,457.661C542.95,470.92 540.714,482.171 539.258,494.996C539.143,496.017 538.242,497.462 539.967,497.194C560.502,469.396 578.238,440.425 589.999,407.721C608.859,355.276 614.113,291.393 600.67,237.012C599.254,231.285 599.884,228.548 594.67,225.011C579.169,214.494 570.37,222.234 564.695,237.417C558.573,253.799 555.762,273.1 550.252,289.974C538.295,326.584 514.449,361.463 486.596,387.795C435.527,436.075 327.841,450.503 273.01,395.672C222.865,345.528 236.636,297.419 248.981,282.762C235.171,280.915 219.487,293.648 210.453,303.556C181.297,335.534 180.427,388.917 192.716,428.377C210.478,485.406 257.093,523.429 303.052,557.767C314.024,568.857 299.148,580.915 290.15,586.985C279.132,594.419 268.27,598.108 256.435,603.26C255.494,603.671 253.792,603.613 254.886,604.973C289.228,608.858 323.185,609.732 357.388,603.566C412.237,593.676 470.188,566.285 510.562,527.452C514.814,523.363 517.499,522.54 517.955,516.256C518.949,502.578 541.263,446.834 542.021,457.661ZM361.772,289.494C373.835,282.801 379.134,263.583 380.729,250.403C385.929,207.442 355.671,163.454 322.771,138.441C275.221,102.291 215.194,98.36 157.839,97.05C142.468,94.381 147.591,75.929 151.399,65.765C156.061,53.318 162.769,44.013 169.421,32.951C169.949,32.07 171.369,31.13 169.689,30.657C147.031,43.218 125.531,57.031 105.956,73.634C100.809,77.999 95.796,82.557 90.929,87.336C89.613,88.629 88.307,89.938 87.012,91.264C78.264,100.22 69.902,109.987 62.075,120.372C52.928,132.508 44.513,145.49 37.071,159.009C35.269,162.284 33.523,165.59 31.838,168.923C30.416,171.737 29.037,174.57 27.703,177.42C17.871,198.424 10.494,220.339 6.395,242.116C5.801,245.275 5.022,247.375 4.967,249.502C4.966,249.54 4.965,249.578 4.965,249.616C4.941,251.356 5.41,253.128 6.868,255.525C13.993,267.243 28.153,325.593 21.255,317.213C12.807,306.952 8.102,296.49 1.848,285.199C1.496,284.565 1.341,283.531 0.84,283.407C0.741,283.382 0.628,283.394 0.497,283.451C0.354,283.514 0.188,283.632 -0.004,283.82C-0.069,287.541 -0.1,291.255 -0.091,294.962C-0.071,303.031 0.135,311.065 0.581,319.066C0.742,321.956 0.934,324.842 1.16,327.723C1.665,329.074 2.566,330.42 4.195,331.999C17.646,345.035 27.65,338.931 35.862,324.957C44.722,309.879 50.825,291.353 59.167,275.685C77.268,241.69 106.78,211.455 138.763,190.33C197.404,151.597 312.63,151.798 350.499,219.465C350.866,220.121 351.226,220.785 351.579,221.455C366.134,243.013 365.908,268.62 365.555,270.957C364.075,280.736 363.438,285.294 361.772,289.494ZM7.184,373.013C16.644,406.253 28.743,437.995 47.447,467.287C77.442,514.26 124.805,557.45 176.068,580.034C181.467,582.412 183.249,584.583 189.235,582.616C207.031,576.771 206.28,565.076 197.728,551.307C188.499,536.451 184.85,532.185 174.858,517.513C153.181,485.68 140.139,445.492 136.311,407.354C129.292,337.427 173.143,225.761 250.659,223.705C269.838,223.196 291.117,228.98 302.968,245.079C299.427,231.604 281.689,221.937 269.09,217.347C228.43,202.533 178.723,222.019 146.896,248.385C100.898,286.491 83.447,344.059 69.156,399.621C63.068,413.984 46.26,404.808 37.226,398.793C26.162,391.427 18.621,382.783 9.358,373.794C8.62,373.08 8.026,371.483 7.184,373.013Z" style="fill:url(#_Radial2);"/>
                    </g>
                </g>
            </g>
        </g>
        <g id="Isolation-Mode" serif:id="Isolation Mode">
        </g>
    </g>
    <defs>
        <radialGradient id="_Radial2" cx="0" cy="0" r="1" gradientUnits="userSpaceOnUse" gradientTransform="matrix(304.133,0,0,303.843,304.041,304.198)"><stop offset="0" style="stop-color:rgb(85,37,232);stop-opacity:1"/><stop offset="0.38" style="stop-color:rgb(85,37,232);stop-opacity:1"/><stop offset="0.91" style="stop-color:rgb(13,21,96);stop-opacity:1"/><stop offset="1" style="stop-color:rgb(13,21,96);stop-opacity:1"/></radialGradient>
    </defs>
</svg>
