<svg xmlns="http://www.w3.org/2000/svg" xml:space="preserve" style="fill-rule:evenodd;clip-rule:evenodd;stroke-linejoin:round;stroke-miterlimit:2" viewBox="0 0 2163 1001"><path d="M.237.203h2161.861v1000H.237z" style="fill:none"/><path d="M742.881 179.169 629.02 536.28 515.159 179.169H422l155.265 439.919h100.06l154.403-439.919h-88.846Zm763.234 0h-194.649l-48.6 48.6v391.319h85.396v-360.68c47.313 0 39.679.119 112.999.119h44.854zm230.6 79.239v-79.239h-96.61V61.857h-86.259v117.312l76.858 79.239h-76.858v248.544c0 75.908 23.29 112.136 104.373 112.136h78.495v-65.557h-52.618c-37.091 0-43.992-12.076-43.992-52.618V258.408zm172.886 371.031c82.808 0 128.525-40.542 144.052-88.846v78.495h81.946V227.993l-48.819-48.759c-81.627.107-241.104.309-284.022.309v46.912l31.954 31.954h214.011v30.309c0 36.229-46.824 44.854-115.831 63.831-107.823 28.465-175.968 53.48-175.968 142.327 0 86.259 67.282 134.563 152.678 134.563Zm24.152-62.106c-50.03 0-87.121-26.74-87.121-75.045 0-52.618 44.854-72.457 112.999-91.434 50.893-14.664 81.946-28.465 92.297-53.48v81.946c0 73.32-43.129 138.014-118.174 138.014Zm-950.135 62.106c82.808 0 128.525-40.542 144.052-88.846v78.495h81.946V227.993l-48.819-48.759c-81.627.107-241.104.309-284.022.309v46.912l31.954 31.954h214.011v30.309c0 36.229-46.824 44.854-115.831 63.831-107.823 28.465-175.968 53.48-175.968 142.327 0 86.259 67.282 134.563 152.678 134.563Zm24.152-62.106c-50.03 0-87.121-26.74-87.121-75.045 0-52.618 44.854-72.457 112.999-91.434 50.893-14.664 81.946-28.465 92.297-53.48v81.946c0 73.32-43.129 138.014-118.174 138.014Zm-828.355 62.106c82.808 0 128.525-40.542 144.052-88.846v78.495h81.946V227.993l-48.819-48.759c-81.627.107-241.104.309-284.022.309v46.912l31.954 31.954h214.011v30.309c0 36.229-46.824 44.854-115.831 63.831-107.823 28.465-175.968 53.48-175.968 142.327 0 86.259 67.282 134.563 152.678 134.563Zm24.152-62.106c-50.03 0-87.121-26.74-87.121-75.045 0-52.618 44.854-72.457 112.999-91.434 50.893-14.664 81.946-28.465 92.297-53.48v81.946c0 73.32-43.129 138.014-118.174 138.014Z"/><path d="M35.136 734.834H47.15V885.27H35.136zm82.217 150.436h12.014V746.535h53.906v-11.701H63.447v11.701h53.906zm197.657-92.873c-5.537-14.521-20.267-23.088-40.952-23.088-24.446 0-40.43 11.387-45.549 31.863l12.327 3.447c4.388-16.088 15.566-23.715 32.803-23.715 23.61 0 32.386 11.178 32.386 34.057-13.268 1.672-35.624 4.074-52.13 7.731-16.402 3.865-29.669 13.372-29.669 32.49 0 17.76 12.85 33.221 38.863 33.221 19.536 0 35.311-8.044 43.982-22.774v19.64h10.969v-70.308c0-8.044-.731-16.506-3.03-22.565Zm-51.294 84.934c-20.267 0-27.162-11.701-27.162-22.043 0-13.79 11.492-19.745 21.416-22.356 13.999-3.552 34.266-5.432 48.056-6.895 0 5.015-.209 12.327-1.254 17.969-2.925 20.163-18.073 33.326-41.056 33.326Zm128.288-107.5c-16.088 0-29.983 6.268-38.34 19.536v-16.924h-10.969V885.27h12.118v-60.906c0-24.864 11.074-42.937 35.624-42.937 23.61 0 34.893 16.611 34.893 45.131v58.712h12.118v-61.741c0-29.46-14.312-53.697-45.444-53.697Zm150.54-34.997v54.742c-8.149-12.641-21.103-20.267-38.549-20.267-30.714 0-48.474 25.908-48.474 59.339 0 33.848 17.76 59.757 49.623 59.757 17.446 0 30.505-8.566 38.445-22.252v19.118h10.969V734.835zm-36.669 142.078c-24.864 0-37.505-20.894-37.505-48.265 0-27.162 12.014-47.847 37.713-47.847 24.864 0 37.505 19.954 37.505 47.847 0 27.684-12.432 48.265-37.713 48.265m114.708 8.358H665.4c3.239 0 12.641 0 19.745-1.045 33.744-4.701 50.354-35.624 50.354-74.173 0-38.445-16.611-69.472-50.354-74.173-7.208-1.045-16.402-1.045-19.745-1.045h-44.817zm12.641-11.805V746.639h32.177c5.85 0 13.581.313 18.282 1.149 27.893 4.806 38.967 29.983 38.967 62.264 0 32.177-10.969 57.354-38.967 62.264-4.701.836-12.014 1.149-18.282 1.149zm129.75-41.161h91.202c.522-39.594-18.7-62.995-51.608-62.995-32.386 0-52.548 22.774-52.548 59.757 0 36.355 20.372 59.339 52.757 59.339 21.939 0 39.907-11.074 48.996-30.505l-10.865-4.806c-7.626 15.253-20.998 23.61-38.34 23.61-24.341 0-38.549-16.193-39.594-44.4m39.803-51.608c22.774 0 36.042 14.208 38.445 40.743h-78.039c2.194-26.013 16.193-40.743 39.594-40.743M916.44 888.195c27.162 0 43.668-12.536 43.668-33.535 0-17.342-9.611-25.177-42.101-33.43-26.64-6.686-33.744-11.283-33.744-21.207 0-11.701 12.118-19.64 29.565-19.327 18.491.104 31.55 9.193 33.953 23.61l12.327-2.298c-1.985-19.431-20.789-32.699-45.862-32.699-25.177 0-42.31 12.745-42.31 31.341 0 15.461 9.089 22.461 40.534 30.923 29.669 8.044 34.997 11.596 34.997 22.983 0 13.79-11.805 22.252-30.505 22.252-18.804 0-32.594-8.462-36.146-21.939l-12.327 2.089c3.97 19.64 21.939 31.236 47.951 31.236Zm66.443-138.526h12.014v-15.357h-12.014zm0 135.601h12.014V772.443h-12.014zm122.647-112.827v18.804c-8.044-13.581-21.416-21.939-39.594-21.939-30.714 0-48.474 25.908-48.474 59.339 0 33.848 17.76 59.757 49.623 59.757 16.611 0 29.147-7.731 37.191-20.163V881.3c.104 29.878-9.193 45.235-36.564 45.235-13.059 0-26.744-5.432-33.639-19.431l-10.865 6.477c10.029 18.282 27.684 24.968 44.4 24.968 28.416 0 44.086-12.223 47.743-38.445.94-6.059 1.149-12.118 1.149-18.804V772.443zm-37.713 104.469c-24.864 0-37.505-20.894-37.505-48.265 0-27.162 12.014-47.847 37.713-47.847 24.864 0 37.505 19.954 37.505 47.847 0 27.684-12.432 48.265-37.713 48.265m124.736-107.081c-16.088 0-29.983 6.268-38.34 19.536v-16.924h-10.969V885.27h12.118v-60.906c0-24.864 11.074-42.937 35.624-42.937 23.61 0 34.893 16.611 34.893 45.131v58.712h12.118v-61.741c0-29.46-14.312-53.697-45.444-53.697Zm151.062 118.364c27.162 0 43.668-12.536 43.668-33.535 0-17.342-9.611-25.177-42.101-33.43-26.64-6.686-33.744-11.283-33.744-21.207 0-11.701 12.118-19.64 29.565-19.327 18.491.104 31.55 9.193 33.953 23.61l12.327-2.298c-1.985-19.431-20.789-32.699-45.862-32.699-25.177 0-42.31 12.745-42.31 31.341 0 15.461 9.089 22.461 40.534 30.923 29.669 8.044 34.997 11.596 34.997 22.983 0 13.79-11.805 22.252-30.505 22.252-18.804 0-32.594-8.462-36.146-21.939l-12.327 2.089c3.97 19.64 21.939 31.236 47.951 31.236Zm110.634.209c33.326 0 52.548-24.132 52.548-59.757 0-34.893-18.909-59.339-52.548-59.339-32.908 0-52.548 23.924-52.548 59.339 0 35.102 19.013 59.757 52.548 59.757m0-11.701c-26.117 0-39.698-19.013-39.698-48.056 0-27.998 12.745-47.638 39.698-47.638 26.431 0 39.698 18.7 39.698 47.638 0 28.52-13.059 48.056-39.698 48.056m75.113-145.003h12.014v153.57h-12.014zm121.394 40.743v60.906c0 24.864-11.074 42.937-35.624 42.937-23.61 0-34.893-16.611-34.893-45.131v-58.712h-12.118v61.741c0 29.46 14.312 53.697 45.444 53.697 16.088 0 29.983-6.268 38.34-19.536v16.924h10.969V772.442zm63.726 10.969h34.997v-10.969h-34.997v-31.341h-12.118v31.341h-25.282v10.969h25.282v62.682c0 10.447-.313 18.073 3.447 25.908 6.895 14.521 25.699 17.133 43.668 13.268v-10.865c-16.82 2.716-27.684 1.358-32.699-8.253-2.716-5.119-2.298-10.656-2.298-20.267zm56.204-33.743h12.014v-15.357h-12.014zm0 135.601h12.014V772.443h-12.014zm87.128 3.134c33.326 0 52.548-24.132 52.548-59.757 0-34.893-18.909-59.339-52.548-59.339-32.908 0-52.548 23.924-52.548 59.339 0 35.102 19.013 59.757 52.548 59.757m0-11.701c-26.117 0-39.698-19.013-39.698-48.056 0-27.998 12.745-47.638 39.698-47.638 26.431 0 39.698 18.7 39.698 47.638 0 28.52-13.059 48.056-39.698 48.056m122.334-106.872c-16.088 0-29.983 6.268-38.34 19.536v-16.924h-10.969V885.27h12.118v-60.906c0-24.864 11.074-42.937 35.624-42.937 23.61 0 34.893 16.611 34.893 45.131v58.712h12.118v-61.741c0-29.46-14.312-53.697-45.444-53.697Zm111.782 118.364c27.162 0 43.668-12.536 43.668-33.535 0-17.342-9.611-25.177-42.101-33.43-26.64-6.686-33.744-11.283-33.744-21.207 0-11.701 12.118-19.64 29.565-19.327 18.491.104 31.55 9.193 33.953 23.61l12.327-2.298c-1.985-19.431-20.789-32.699-45.862-32.699-25.177 0-42.31 12.745-42.31 31.341 0 15.461 9.089 22.461 40.534 30.923 29.669 8.044 34.997 11.596 34.997 22.983 0 13.79-11.805 22.252-30.505 22.252-18.804 0-32.594-8.462-36.146-21.939l-12.327 2.089c3.97 19.64 21.939 31.236 47.951 31.236Z" style="fill-rule:nonzero"/></svg>