<?xml version="1.0" encoding="UTF-8" standalone="no"?><!DOCTYPE svg PUBLIC "-//W3C//DTD SVG 1.1//EN" "http://www.w3.org/Graphics/SVG/1.1/DTD/svg11.dtd"><svg width="100%" height="100%" viewBox="0 0 1201 1201" version="1.1" xmlns="http://www.w3.org/2000/svg" xmlns:xlink="http://www.w3.org/1999/xlink" xml:space="preserve" xmlns:serif="http://www.serif.com/" style="fill-rule:evenodd;clip-rule:evenodd;stroke-linejoin:round;stroke-miterlimit:2;"><rect id="Avarta-LogoMark-TINY" serif:id="Avarta LogoMark TINY" x="0.096" y="0.077" width="1200" height="1200" style="fill:none;"/><g><path d="M252.429,693.234c51.415,191.883 248.941,305.925 440.824,254.51c191.882,-51.415 305.924,-248.941 254.509,-440.824c-51.414,-191.882 -248.941,-305.924 -440.823,-254.509c-191.883,51.414 -305.925,248.941 -254.51,440.823Z" style="fill:none;"/><clipPath id="_clip1"><path d="M252.429,693.234c51.415,191.883 248.941,305.925 440.824,254.51c191.882,-51.415 305.924,-248.941 254.509,-440.824c-51.414,-191.882 -248.941,-305.924 -440.823,-254.509c-191.883,51.414 -305.925,248.941 -254.51,440.823Z"/></clipPath><g clip-path="url(#_clip1)"><path d="M678.764,597.76c-0.678,-2.26 -1.448,-4.288 -2.276,-6.056c17.958,2.327 33.364,23.588 41.372,39.066c25.847,49.953 8.982,117.263 -19.72,162.667c-41.483,65.62 -112.794,97.674 -182.042,125.322c-17.505,10.232 -2.885,30.375 6.369,41.022c11.331,13.039 23.726,21.324 36.851,31.772c1.044,0.833 3.2,1.333 1.368,2.672c-44.419,-6.675 -87.344,-17 -128.208,-36.248c-31.924,-15.036 -63.374,-35.534 -91.587,-59.81c-6.791,-5.844 -13.394,-11.907 -19.771,-18.165c-21.513,-21.111 -40.452,-44.446 -55.334,-69.103c-2.16,-3.578 -4.061,-5.781 -5.095,-8.346c-0.863,-2.143 -1.122,-4.538 -0.421,-8.198c3.354,-17.505 -5.907,-94.992 -10.501,-81.655c-5.626,16.333 -6.604,31.21 -9.09,47.8c-0.141,0.933 0.139,2.262 -0.414,2.64c-0.23,0.158 -0.605,0.151 -1.216,-0.119c-5.621,-14.304 -10.785,-28.671 -15.297,-43.186c-8.675,-27.906 -14.94,-56.358 -17.416,-85.969c-1.801,-21.541 -1.738,-43.953 0.171,-66.492c0.654,-1.807 1.842,-3.593 4.037,-5.696c17.581,-16.841 30.536,-8.833 41.104,9.391c11.401,19.664 19.192,43.787 29.916,64.214c23.268,44.318 61.396,83.838 102.804,111.535c72.389,48.421 211.904,51.228 267.835,-24.6c38.055,-49.825 38.506,-94.86 26.561,-124.458Zm194.813,248.53c16.948,-3.348 30.299,-9.982 45.89,-16.174c1.242,-0.492 2.748,-2.114 2.999,0.141c-27.879,35.22 -58.181,67.328 -95.2,93.211c-59.364,41.508 -137.706,69.842 -210.494,71.49c-7.665,0.173 -10.884,1.895 -17.095,-3.441c-18.468,-15.864 -11.754,-29.535 5.358,-41.821c18.465,-13.255 41.718,-23.351 61.008,-36.006c41.852,-27.459 77.485,-69.242 101.034,-113.141c43.177,-80.491 24.621,-220.476 -62.819,-270.589c-79.965,-45.83 -135.623,-12.183 -149.806,8.291c-7.017,-16.693 3.616,-40.7 12.97,-55.404c30.186,-47.456 96.85,-66.718 150.529,-64.734c77.579,2.869 141.139,48.397 199.853,94.357c17.645,9.988 27.708,-12.777 32.259,-26.128c5.574,-16.351 6.505,-31.231 8.938,-47.829c0.195,-1.321 -0.457,-3.436 1.622,-2.526c16.561,41.753 29.216,84.049 33.123,129.05c6.265,72.165 -8.368,154.179 -43.335,218.038c-3.683,6.725 -3.801,10.374 -11.528,13.085c-16.818,5.902 -79.144,52.864 -65.306,50.13Zm-272.289,-168.853c-4.29,17.41 -26.591,30.598 -42.581,37.085c-52.117,21.145 -117.592,-1.836 -160.165,-34.591c-61.529,-47.339 -86.892,-121.294 -108.057,-192.791c-8.579,-18.371 -29.981,-5.665 -41.433,2.571c-14.026,10.085 -23.415,21.666 -35.026,33.774c-0.925,0.963 -1.621,3.064 -2.786,1.117c8.043,-32.695 18.051,-64.366 32.214,-94.57c3.723,-7.942 7.734,-15.782 12.072,-23.512c1.173,-2.092 2.371,-4.176 3.593,-6.251c8.258,-14.021 17.662,-27.834 28.024,-41.186c12.11,-15.605 25.529,-30.578 39.953,-44.515c3.494,-3.376 7.047,-6.69 10.655,-9.939c3.045,-2.741 6.13,-5.436 9.251,-8.079c22.999,-19.481 47.976,-36.194 73.897,-48.748c3.76,-1.821 6.129,-3.511 8.779,-4.305c0.047,-0.014 0.094,-0.028 0.142,-0.042c2.174,-0.622 4.556,-0.636 8.059,0.377c17.123,4.948 95.133,2.849 82.275,-2.951c-15.747,-7.104 -30.471,-9.445 -46.762,-13.446c-0.916,-0.226 -2.265,-0.069 -2.591,-0.655c-0.065,-0.116 -0.089,-0.261 -0.062,-0.444c0.03,-0.202 0.122,-0.45 0.292,-0.755c4.646,-1.348 9.294,-2.651 13.946,-3.901c10.129,-2.722 20.276,-5.198 30.464,-7.362c3.68,-0.782 7.365,-1.523 11.056,-2.22c1.866,0.173 3.861,0.845 6.396,2.351c20.931,12.435 16.679,27.061 1.946,42.118c-15.898,16.246 -37.057,30.206 -53.872,46.003c-36.479,34.275 -64.359,81.585 -79.971,128.893c-28.624,86.739 10.848,231.203 108.615,255.67c0.948,0.238 1.903,0.464 2.864,0.678c31.994,10.918 64.038,1.92 66.849,0.681c11.762,-5.184 17.262,-7.535 21.964,-11.055Zm-15.932,-473.198c44.914,0.551 88.847,4.923 131.955,18.414c69.13,21.635 139.426,66.343 185.202,122.958c4.821,5.963 8.15,7.459 7.721,15.636c-1.275,24.313 -16.2,27.351 -36.382,21.31c-21.775,-6.519 -28.369,-9.644 -50.173,-17.184c-47.308,-16.354 -102.156,-19.035 -151.297,-10.855c-90.1,14.997 -215.241,108.009 -191.436,205.94c5.89,24.23 20.387,48.952 44.615,58.337c-18.108,0.145 -36.271,-18.814 -46.316,-33.055c-32.421,-45.959 -24.898,-114.94 -2.66,-163.836c32.141,-70.667 98.411,-112.151 163.239,-148.989c15.945,-12.525 -1.286,-30.485 -11.906,-39.769c-13.005,-11.371 -26.414,-17.887 -40.842,-26.447c-1.148,-0.683 -3.352,-0.884 -1.72,-2.46Z" style="fill:url(#_Radial2);"/></g></g><defs><radialGradient id="_Radial2" cx="0" cy="0" r="1" gradientUnits="userSpaceOnUse" gradientTransform="matrix(103.519,381.485,381.121,-103.42,600.081,600.019)"><stop offset="0" style="stop-color:#5525e8;stop-opacity:1"/><stop offset="0.38" style="stop-color:#5525e8;stop-opacity:1"/><stop offset="0.91" style="stop-color:#0d1560;stop-opacity:1"/><stop offset="1" style="stop-color:#0d1560;stop-opacity:1"/></radialGradient></defs></svg>