<svg xmlns="http://www.w3.org/2000/svg" xml:space="preserve" style="fill-rule:evenodd;clip-rule:evenodd;stroke-linejoin:round;stroke-miterlimit:2" viewBox="0 0 2284 3020"><path d="M.954.203h2282.22v3019H.954z" style="fill:none"/><path d="M990.997 88.684c-5.497 10.107-13.682 20.382-23.814 30.738-40.452 41.337-94.293 76.859-137.078 117.054-92.822 87.215-163.765 207.597-203.489 327.972-72.835 220.71 27.602 588.304 276.373 650.563a283 283 0 0 0 7.287 1.723c81.411 27.783 162.948 4.885 170.1 1.733 29.928-13.191 43.924-19.173 55.888-28.128-10.917 44.299-67.662 77.856-108.348 94.363-132.614 53.805-299.216-4.672-407.546-88.016-156.562-120.457-221.098-308.638-274.954-490.564-16.058-34.387-49.773-25.983-78.078-10.793C363.371 417.483 591.117 190.59 896.19 108.845a925 925 0 0 1 94.807-20.161M223.266 888.436c8.298 8.009 16.036 18.672 23.327 31.246 29.01 50.035 48.836 111.417 76.122 163.394 59.208 112.769 156.226 213.328 261.589 283.804 184.197 123.207 539.197 130.35 681.515-62.597 96.834-126.779 97.98-241.372 67.585-316.686-1.724-5.75-3.683-10.912-5.791-15.409 45.694 5.921 84.896 60.02 105.274 99.404 65.768 127.106 22.854 298.379-50.179 413.912-105.555 166.972-287.007 248.534-463.212 318.885-32.817 19.182-21.261 52.055-3.486 78.867-314.114-77.094-577.875-318.503-667.428-652.722-30.791-114.915-38.261-230.626-25.316-342.098m893.679 1020.947c7.168-9.045 17.037-17.79 28.855-26.275 46.984-33.728 106.152-59.416 155.237-91.617 106.492-69.871 197.162-176.188 257.083-287.892 109.865-204.811 62.649-561.008-159.844-688.523-203.475-116.616-345.097-30.998-381.187 21.098-17.854-42.476 9.201-103.562 33.002-140.978 76.81-120.754 246.439-169.766 383.026-164.717 197.404 7.299 359.133 123.148 508.534 240.096 33.063 18.715 55.664-7.765 69.906-36.593a931 931 0 0 1 6.323 22.47c130.826 488.251-159.357 990.864-647.608 1121.69-84.682 22.69-169.796 32.716-253.327 31.241M1868.21 446.795c-11.532-.152-24.473-2.622-38.397-6.789-55.407-16.588-72.185-24.541-127.666-43.725-120.377-41.615-259.941-48.436-384.981-27.623-229.263 38.162-547.688 274.834-487.114 524.021 14.986 61.655 51.876 124.56 113.523 148.442-46.075.369-92.292-47.874-117.853-84.11-82.496-116.943-63.354-292.47-6.768-416.887 81.784-179.814 250.41-285.371 415.368-379.107 29.949-23.524 13.9-54.584-7.427-78.739 254.812 26.341 488.477 159.333 641.315 364.518Z" style="fill:url(#a)"/><path d="m794.933 2177.721-113.865 357.123-113.865-357.123h-93.162l155.271 439.934h100.063l154.408-439.934z" style="fill:url(#b)"/><path d="M1558.193 2177.721h-194.656l-48.602 48.602v391.332h85.399v-360.692c47.315 0 39.68.119 113.003.119h44.856z" style="fill:url(#c)"/><path d="M1788.802 2256.963v-79.242h-96.613v-117.316h-86.262v117.316l76.86 79.242h-76.86v248.552c0 75.91 23.291 112.14 104.377 112.14h78.498v-65.559h-52.62c-37.092 0-43.993-12.077-43.993-52.62v-242.514h96.613Z" style="fill:url(#d)"/><path d="M1961.693 2628.007c82.811 0 128.53-40.543 144.057-88.849v78.498h81.948v-391.108l-48.821-48.761c-81.63.107-241.112.309-284.032.309v46.913l31.955 31.955h214.018v30.31c0 36.23-46.826 44.856-115.835 63.834-107.827 28.466-175.974 53.482-175.974 142.332 0 86.262 67.284 134.568 152.683 134.568Zm24.153-62.108c-50.032 0-87.124-26.741-87.124-75.048 0-52.62 44.856-72.46 113.003-91.437 50.894-14.664 81.948-28.466 92.3-53.482v81.948c0 73.322-43.131 138.019-118.178 138.019Z" style="fill:url(#e)"/><path d="M1035.678 2628.007c82.811 0 128.53-40.543 144.057-88.849v78.498h81.948v-391.108l-48.821-48.761c-81.63.107-241.112.309-284.032.309v46.913l31.955 31.955h214.018v30.31c0 36.23-46.826 44.856-115.835 63.834-107.827 28.466-175.974 53.482-175.974 142.332 0 86.262 67.284 134.568 152.683 134.568Zm24.153-62.108c-50.032 0-87.124-26.741-87.124-75.048 0-52.62 44.856-72.46 113.003-91.437 50.894-14.664 81.948-28.466 92.3-53.482v81.948c0 73.322-43.131 138.019-118.178 138.019Z" style="fill:url(#f)"/><path d="M231.448 2628.007c82.811 0 128.53-40.543 144.057-88.849v78.498h81.948v-391.108l-48.821-48.761c-81.63.107-241.112.309-284.032.309v46.913l31.955 31.955h214.018v30.31c0 36.23-46.826 44.856-115.835 63.834-107.827 28.466-175.974 53.482-175.974 142.332 0 86.262 67.284 134.568 152.683 134.568Zm24.153-62.108c-50.032 0-87.124-26.741-87.124-75.048 0-52.62 44.856-72.46 113.003-91.437 50.894-14.664 81.948-28.466 92.3-53.482v81.948c0 73.322-43.131 138.019-118.178 138.019Z" style="fill:url(#g)"/><path d="M87.164 2733.406h12.014v150.441H87.164z" style="fill:url(#h);fill-rule:nonzero"/><path d="M169.384 2883.847h12.014v-138.74h53.908v-11.701H115.475v11.701h53.908v138.74Z" style="fill:url(#i);fill-rule:nonzero"/><path d="M367.047 2790.97c-5.537-14.522-20.268-23.089-40.953-23.089-24.447 0-40.431 11.388-45.55 31.864l12.328 3.448c4.388-16.089 15.566-23.715 32.805-23.715 23.611 0 32.387 11.179 32.387 34.058-13.268 1.672-35.625 4.074-52.132 7.731-16.402 3.866-29.67 13.373-29.67 32.491 0 17.76 12.85 33.222 38.864 33.222 19.536 0 35.312-8.044 43.983-22.775v19.641h10.97v-70.31c0-8.044-.731-16.507-3.03-22.566Zm-51.296 84.937c-20.268 0-27.163-11.701-27.163-22.044 0-13.79 11.492-19.745 21.417-22.357 13.999-3.552 34.267-5.433 48.058-6.895 0 5.015-.209 12.328-1.254 17.969-2.925 20.163-18.074 33.327-41.058 33.327" style="fill:url(#j);fill-rule:nonzero"/><path d="M444.044 2768.404c-16.089 0-29.984 6.268-38.342 19.536v-16.925h-10.97v112.831h12.119v-60.908c0-24.865 11.074-42.938 35.625-42.938 23.611 0 34.894 16.611 34.894 45.132v58.714h12.119v-61.744c0-29.461-14.313-53.699-45.446-53.699Z" style="fill:url(#k);fill-rule:nonzero"/><path d="M594.589 2733.406v54.744c-8.149-12.641-21.104-20.268-38.551-20.268-30.715 0-48.475 25.909-48.475 59.341 0 33.849 17.76 59.759 49.625 59.759 17.447 0 30.506-8.567 38.446-22.253v19.119h10.97v-150.441H594.59Zm-36.67 142.083c-24.865 0-37.506-20.895-37.506-48.267 0-27.163 12.014-47.849 37.715-47.849 24.865 0 37.506 19.954 37.506 47.849 0 27.685-12.432 48.267-37.715 48.267" style="fill:url(#l);fill-rule:nonzero"/><path d="M672.63 2883.847h44.819c3.239 0 12.641 0 19.745-1.045 33.745-4.701 50.356-35.625 50.356-74.176 0-38.446-16.611-69.475-50.356-74.176-7.209-1.045-16.402-1.045-19.745-1.045H672.63v150.441Zm12.641-11.805v-126.83h32.178c5.85 0 13.581.313 18.283 1.149 27.894 4.806 38.968 29.984 38.968 62.266 0 32.178-10.97 57.356-38.968 62.266-4.701.836-12.014 1.149-18.283 1.149z" style="fill:url(#m);fill-rule:nonzero"/><path d="M815.027 2830.879h91.205c.522-39.595-18.701-62.997-51.61-62.997-32.387 0-52.55 22.775-52.55 59.759 0 36.357 20.372 59.341 52.759 59.341 21.939 0 39.909-11.074 48.998-30.506l-10.865-4.806c-7.627 15.253-20.999 23.611-38.342 23.611-24.342 0-38.551-16.193-39.595-44.401Zm39.804-51.61c22.775 0 36.043 14.208 38.446 40.744h-78.041c2.194-26.014 16.193-40.744 39.595-40.744" style="fill:url(#n);fill-rule:nonzero"/><path d="M968.498 2886.772c27.163 0 43.67-12.537 43.67-33.536 0-17.343-9.612-25.178-42.103-33.431-26.641-6.686-33.745-11.283-33.745-21.208 0-11.701 12.119-19.641 29.566-19.328 18.492.104 31.551 9.194 33.954 23.611l12.328-2.298c-1.985-19.432-20.79-32.7-45.864-32.7-25.178 0-42.312 12.746-42.312 31.342 0 15.462 9.089 22.462 40.536 30.924 29.67 8.044 34.998 11.597 34.998 22.984 0 13.79-11.805 22.253-30.506 22.253-18.805 0-32.596-8.462-36.148-21.939l-12.328 2.089c3.97 19.641 21.939 31.237 47.953 31.237Z" style="fill:url(#o);fill-rule:nonzero"/><path d="M1034.943 2748.241h12.014v-15.358h-12.014zm0 135.606h12.014v-112.831h-12.014z" style="fill:url(#p);fill-rule:nonzero"/><path d="M1157.594 2771.016v18.805c-8.044-13.581-21.417-21.939-39.595-21.939-30.715 0-48.475 25.909-48.475 59.341 0 33.849 17.76 59.759 49.625 59.759 16.611 0 29.148-7.731 37.192-20.163v13.059c.104 29.879-9.194 45.237-36.566 45.237-13.059 0-26.745-5.433-33.64-19.432l-10.865 6.477c10.029 18.283 27.685 24.969 44.401 24.969 28.417 0 44.088-12.223 47.744-38.446.94-6.059 1.149-12.119 1.149-18.805v-108.861h-10.97Zm-37.715 104.473c-24.865 0-37.506-20.895-37.506-48.267 0-27.163 12.014-47.849 37.715-47.849 24.865 0 37.506 19.954 37.506 47.849 0 27.685-12.432 48.267-37.715 48.267" style="fill:url(#q);fill-rule:nonzero"/><path d="M1244.62 2768.404c-16.089 0-29.984 6.268-38.342 19.536v-16.925h-10.97v112.831h12.119v-60.908c0-24.865 11.074-42.938 35.625-42.938 23.611 0 34.894 16.611 34.894 45.132v58.714h12.119v-61.744c0-29.461-14.313-53.699-45.446-53.699Z" style="fill:url(#r);fill-rule:nonzero"/><path d="M1395.688 2886.772c27.163 0 43.67-12.537 43.67-33.536 0-17.343-9.612-25.178-42.103-33.431-26.641-6.686-33.745-11.283-33.745-21.208 0-11.701 12.119-19.641 29.566-19.328 18.492.104 31.551 9.194 33.954 23.611l12.328-2.298c-1.985-19.432-20.79-32.7-45.864-32.7-25.178 0-42.312 12.746-42.312 31.342 0 15.462 9.089 22.462 40.536 30.924 29.67 8.044 34.998 11.597 34.998 22.984 0 13.79-11.805 22.253-30.506 22.253-18.805 0-32.596-8.462-36.148-21.939l-12.328 2.089c3.97 19.641 21.939 31.237 47.953 31.237Z" style="fill:url(#s);fill-rule:nonzero"/><path d="M1506.325 2886.981c33.327 0 52.55-24.133 52.55-59.759 0-34.894-18.91-59.341-52.55-59.341-32.909 0-52.55 23.924-52.55 59.341 0 35.103 19.014 59.759 52.55 59.759m0-11.701c-26.118 0-39.7-19.014-39.7-48.058 0-27.999 12.746-47.64 39.7-47.64 26.432 0 39.7 18.701 39.7 47.64 0 28.521-13.059 48.058-39.7 48.058" style="fill:url(#t);fill-rule:nonzero"/><path d="M1581.441 2730.271h12.014v153.575h-12.014z" style="fill:url(#u);fill-rule:nonzero"/><path d="M1702.839 2771.016v60.908c0 24.865-11.074 42.938-35.625 42.938-23.611 0-34.894-16.611-34.894-45.132v-58.714h-12.119v61.744c0 29.461 14.313 53.699 45.446 53.699 16.089 0 29.984-6.268 38.342-19.536v16.925h10.97v-112.831h-12.119Z" style="fill:url(#v);fill-rule:nonzero"/><path d="M1766.567 2781.986h34.998v-10.97h-34.998v-31.342h-12.119v31.342h-25.282v10.97h25.282v62.684c0 10.447-.313 18.074 3.448 25.909 6.895 14.522 25.7 17.134 43.67 13.268v-10.865c-16.82 2.716-27.685 1.358-32.7-8.253-2.716-5.119-2.298-10.656-2.298-20.268v-62.475Z" style="fill:url(#w);fill-rule:nonzero"/><path d="M1822.774 2748.241h12.014v-15.358h-12.014zm0 135.606h12.014v-112.831h-12.014z" style="fill:url(#x);fill-rule:nonzero"/><path d="M1909.904 2886.981c33.327 0 52.55-24.133 52.55-59.759 0-34.894-18.91-59.341-52.55-59.341-32.909 0-52.55 23.924-52.55 59.341 0 35.103 19.014 59.759 52.55 59.759m0-11.701c-26.118 0-39.7-19.014-39.7-48.058 0-27.999 12.746-47.64 39.7-47.64 26.432 0 39.7 18.701 39.7 47.64 0 28.521-13.059 48.058-39.7 48.058" style="fill:url(#y);fill-rule:nonzero"/><path d="M2032.242 2768.404c-16.089 0-29.984 6.268-38.342 19.536v-16.925h-10.97v112.831h12.119v-60.908c0-24.865 11.074-42.938 35.625-42.938 23.611 0 34.894 16.611 34.894 45.132v58.714h12.119v-61.744c0-29.461-14.313-53.699-45.446-53.699Z" style="fill:url(#z);fill-rule:nonzero"/><path d="M2144.028 2886.772c27.163 0 43.67-12.537 43.67-33.536 0-17.343-9.612-25.178-42.103-33.431-26.641-6.686-33.745-11.283-33.745-21.208 0-11.701 12.119-19.641 29.566-19.328 18.492.104 31.551 9.194 33.954 23.611l12.328-2.298c-1.985-19.432-20.79-32.7-45.864-32.7-25.178 0-42.312 12.746-42.312 31.342 0 15.462 9.089 22.462 40.536 30.924 29.67 8.044 34.998 11.597 34.998 22.984 0 13.79-11.805 22.253-30.506 22.253-18.805 0-32.596-8.462-36.148-21.939l-12.328 2.089c3.97 19.641 21.939 31.237 47.953 31.237Z" style="fill:url(#A);fill-rule:nonzero"/><defs><radialGradient id="a" cx="0" cy="0" r="1" gradientTransform="rotate(74.818 -82.813 1237.51)scale(1005.80413 -1004.84477)" gradientUnits="userSpaceOnUse"><stop offset="0" style="stop-color:#5525e8;stop-opacity:1"/><stop offset=".38" style="stop-color:#5525e8;stop-opacity:1"/><stop offset=".91" style="stop-color:#0d1560;stop-opacity:1"/><stop offset="1" style="stop-color:#0d1560;stop-opacity:1"/></radialGradient><radialGradient id="b" cx="0" cy="0" r="1" gradientTransform="translate(1133.231 2673.127)scale(948.60533)" gradientUnits="userSpaceOnUse"><stop offset="0" style="stop-color:#5525e8;stop-opacity:1"/><stop offset=".24" style="stop-color:#5525e8;stop-opacity:1"/><stop offset=".91" style="stop-color:#0d1560;stop-opacity:1"/><stop offset="1" style="stop-color:#0d1560;stop-opacity:1"/></radialGradient><radialGradient id="c" cx="0" cy="0" r="1" gradientTransform="translate(1133.231 2673.127)scale(948.60533)" gradientUnits="userSpaceOnUse"><stop offset="0" style="stop-color:#5525e8;stop-opacity:1"/><stop offset=".24" style="stop-color:#5525e8;stop-opacity:1"/><stop offset=".91" style="stop-color:#0d1560;stop-opacity:1"/><stop offset="1" style="stop-color:#0d1560;stop-opacity:1"/></radialGradient><radialGradient id="d" cx="0" cy="0" r="1" gradientTransform="translate(1133.231 2673.127)scale(948.60533)" gradientUnits="userSpaceOnUse"><stop offset="0" style="stop-color:#5525e8;stop-opacity:1"/><stop offset=".24" style="stop-color:#5525e8;stop-opacity:1"/><stop offset=".91" style="stop-color:#0d1560;stop-opacity:1"/><stop offset="1" style="stop-color:#0d1560;stop-opacity:1"/></radialGradient><radialGradient id="e" cx="0" cy="0" r="1" gradientTransform="translate(1133.231 2673.127)scale(948.60533)" gradientUnits="userSpaceOnUse"><stop offset="0" style="stop-color:#5525e8;stop-opacity:1"/><stop offset=".24" style="stop-color:#5525e8;stop-opacity:1"/><stop offset=".91" style="stop-color:#0d1560;stop-opacity:1"/><stop offset="1" style="stop-color:#0d1560;stop-opacity:1"/></radialGradient><radialGradient id="f" cx="0" cy="0" r="1" gradientTransform="translate(1133.231 2673.127)scale(948.60533)" gradientUnits="userSpaceOnUse"><stop offset="0" style="stop-color:#5525e8;stop-opacity:1"/><stop offset=".24" style="stop-color:#5525e8;stop-opacity:1"/><stop offset=".91" style="stop-color:#0d1560;stop-opacity:1"/><stop offset="1" style="stop-color:#0d1560;stop-opacity:1"/></radialGradient><radialGradient id="g" cx="0" cy="0" r="1" gradientTransform="translate(1133.231 2673.127)scale(948.60533)" gradientUnits="userSpaceOnUse"><stop offset="0" style="stop-color:#5525e8;stop-opacity:1"/><stop offset=".24" style="stop-color:#5525e8;stop-opacity:1"/><stop offset=".91" style="stop-color:#0d1560;stop-opacity:1"/><stop offset="1" style="stop-color:#0d1560;stop-opacity:1"/></radialGradient><radialGradient id="h" cx="0" cy="0" r="1" gradientTransform="translate(1133.231 2673.127)scale(948.60533)" gradientUnits="userSpaceOnUse"><stop offset="0" style="stop-color:#5525e8;stop-opacity:1"/><stop offset=".24" style="stop-color:#5525e8;stop-opacity:1"/><stop offset=".91" style="stop-color:#0d1560;stop-opacity:1"/><stop offset="1" style="stop-color:#0d1560;stop-opacity:1"/></radialGradient><radialGradient id="i" cx="0" cy="0" r="1" gradientTransform="translate(1133.231 2673.127)scale(948.60533)" gradientUnits="userSpaceOnUse"><stop offset="0" style="stop-color:#5525e8;stop-opacity:1"/><stop offset=".24" style="stop-color:#5525e8;stop-opacity:1"/><stop offset=".91" style="stop-color:#0d1560;stop-opacity:1"/><stop offset="1" style="stop-color:#0d1560;stop-opacity:1"/></radialGradient><radialGradient id="j" cx="0" cy="0" r="1" gradientTransform="translate(1133.231 2673.127)scale(948.60533)" gradientUnits="userSpaceOnUse"><stop offset="0" style="stop-color:#5525e8;stop-opacity:1"/><stop offset=".24" style="stop-color:#5525e8;stop-opacity:1"/><stop offset=".91" style="stop-color:#0d1560;stop-opacity:1"/><stop offset="1" style="stop-color:#0d1560;stop-opacity:1"/></radialGradient><radialGradient id="k" cx="0" cy="0" r="1" gradientTransform="translate(1133.231 2673.127)scale(948.60533)" gradientUnits="userSpaceOnUse"><stop offset="0" style="stop-color:#5525e8;stop-opacity:1"/><stop offset=".24" style="stop-color:#5525e8;stop-opacity:1"/><stop offset=".91" style="stop-color:#0d1560;stop-opacity:1"/><stop offset="1" style="stop-color:#0d1560;stop-opacity:1"/></radialGradient><radialGradient id="l" cx="0" cy="0" r="1" gradientTransform="translate(1133.231 2673.127)scale(948.60533)" gradientUnits="userSpaceOnUse"><stop offset="0" style="stop-color:#5525e8;stop-opacity:1"/><stop offset=".24" style="stop-color:#5525e8;stop-opacity:1"/><stop offset=".91" style="stop-color:#0d1560;stop-opacity:1"/><stop offset="1" style="stop-color:#0d1560;stop-opacity:1"/></radialGradient><radialGradient id="m" cx="0" cy="0" r="1" gradientTransform="translate(1133.231 2673.127)scale(948.60533)" gradientUnits="userSpaceOnUse"><stop offset="0" style="stop-color:#5525e8;stop-opacity:1"/><stop offset=".24" style="stop-color:#5525e8;stop-opacity:1"/><stop offset=".91" style="stop-color:#0d1560;stop-opacity:1"/><stop offset="1" style="stop-color:#0d1560;stop-opacity:1"/></radialGradient><radialGradient id="n" cx="0" cy="0" r="1" gradientTransform="translate(1133.231 2673.127)scale(948.60533)" gradientUnits="userSpaceOnUse"><stop offset="0" style="stop-color:#5525e8;stop-opacity:1"/><stop offset=".24" style="stop-color:#5525e8;stop-opacity:1"/><stop offset=".91" style="stop-color:#0d1560;stop-opacity:1"/><stop offset="1" style="stop-color:#0d1560;stop-opacity:1"/></radialGradient><radialGradient id="o" cx="0" cy="0" r="1" gradientTransform="translate(1133.231 2673.127)scale(948.60533)" gradientUnits="userSpaceOnUse"><stop offset="0" style="stop-color:#5525e8;stop-opacity:1"/><stop offset=".24" style="stop-color:#5525e8;stop-opacity:1"/><stop offset=".91" style="stop-color:#0d1560;stop-opacity:1"/><stop offset="1" style="stop-color:#0d1560;stop-opacity:1"/></radialGradient><radialGradient id="p" cx="0" cy="0" r="1" gradientTransform="translate(1133.231 2673.127)scale(948.60533)" gradientUnits="userSpaceOnUse"><stop offset="0" style="stop-color:#5525e8;stop-opacity:1"/><stop offset=".24" style="stop-color:#5525e8;stop-opacity:1"/><stop offset=".91" style="stop-color:#0d1560;stop-opacity:1"/><stop offset="1" style="stop-color:#0d1560;stop-opacity:1"/></radialGradient><radialGradient id="q" cx="0" cy="0" r="1" gradientTransform="translate(1133.231 2673.127)scale(948.60533)" gradientUnits="userSpaceOnUse"><stop offset="0" style="stop-color:#5525e8;stop-opacity:1"/><stop offset=".24" style="stop-color:#5525e8;stop-opacity:1"/><stop offset=".91" style="stop-color:#0d1560;stop-opacity:1"/><stop offset="1" style="stop-color:#0d1560;stop-opacity:1"/></radialGradient><radialGradient id="r" cx="0" cy="0" r="1" gradientTransform="translate(1133.231 2673.127)scale(948.60533)" gradientUnits="userSpaceOnUse"><stop offset="0" style="stop-color:#5525e8;stop-opacity:1"/><stop offset=".24" style="stop-color:#5525e8;stop-opacity:1"/><stop offset=".91" style="stop-color:#0d1560;stop-opacity:1"/><stop offset="1" style="stop-color:#0d1560;stop-opacity:1"/></radialGradient><radialGradient id="s" cx="0" cy="0" r="1" gradientTransform="translate(1133.231 2673.127)scale(948.60533)" gradientUnits="userSpaceOnUse"><stop offset="0" style="stop-color:#5525e8;stop-opacity:1"/><stop offset=".24" style="stop-color:#5525e8;stop-opacity:1"/><stop offset=".91" style="stop-color:#0d1560;stop-opacity:1"/><stop offset="1" style="stop-color:#0d1560;stop-opacity:1"/></radialGradient><radialGradient id="t" cx="0" cy="0" r="1" gradientTransform="translate(1133.231 2673.127)scale(948.60533)" gradientUnits="userSpaceOnUse"><stop offset="0" style="stop-color:#5525e8;stop-opacity:1"/><stop offset=".24" style="stop-color:#5525e8;stop-opacity:1"/><stop offset=".91" style="stop-color:#0d1560;stop-opacity:1"/><stop offset="1" style="stop-color:#0d1560;stop-opacity:1"/></radialGradient><radialGradient id="u" cx="0" cy="0" r="1" gradientTransform="translate(1133.231 2673.127)scale(948.60533)" gradientUnits="userSpaceOnUse"><stop offset="0" style="stop-color:#5525e8;stop-opacity:1"/><stop offset=".24" style="stop-color:#5525e8;stop-opacity:1"/><stop offset=".91" style="stop-color:#0d1560;stop-opacity:1"/><stop offset="1" style="stop-color:#0d1560;stop-opacity:1"/></radialGradient><radialGradient id="v" cx="0" cy="0" r="1" gradientTransform="translate(1133.231 2673.127)scale(948.60533)" gradientUnits="userSpaceOnUse"><stop offset="0" style="stop-color:#5525e8;stop-opacity:1"/><stop offset=".24" style="stop-color:#5525e8;stop-opacity:1"/><stop offset=".91" style="stop-color:#0d1560;stop-opacity:1"/><stop offset="1" style="stop-color:#0d1560;stop-opacity:1"/></radialGradient><radialGradient id="w" cx="0" cy="0" r="1" gradientTransform="translate(1133.231 2673.127)scale(948.60533)" gradientUnits="userSpaceOnUse"><stop offset="0" style="stop-color:#5525e8;stop-opacity:1"/><stop offset=".24" style="stop-color:#5525e8;stop-opacity:1"/><stop offset=".91" style="stop-color:#0d1560;stop-opacity:1"/><stop offset="1" style="stop-color:#0d1560;stop-opacity:1"/></radialGradient><radialGradient id="x" cx="0" cy="0" r="1" gradientTransform="translate(1133.231 2673.127)scale(948.60533)" gradientUnits="userSpaceOnUse"><stop offset="0" style="stop-color:#5525e8;stop-opacity:1"/><stop offset=".24" style="stop-color:#5525e8;stop-opacity:1"/><stop offset=".91" style="stop-color:#0d1560;stop-opacity:1"/><stop offset="1" style="stop-color:#0d1560;stop-opacity:1"/></radialGradient><radialGradient id="y" cx="0" cy="0" r="1" gradientTransform="translate(1133.231 2673.127)scale(948.60533)" gradientUnits="userSpaceOnUse"><stop offset="0" style="stop-color:#5525e8;stop-opacity:1"/><stop offset=".24" style="stop-color:#5525e8;stop-opacity:1"/><stop offset=".91" style="stop-color:#0d1560;stop-opacity:1"/><stop offset="1" style="stop-color:#0d1560;stop-opacity:1"/></radialGradient><radialGradient id="z" cx="0" cy="0" r="1" gradientTransform="translate(1133.231 2673.127)scale(948.60533)" gradientUnits="userSpaceOnUse"><stop offset="0" style="stop-color:#5525e8;stop-opacity:1"/><stop offset=".24" style="stop-color:#5525e8;stop-opacity:1"/><stop offset=".91" style="stop-color:#0d1560;stop-opacity:1"/><stop offset="1" style="stop-color:#0d1560;stop-opacity:1"/></radialGradient><radialGradient id="A" cx="0" cy="0" r="1" gradientTransform="translate(1133.231 2673.127)scale(948.60533)" gradientUnits="userSpaceOnUse"><stop offset="0" style="stop-color:#5525e8;stop-opacity:1"/><stop offset=".24" style="stop-color:#5525e8;stop-opacity:1"/><stop offset=".91" style="stop-color:#0d1560;stop-opacity:1"/><stop offset="1" style="stop-color:#0d1560;stop-opacity:1"/></radialGradient></defs></svg>