<svg xmlns="http://www.w3.org/2000/svg" xml:space="preserve" style="fill-rule:evenodd;clip-rule:evenodd;stroke-linejoin:round;stroke-miterlimit:2" viewBox="0 0 3216 1001"><path d="M.558.203h3215.22v1000H.558z" style="fill:none"/><path d="M395.859 48.793c-2.735 5.029-6.808 10.142-11.849 15.294-20.128 20.568-46.918 38.243-68.207 58.244-46.186 43.396-81.486 103.295-101.252 163.191-36.241 109.82 13.734 292.726 137.517 323.705q1.8.45 3.626.858c40.508 13.824 81.079 2.431 84.638.862 14.892-6.564 21.855-9.54 27.808-13.996-5.432 22.042-33.667 38.739-53.912 46.953-65.985 26.772-148.883-2.324-202.786-43.795-77.902-59.936-110.013-153.571-136.811-244.093-7.99-17.11-24.766-12.928-38.85-5.37C83.565 212.396 196.886 99.499 348.683 58.825a460 460 0 0 1 47.174-10.031ZM13.854 446.731c4.129 3.985 7.979 9.291 11.607 15.547 14.435 24.896 24.299 55.438 37.876 81.301 29.46 56.111 77.734 106.147 130.16 141.215 91.652 61.305 268.292 64.859 339.106-31.147 48.183-63.082 48.752-120.101 33.629-157.576-.858-2.861-1.833-5.429-2.881-7.667 22.736 2.946 42.242 29.864 52.382 49.461 32.724 63.245 11.372 148.466-24.968 205.953-52.521 83.082-142.808 123.665-230.483 158.67-16.329 9.544-10.579 25.901-1.734 39.242C202.252 903.37 71.011 783.25 26.451 616.951 11.13 559.772 7.413 502.197 13.854 446.731m444.674 508c3.567-4.501 8.477-8.852 14.358-13.074 23.378-16.782 52.819-29.564 77.242-45.586 52.988-34.766 98.103-87.667 127.918-143.249 54.666-101.909 31.173-279.144-79.535-342.593-101.245-58.025-171.712-15.424-189.67 10.498-8.884-21.135 4.578-51.53 16.421-70.147 38.219-60.084 122.622-84.471 190.585-81.96 98.224 3.632 178.697 61.275 253.035 119.466 16.452 9.312 27.697-3.864 34.783-18.208a465 465 0 0 1 3.146 11.181c65.096 242.942-79.292 493.031-322.235 558.127-42.136 11.29-84.486 16.279-126.05 15.545Zm373.812-727.75c-5.738-.076-12.177-1.304-19.105-3.378-27.569-8.254-35.918-12.211-63.524-21.756-59.897-20.706-129.341-24.1-191.558-13.744-114.076 18.988-272.517 136.751-242.377 260.741 7.457 30.678 25.812 61.978 56.486 73.861-22.926.184-45.922-23.821-58.641-41.851-41.048-58.188-31.523-145.526-3.367-207.434 40.694-89.471 124.598-141.994 206.677-188.635 14.902-11.705 6.916-27.16-3.696-39.179 126.789 13.107 243.055 79.28 319.104 181.376Zm980.395-50.082L1698.87 534.022l-113.865-357.123h-93.162l155.271 439.934h100.063l154.408-439.934zm763.26 0h-194.656l-48.602 48.602v391.332h85.399V256.141c47.315 0 39.68.119 113.003.119h44.856zm230.608 79.242v-79.242h-96.613V59.583h-86.262v117.316l76.86 79.242h-76.86v248.552c0 75.91 23.291 112.14 104.377 112.14h78.498v-65.559h-52.62c-37.092 0-43.993-12.077-43.993-52.62V256.14h96.613Zm172.892 371.043c82.811 0 128.53-40.543 144.057-88.849v78.498h81.948V225.725l-48.821-48.761c-81.63.107-241.112.309-284.032.309v46.913l31.955 31.955h214.018v30.31c0 36.23-46.826 44.856-115.835 63.834-107.827 28.466-175.974 53.482-175.974 142.332 0 86.262 67.284 134.568 152.683 134.568Zm24.153-62.108c-50.032 0-87.124-26.741-87.124-75.048 0-52.62 44.856-72.46 113.003-91.437 50.894-14.664 81.948-28.466 92.3-53.482v81.948c0 73.322-43.131 138.019-118.178 138.019Zm-950.168 62.108c82.811 0 128.53-40.543 144.057-88.849v78.498h81.948V225.725l-48.821-48.761c-81.63.107-241.112.309-284.032.309v46.913l31.955 31.955h214.018v30.31c0 36.23-46.826 44.856-115.835 63.834-107.827 28.466-175.974 53.482-175.974 142.332 0 86.262 67.284 134.568 152.683 134.568Zm24.153-62.108c-50.032 0-87.124-26.741-87.124-75.048 0-52.62 44.856-72.46 113.003-91.437 50.894-14.664 81.948-28.466 92.3-53.482v81.948c0 73.322-43.131 138.019-118.178 138.019Zm-828.384 62.108c82.811 0 128.53-40.543 144.057-88.849v78.498h81.948V225.725l-48.821-48.761c-81.63.107-241.112.309-284.032.309v46.913l31.955 31.955h214.018v30.31c0 36.23-46.826 44.856-115.835 63.834-107.827 28.466-175.974 53.482-175.974 142.332 0 86.262 67.284 134.568 152.683 134.568Zm24.153-62.108c-50.032 0-87.124-26.741-87.124-75.048 0-52.62 44.856-72.46 113.003-91.437 50.894-14.664 81.948-28.466 92.3-53.482v81.948c0 73.322-43.131 138.019-118.178 138.019Z" style="fill:#00f3e3"/><path d="M1104.966 732.583h12.014v150.441h-12.014zm82.22 150.441h12.014v-138.74h53.908v-11.701h-119.831v11.701h53.908v138.74Zm197.663-92.876c-5.537-14.522-20.268-23.089-40.953-23.089-24.447 0-40.431 11.388-45.55 31.864l12.328 3.448c4.388-16.089 15.566-23.715 32.805-23.715 23.611 0 32.387 11.179 32.387 34.058-13.268 1.672-35.625 4.074-52.132 7.731-16.402 3.866-29.67 13.373-29.67 32.491 0 17.76 12.85 33.222 38.864 33.222 19.536 0 35.312-8.044 43.983-22.775v19.641h10.97v-70.31c0-8.044-.731-16.507-3.03-22.566Zm-51.296 84.937c-20.268 0-27.163-11.701-27.163-22.044 0-13.79 11.492-19.745 21.417-22.357 13.999-3.552 34.267-5.433 48.058-6.895 0 5.015-.209 12.328-1.254 17.969-2.925 20.163-18.074 33.327-41.058 33.327m128.292-107.503c-16.089 0-29.984 6.268-38.342 19.536v-16.925h-10.97v112.831h12.119v-60.908c0-24.865 11.074-42.938 35.625-42.938 23.611 0 34.894 16.611 34.894 45.132v58.714h12.119V821.28c0-29.461-14.313-53.699-45.446-53.699Zm150.546-34.999v54.744c-8.149-12.641-21.104-20.268-38.551-20.268-30.715 0-48.475 25.909-48.475 59.341 0 33.849 17.76 59.759 49.625 59.759 17.447 0 30.506-8.567 38.446-22.253v19.119h10.97V732.584zm-36.67 142.083c-24.865 0-37.506-20.895-37.506-48.267 0-27.163 12.014-47.849 37.715-47.849 24.865 0 37.506 19.954 37.506 47.849 0 27.685-12.432 48.267-37.715 48.267m114.711 8.358h44.819c3.239 0 12.641 0 19.745-1.045 33.745-4.701 50.356-35.625 50.356-74.176 0-38.446-16.611-69.475-50.356-74.176-7.209-1.045-16.402-1.045-19.745-1.045h-44.819zm12.641-11.805v-126.83h32.178c5.85 0 13.581.313 18.283 1.149 27.894 4.806 38.968 29.984 38.968 62.266 0 32.178-10.97 57.356-38.968 62.266-4.701.836-12.014 1.149-18.283 1.149zm129.756-41.162h91.205c.522-39.595-18.701-62.997-51.61-62.997-32.387 0-52.55 22.775-52.55 59.759 0 36.357 20.372 59.341 52.759 59.341 21.939 0 39.909-11.074 48.998-30.506l-10.865-4.806c-7.627 15.253-20.999 23.611-38.342 23.611-24.342 0-38.551-16.193-39.595-44.401Zm39.804-51.61c22.775 0 36.043 14.208 38.446 40.744h-78.041c2.194-26.014 16.193-40.744 39.595-40.744M1986.3 885.95c27.163 0 43.67-12.537 43.67-33.536 0-17.343-9.612-25.178-42.103-33.431-26.641-6.686-33.745-11.283-33.745-21.208 0-11.701 12.119-19.641 29.566-19.328 18.492.104 31.551 9.194 33.954 23.611l12.328-2.298c-1.985-19.432-20.79-32.7-45.864-32.7-25.178 0-42.312 12.746-42.312 31.342 0 15.462 9.089 22.462 40.536 30.924 29.67 8.044 34.998 11.597 34.998 22.984 0 13.79-11.805 22.253-30.506 22.253-18.805 0-32.596-8.462-36.148-21.939l-12.328 2.089c3.97 19.641 21.939 31.237 47.953 31.237Zm66.445-138.532h12.014V732.06h-12.014zm0 135.606h12.014V770.193h-12.014zm122.651-112.83v18.805c-8.044-13.581-21.417-21.939-39.595-21.939-30.715 0-48.475 25.909-48.475 59.341 0 33.849 17.76 59.759 49.625 59.759 16.611 0 29.148-7.731 37.192-20.163v13.059c.104 29.879-9.194 45.237-36.566 45.237-13.059 0-26.745-5.433-33.64-19.432l-10.865 6.477c10.029 18.283 27.685 24.969 44.401 24.969 28.417 0 44.088-12.223 47.744-38.446.94-6.059 1.149-12.119 1.149-18.805V770.195zm-37.715 104.473c-24.865 0-37.506-20.895-37.506-48.267 0-27.163 12.014-47.849 37.715-47.849 24.865 0 37.506 19.954 37.506 47.849 0 27.685-12.432 48.267-37.715 48.267m124.741-107.085c-16.089 0-29.984 6.268-38.342 19.536v-16.925h-10.97v112.831h12.119v-60.908c0-24.865 11.074-42.938 35.625-42.938 23.611 0 34.894 16.611 34.894 45.132v58.714h12.119V821.28c0-29.461-14.313-53.699-45.446-53.699ZM2413.49 885.95c27.163 0 43.67-12.537 43.67-33.536 0-17.343-9.612-25.178-42.103-33.431-26.641-6.686-33.745-11.283-33.745-21.208 0-11.701 12.119-19.641 29.566-19.328 18.492.104 31.551 9.194 33.954 23.611l12.328-2.298c-1.985-19.432-20.79-32.7-45.864-32.7-25.178 0-42.312 12.746-42.312 31.342 0 15.462 9.089 22.462 40.536 30.924 29.67 8.044 34.998 11.597 34.998 22.984 0 13.79-11.805 22.253-30.506 22.253-18.805 0-32.596-8.462-36.148-21.939l-12.328 2.089c3.97 19.641 21.939 31.237 47.953 31.237Zm110.637.209c33.327 0 52.55-24.133 52.55-59.759 0-34.894-18.91-59.341-52.55-59.341-32.909 0-52.55 23.924-52.55 59.341 0 35.103 19.014 59.759 52.55 59.759m0-11.701c-26.118 0-39.7-19.014-39.7-48.058 0-27.999 12.746-47.64 39.7-47.64 26.432 0 39.7 18.701 39.7 47.64 0 28.521-13.059 48.058-39.7 48.058m75.116-145.009h12.014v153.575h-12.014zm121.398 40.745v60.908c0 24.865-11.074 42.938-35.625 42.938-23.611 0-34.894-16.611-34.894-45.132v-58.714h-12.119v61.744c0 29.461 14.313 53.699 45.446 53.699 16.089 0 29.984-6.268 38.342-19.536v16.925h10.97V770.195zm63.728 10.969h34.998v-10.97h-34.998v-31.342h-12.119v31.342h-25.282v10.97h25.282v62.684c0 10.447-.313 18.074 3.448 25.909 6.895 14.522 25.7 17.134 43.67 13.268v-10.865c-16.82 2.716-27.685 1.358-32.7-8.253-2.716-5.119-2.298-10.656-2.298-20.268v-62.475Zm56.207-33.745h12.014V732.06h-12.014zm0 135.606h12.014V770.193h-12.014zm87.13 3.135c33.327 0 52.55-24.133 52.55-59.759 0-34.894-18.91-59.341-52.55-59.341-32.909 0-52.55 23.924-52.55 59.341 0 35.103 19.014 59.759 52.55 59.759m0-11.701c-26.118 0-39.7-19.014-39.7-48.058 0-27.999 12.746-47.64 39.7-47.64 26.432 0 39.7 18.701 39.7 47.64 0 28.521-13.059 48.058-39.7 48.058m122.338-106.876c-16.089 0-29.984 6.268-38.342 19.536v-16.925h-10.97v112.831h12.119v-60.908c0-24.865 11.074-42.938 35.625-42.938 23.611 0 34.894 16.611 34.894 45.132v58.714h12.119V821.28c0-29.461-14.313-53.699-45.446-53.699ZM3161.83 885.95c27.163 0 43.67-12.537 43.67-33.536 0-17.343-9.612-25.178-42.103-33.431-26.641-6.686-33.745-11.283-33.745-21.208 0-11.701 12.119-19.641 29.566-19.328 18.492.104 31.551 9.194 33.954 23.611l12.328-2.298c-1.985-19.432-20.79-32.7-45.864-32.7-25.178 0-42.312 12.746-42.312 31.342 0 15.462 9.089 22.462 40.536 30.924 29.67 8.044 34.998 11.597 34.998 22.984 0 13.79-11.805 22.253-30.506 22.253-18.805 0-32.596-8.462-36.148-21.939l-12.328 2.089c3.97 19.641 21.939 31.237 47.953 31.237Z" style="fill:#00f3e3;fill-rule:nonzero"/></svg>