<svg xmlns="http://www.w3.org/2000/svg" xml:space="preserve" style="fill-rule:evenodd;clip-rule:evenodd;stroke-linejoin:round;stroke-miterlimit:2" viewBox="0 0 1001 1001"><path d="M.231.322h1000v1000H.231z" style="fill:none"/><path d="M429.459 48.911c-2.735 5.029-6.808 10.142-11.849 15.294-20.128 20.568-46.918 38.243-68.207 58.244-46.186 43.396-81.486 103.295-101.252 163.191-36.241 109.82 13.734 292.726 137.517 323.705q1.8.45 3.626.858c40.508 13.824 81.079 2.431 84.638.862 14.892-6.564 21.855-9.54 27.808-13.996-5.432 22.042-33.667 38.739-53.912 46.953-65.985 26.772-148.883-2.324-202.786-43.795-77.902-59.936-110.013-153.571-136.811-244.093-7.99-17.11-24.766-12.928-38.85-5.37 47.784-138.25 161.105-251.147 312.902-291.821a460 460 0 0 1 47.174-10.031ZM47.454 446.849c4.129 3.985 7.979 9.291 11.607 15.547 14.435 24.896 24.299 55.438 37.876 81.301 29.46 56.111 77.734 106.147 130.16 141.215 91.652 61.305 268.292 64.859 339.106-31.147 48.183-63.082 48.752-120.101 33.629-157.576-.858-2.861-1.833-5.429-2.881-7.667 22.736 2.946 42.242 29.864 52.382 49.461 32.724 63.245 11.372 148.466-24.968 205.953-52.521 83.082-142.808 123.665-230.483 158.67-16.329 9.544-10.579 25.901-1.734 39.242-156.296-38.36-287.537-158.48-332.097-324.779-15.321-57.179-19.038-114.754-12.597-170.22m444.674 508c3.567-4.501 8.477-8.852 14.358-13.074 23.378-16.782 52.819-29.564 77.242-45.586 52.988-34.766 98.103-87.667 127.918-143.249 54.666-101.909 31.173-279.144-79.535-342.593-101.245-58.025-171.712-15.424-189.67 10.498-8.884-21.135 4.578-51.53 16.421-70.147 38.219-60.084 122.622-84.471 190.585-81.96 98.224 3.632 178.697 61.275 253.035 119.466 16.452 9.312 27.697-3.864 34.783-18.208a465 465 0 0 1 3.146 11.181c65.096 242.942-79.292 493.031-322.235 558.127-42.136 11.29-84.486 16.279-126.05 15.545Zm373.812-727.75c-5.738-.076-12.177-1.304-19.105-3.378-27.569-8.254-35.918-12.211-63.524-21.756-59.897-20.706-129.341-24.1-191.558-13.744-114.076 18.988-272.517 136.751-242.377 260.741 7.457 30.678 25.812 61.978 56.486 73.861-22.926.184-45.922-23.821-58.641-41.851-41.048-58.188-31.523-145.526-3.367-207.434 40.694-89.471 124.598-141.994 206.677-188.635 14.902-11.705 6.916-27.16-3.696-39.179C673.624 58.831 789.89 125.004 865.939 227.1Z" style="fill:#fff"/></svg>