<?xml version="1.0" encoding="UTF-8" standalone="no"?><!DOCTYPE svg PUBLIC "-//W3C//DTD SVG 1.1//EN" "http://www.w3.org/Graphics/SVG/1.1/DTD/svg11.dtd"><svg width="100%" height="100%" viewBox="0 0 1201 1201" version="1.1" xmlns="http://www.w3.org/2000/svg" xmlns:xlink="http://www.w3.org/1999/xlink" xml:space="preserve" xmlns:serif="http://www.serif.com/" style="fill-rule:evenodd;clip-rule:evenodd;stroke-linejoin:round;stroke-miterlimit:2;"><rect id="Coloured-wordmark-TINY" serif:id="Coloured wordmark TINY" x="0.179" y="0.077" width="1200" height="1200" style="fill:none;"/><g><path d="M369.523,514.64c-0.518,0.952 -1.288,1.92 -2.243,2.895c-3.809,3.893 -8.88,7.238 -12.909,11.023c-8.741,8.214 -15.422,19.551 -19.163,30.887c-6.86,20.785 2.599,55.404 26.027,61.267c0.227,0.057 0.456,0.111 0.686,0.162c7.667,2.616 15.346,0.46 16.019,0.163c2.819,-1.242 4.137,-1.805 5.264,-2.649c-1.028,4.172 -6.372,7.332 -10.204,8.887c-12.489,5.067 -28.179,-0.44 -38.381,-8.289c-14.744,-11.344 -20.821,-29.066 -25.893,-46.199c-1.513,-3.238 -4.688,-2.447 -7.353,-1.016c9.044,-26.166 30.492,-47.534 59.222,-55.232c2.974,-0.797 5.953,-1.428 8.928,-1.899Zm-72.301,75.317c0.782,0.754 1.511,1.758 2.197,2.942c2.732,4.712 4.599,10.493 7.169,15.388c5.576,10.62 14.712,20.09 24.635,26.727c17.347,11.603 50.779,12.276 64.181,-5.895c9.12,-11.939 9.228,-22.731 6.365,-29.824c-0.162,-0.541 -0.347,-1.027 -0.545,-1.451c4.303,0.558 7.995,5.652 9.914,9.361c6.194,11.971 2.152,28.1 -4.726,38.98c-9.94,15.725 -27.028,23.406 -43.622,30.031c-3.091,1.807 -2.003,4.903 -0.329,7.428c-29.581,-7.261 -54.421,-29.995 -62.855,-61.47c-2.899,-10.822 -3.603,-21.719 -2.384,-32.217Zm84.162,96.147c0.675,-0.852 1.605,-1.675 2.718,-2.474c4.424,-3.177 9.997,-5.596 14.619,-8.628c10.029,-6.58 18.568,-16.593 24.211,-27.112c10.346,-19.289 5.9,-52.833 -15.053,-64.842c-19.163,-10.982 -32.5,-2.919 -35.899,1.987c-1.681,-4 0.867,-9.753 3.108,-13.277c7.234,-11.372 23.209,-15.987 36.072,-15.512c18.59,0.688 33.821,11.598 47.891,22.611c3.114,1.763 5.242,-0.731 6.583,-3.446c0.207,0.701 0.405,1.406 0.596,2.116c12.32,45.981 -15.008,93.314 -60.989,105.635c-7.975,2.137 -15.99,3.081 -23.857,2.942Zm70.75,-137.739c-1.086,-0.014 -2.304,-0.247 -3.616,-0.639c-5.217,-1.562 -6.798,-2.311 -12.022,-4.118c-11.337,-3.919 -24.48,-4.561 -36.256,-2.601c-21.591,3.594 -51.578,25.882 -45.874,49.349c1.411,5.807 4.886,11.731 10.691,13.98c-4.339,0.035 -8.691,-4.509 -11.099,-7.921c-7.769,-11.013 -5.966,-27.543 -0.637,-39.26c7.702,-16.934 23.582,-26.875 39.117,-35.703c2.821,-2.215 1.309,-5.14 -0.699,-7.415c23.997,2.481 46.002,15.005 60.395,34.328Z" style="fill:url(#_Radial1);"/><g><g><g><path d="M637.691,538.886l-21.551,67.592l-21.551,-67.592l-17.633,0l29.388,83.265l18.938,0l29.225,-83.265l-16.816,0Z" style="fill:url(#_Radial2);"/><path d="M782.15,538.886l-36.842,0l-9.198,9.199l-0,74.066l16.163,0l-0,-68.267c8.955,0 7.51,0.023 21.388,0.023l8.489,-0l0,-15.021Z" style="fill:url(#_Radial3);"/><path d="M825.797,553.884l-0,-14.998l-18.286,0l0,-22.204l-16.326,0l-0,22.204l14.547,14.998l-14.547,0l-0,47.043c-0,14.367 4.408,21.224 19.755,21.224l14.857,0l-0,-12.408l-9.959,0c-7.021,0 -8.327,-2.285 -8.327,-9.959l0,-45.9l18.286,0Z" style="fill:url(#_Radial4);"/><path d="M858.519,624.111c15.674,-0 24.327,-7.674 27.266,-16.817l-0,14.857l15.51,0c-0,0 -0,-69.324 -0,-74.023l-9.241,-9.229c-15.449,0.02 -45.634,0.058 -53.757,0.058l-0,8.879l6.048,6.048c16.011,0 40.506,0 40.506,0c0,0 0,4.736 0,5.737c0,6.857 -8.862,8.49 -21.924,12.082c-20.408,5.387 -33.305,10.122 -33.305,26.938c-0,16.327 12.734,25.47 28.897,25.47Zm4.572,-11.756c-9.47,0 -16.49,-5.061 -16.49,-14.204c0,-9.959 8.49,-13.714 21.388,-17.306c9.632,-2.775 15.51,-5.387 17.469,-10.122l-0,15.51c-0,13.878 -8.163,26.122 -22.367,26.122Z" style="fill:url(#_Radial5);"/><path d="M683.256,624.111c15.673,-0 24.326,-7.674 27.265,-16.817l-0,14.857l15.51,0c-0,0 -0,-69.324 -0,-74.023l-9.24,-9.229c-15.45,0.02 -45.635,0.058 -53.758,0.058c-0,0 -0,4.741 -0,8.879l6.048,6.048c16.011,0 40.507,0 40.507,0c-0,0 -0,4.736 -0,5.737c-0,6.857 -8.863,8.49 -21.924,12.082c-20.408,5.387 -33.306,10.122 -33.306,26.938c-0,16.327 12.734,25.47 28.898,25.47Zm4.571,-11.756c-9.469,0 -16.49,-5.061 -16.49,-14.204c0,-9.959 8.49,-13.714 21.388,-17.306c9.633,-2.775 15.51,-5.387 17.469,-10.122l0,15.51c0,13.878 -8.163,26.122 -22.367,26.122Z" style="fill:url(#_Radial6);"/><path d="M531.042,624.111c15.673,-0 24.326,-7.674 27.265,-16.817l-0,14.857l15.51,0c-0,0 -0,-69.324 -0,-74.023l-9.24,-9.229c-15.45,0.02 -45.635,0.058 -53.758,0.058l-0,8.879l6.048,6.048c16.011,0 40.506,0 40.506,0c0,0 0,4.736 0,5.737c0,6.857 -8.862,8.49 -21.923,12.082c-20.408,5.387 -33.306,10.122 -33.306,26.938c-0,16.327 12.734,25.47 28.898,25.47Zm4.571,-11.756c-9.469,0 -16.49,-5.061 -16.49,-14.204c0,-9.959 8.49,-13.714 21.388,-17.306c9.632,-2.775 15.51,-5.387 17.469,-10.122l0,15.51c0,13.878 -8.163,26.122 -22.367,26.122Z" style="fill:url(#_Radial7);"/></g><g transform="matrix(39.5465,0,0,39.5465,926.565,672.532)"></g><text x="500.57px" y="672.532px" style="font-family:'Helvetica-Light', 'Helvetica', sans-serif;font-weight:300;font-size:39.547px;fill:url(#_Radial8);">I<tspan x="511.089px 532.602px 543.122px 564.635px 586.148px 609.837px 620.356px 648.434px 669.947px 689.246px 697.551px 721.239px 742.753px 753.272px 772.571px 794.084px 802.389px 823.902px 834.421px 842.726px 864.24px 885.753px " y="672.532px 672.532px 672.532px 672.532px 672.532px 672.532px 672.532px 672.532px 672.532px 672.532px 672.532px 672.532px 672.532px 672.532px 672.532px 672.532px 672.532px 672.532px 672.532px 672.532px 672.532px 672.532px ">T and Design solutions</tspan></text></g></g></g><defs><radialGradient id="_Radial1" cx="0" cy="0" r="1" gradientUnits="userSpaceOnUse" gradientTransform="matrix(24.8063,91.4154,91.3282,-24.7826,382.915,599.836)"><stop offset="0" style="stop-color:#5525e8;stop-opacity:1"/><stop offset="0.38" style="stop-color:#5525e8;stop-opacity:1"/><stop offset="0.91" style="stop-color:#0d1560;stop-opacity:1"/><stop offset="1" style="stop-color:#0d1560;stop-opacity:1"/></radialGradient><radialGradient id="_Radial2" cx="0" cy="0" r="1" gradientUnits="userSpaceOnUse" gradientTransform="matrix(179.539,0,0,179.539,701.719,632.65)"><stop offset="0" style="stop-color:#5525e8;stop-opacity:1"/><stop offset="0.24" style="stop-color:#5525e8;stop-opacity:1"/><stop offset="0.91" style="stop-color:#0d1560;stop-opacity:1"/><stop offset="1" style="stop-color:#0d1560;stop-opacity:1"/></radialGradient><radialGradient id="_Radial3" cx="0" cy="0" r="1" gradientUnits="userSpaceOnUse" gradientTransform="matrix(179.539,0,0,179.539,701.719,632.65)"><stop offset="0" style="stop-color:#5525e8;stop-opacity:1"/><stop offset="0.24" style="stop-color:#5525e8;stop-opacity:1"/><stop offset="0.91" style="stop-color:#0d1560;stop-opacity:1"/><stop offset="1" style="stop-color:#0d1560;stop-opacity:1"/></radialGradient><radialGradient id="_Radial4" cx="0" cy="0" r="1" gradientUnits="userSpaceOnUse" gradientTransform="matrix(179.539,0,0,179.539,701.719,632.65)"><stop offset="0" style="stop-color:#5525e8;stop-opacity:1"/><stop offset="0.24" style="stop-color:#5525e8;stop-opacity:1"/><stop offset="0.91" style="stop-color:#0d1560;stop-opacity:1"/><stop offset="1" style="stop-color:#0d1560;stop-opacity:1"/></radialGradient><radialGradient id="_Radial5" cx="0" cy="0" r="1" gradientUnits="userSpaceOnUse" gradientTransform="matrix(179.539,0,0,179.539,701.719,632.65)"><stop offset="0" style="stop-color:#5525e8;stop-opacity:1"/><stop offset="0.24" style="stop-color:#5525e8;stop-opacity:1"/><stop offset="0.91" style="stop-color:#0d1560;stop-opacity:1"/><stop offset="1" style="stop-color:#0d1560;stop-opacity:1"/></radialGradient><radialGradient id="_Radial6" cx="0" cy="0" r="1" gradientUnits="userSpaceOnUse" gradientTransform="matrix(179.539,0,0,179.539,701.719,632.65)"><stop offset="0" style="stop-color:#5525e8;stop-opacity:1"/><stop offset="0.24" style="stop-color:#5525e8;stop-opacity:1"/><stop offset="0.91" style="stop-color:#0d1560;stop-opacity:1"/><stop offset="1" style="stop-color:#0d1560;stop-opacity:1"/></radialGradient><radialGradient id="_Radial7" cx="0" cy="0" r="1" gradientUnits="userSpaceOnUse" gradientTransform="matrix(179.539,0,0,179.539,701.719,632.65)"><stop offset="0" style="stop-color:#5525e8;stop-opacity:1"/><stop offset="0.24" style="stop-color:#5525e8;stop-opacity:1"/><stop offset="0.91" style="stop-color:#0d1560;stop-opacity:1"/><stop offset="1" style="stop-color:#0d1560;stop-opacity:1"/></radialGradient><radialGradient id="_Radial8" cx="0" cy="0" r="1" gradientUnits="userSpaceOnUse" gradientTransform="matrix(179.539,0,0,179.539,701.719,632.65)"><stop offset="0" style="stop-color:#5525e8;stop-opacity:1"/><stop offset="0.24" style="stop-color:#5525e8;stop-opacity:1"/><stop offset="0.91" style="stop-color:#0d1560;stop-opacity:1"/><stop offset="1" style="stop-color:#0d1560;stop-opacity:1"/></radialGradient></defs></svg>