<?xml version="1.0" encoding="UTF-8" standalone="no"?><!DOCTYPE svg PUBLIC "-//W3C//DTD SVG 1.1//EN" "http://www.w3.org/Graphics/SVG/1.1/DTD/svg11.dtd"><svg width="100%" height="100%" viewBox="0 0 3000 2993" version="1.1" xmlns="http://www.w3.org/2000/svg" xmlns:xlink="http://www.w3.org/1999/xlink" xml:space="preserve" xmlns:serif="http://www.serif.com/" style="fill-rule:evenodd;clip-rule:evenodd;stroke-linejoin:round;stroke-miterlimit:2;"><path d="M9.935,1320.078c13.589,13.115 26.26,30.575 38.201,51.166c47.504,81.933 79.967,182.446 124.65,267.558c96.95,184.658 255.817,349.325 428.35,464.729c301.621,201.754 882.933,213.45 1115.979,-102.5c158.562,-207.604 160.442,-395.25 110.671,-518.575c-2.825,-9.417 -6.033,-17.867 -9.483,-25.233c74.825,9.696 139.017,98.283 172.383,162.775c107.696,208.137 37.425,488.596 -82.167,677.779c-172.846,273.417 -469.975,406.975 -758.508,522.175c-53.739,31.412 -34.816,85.241 -5.708,129.145c-514.36,-126.24 -946.268,-521.549 -1092.912,-1068.833c-50.421,-188.174 -62.653,-377.651 -41.455,-560.186Zm1463.398,1671.802c11.737,-14.811 27.897,-29.13 47.249,-43.024c76.938,-55.229 173.825,-97.296 254.2,-150.025c174.383,-114.412 322.854,-288.508 420.975,-471.421c179.904,-335.379 102.588,-918.65 -261.746,-1127.454c-333.188,-190.958 -565.096,-50.762 -624.192,34.546c-29.238,-69.554 15.067,-169.583 54.042,-230.85c125.775,-197.733 403.542,-277.992 627.204,-269.725c323.246,11.954 588.079,201.654 832.721,393.154c54.141,30.647 91.15,-12.713 114.471,-59.917c3.595,12.186 7.047,24.45 10.354,36.792c214.229,799.512 -260.946,1622.538 -1060.454,1836.767c-138.667,37.156 -278.041,53.573 -414.824,51.158Zm1230.194,-2394.985c-18.883,-0.25 -40.074,-4.293 -62.875,-11.118c-90.729,-27.163 -118.204,-40.183 -209.054,-71.6c-197.117,-68.142 -425.65,-79.312 -630.404,-45.229c-375.417,62.487 -896.838,450.038 -797.65,858.083c24.542,100.958 84.946,203.967 185.896,243.071c-75.45,0.604 -151.129,-78.392 -192.983,-137.729c-135.087,-191.496 -103.742,-478.917 -11.083,-682.65c133.921,-294.446 410.046,-467.296 680.162,-620.788c49.041,-38.522 22.763,-89.383 -12.158,-128.936c417.253,43.134 799.877,260.907 1050.149,596.896Zm-1436.435,-586.406c-9.002,16.549 -22.403,33.374 -38.994,50.329c-66.242,67.692 -154.404,125.858 -224.467,191.679c-151.996,142.812 -268.162,339.937 -333.213,537.054c-119.267,361.413 45.2,963.346 452.563,1065.292c3.95,0.992 7.929,1.933 11.933,2.825c133.308,45.492 266.825,8 278.537,2.838c49.008,-21.6 71.925,-31.396 91.517,-46.063c-17.875,72.542 -110.796,127.492 -177.421,154.521c-217.154,88.104 -489.967,-7.65 -667.354,-144.129c-256.371,-197.246 -362.05,-505.392 -450.238,-803.296c-26.296,-56.31 -81.506,-42.546 -127.855,-17.672c157.254,-454.973 530.188,-826.511 1029.747,-960.365c51.707,-13.855 103.512,-24.826 155.244,-33.013Z" style="fill:url(#_Radial1);"/><defs><radialGradient id="_Radial1" cx="0" cy="0" r="1" gradientUnits="userSpaceOnUse" gradientTransform="matrix(431.329167,1589.520833,1588.004167,-430.916667,1499.939531,1491.869012)"><stop offset="0" style="stop-color:#5525e8;stop-opacity:1"/><stop offset="0.38" style="stop-color:#5525e8;stop-opacity:1"/><stop offset="0.91" style="stop-color:#0d1560;stop-opacity:1"/><stop offset="1" style="stop-color:#0d1560;stop-opacity:1"/></radialGradient></defs></svg>