<?xml version="1.0" encoding="UTF-8" standalone="no"?><!DOCTYPE svg PUBLIC "-//W3C//DTD SVG 1.1//EN" "http://www.w3.org/Graphics/SVG/1.1/DTD/svg11.dtd"><svg width="100%" height="100%" viewBox="0 0 348 128" version="1.1" xmlns="http://www.w3.org/2000/svg" xmlns:xlink="http://www.w3.org/1999/xlink" xml:space="preserve" xmlns:serif="http://www.serif.com/" style="fill-rule:evenodd;clip-rule:evenodd;stroke-linejoin:round;stroke-miterlimit:2;"><g><path d="M114.626,50.23l0,-49.632l19.21,0c3.339,0 6.428,0.561 9.269,1.682c2.84,1.121 5.27,2.728 7.288,4.821c2.018,2.093 3.6,4.634 4.746,7.624c1.146,2.99 1.719,6.378 1.719,10.166c0,3.787 -0.511,7.238 -1.532,10.352c-1.022,3.114 -2.479,5.78 -4.373,7.998c-1.894,2.217 -4.161,3.937 -6.802,5.158c-2.641,1.221 -5.556,1.831 -8.745,1.831l-20.78,0Zm18.687,-8.446c4.535,0 7.823,-1.408 9.867,-4.223c2.043,-2.815 3.065,-7.039 3.065,-12.67c0,-2.791 -0.249,-5.182 -0.747,-7.176c-0.498,-1.993 -1.308,-3.625 -2.429,-4.896c-1.121,-1.271 -2.554,-2.193 -4.298,-2.766c-1.744,-0.573 -3.862,-0.86 -6.353,-0.86l-7.699,0l0,32.59l8.596,0Zm37.224,-7.4c0.149,2.791 0.959,5.008 2.429,6.652c1.47,1.644 3.401,2.467 5.793,2.467c1.595,0 3.002,-0.361 4.223,-1.084c1.221,-0.723 2.006,-1.732 2.355,-3.027l10.016,0c-1.146,3.787 -3.139,6.702 -5.98,8.745c-2.84,2.043 -6.229,3.065 -10.166,3.065c-12.258,0 -18.388,-6.677 -18.388,-20.032c0,-2.84 0.399,-5.407 1.196,-7.699c0.797,-2.292 1.956,-4.261 3.476,-5.905c1.52,-1.644 3.376,-2.903 5.569,-3.775c2.193,-0.872 4.709,-1.308 7.549,-1.308c5.681,0 9.979,1.819 12.894,5.457c2.915,3.638 4.373,9.119 4.373,16.444l-25.339,0Zm15.323,-6.129c-0.05,-1.345 -0.287,-2.529 -0.71,-3.55c-0.424,-1.022 -0.984,-1.869 -1.682,-2.541c-0.698,-0.673 -1.495,-1.171 -2.392,-1.495c-0.897,-0.324 -1.819,-0.486 -2.766,-0.486c-1.943,0 -3.625,0.71 -5.045,2.13c-1.42,1.42 -2.23,3.401 -2.429,5.942l15.024,0Zm36.925,-3.663c-0.249,-1.694 -0.885,-2.928 -1.906,-3.7c-1.022,-0.772 -2.579,-1.159 -4.672,-1.159c-1.993,0 -3.501,0.237 -4.522,0.71c-1.022,0.473 -1.532,1.283 -1.532,2.429c0,0.997 0.511,1.794 1.532,2.392c1.022,0.598 2.504,1.171 4.447,1.719c3.189,0.897 5.88,1.657 8.073,2.28c2.193,0.623 3.949,1.358 5.27,2.205c1.321,0.847 2.267,1.906 2.84,3.177c0.573,1.271 0.86,2.977 0.86,5.12c0,3.289 -1.37,6.017 -4.111,8.185c-2.741,2.168 -6.802,3.251 -12.184,3.251c-2.641,0 -5.033,-0.299 -7.176,-0.897c-2.143,-0.598 -3.974,-1.458 -5.494,-2.579c-1.52,-1.121 -2.691,-2.467 -3.513,-4.036c-0.822,-1.57 -1.258,-3.326 -1.308,-5.27l10.016,0c0,1.744 0.685,3.09 2.056,4.036c1.37,0.947 3.152,1.42 5.344,1.42c1.844,0 3.426,-0.287 4.746,-0.86c1.321,-0.573 1.981,-1.458 1.981,-2.654c0,-1.345 -0.486,-2.317 -1.458,-2.915c-0.972,-0.598 -2.454,-1.121 -4.447,-1.57c-3.588,-0.797 -6.478,-1.632 -8.671,-2.504c-2.193,-0.872 -3.899,-1.831 -5.12,-2.878c-1.221,-1.046 -2.043,-2.193 -2.467,-3.438c-0.424,-1.246 -0.635,-2.641 -0.635,-4.186c0,-1.395 0.287,-2.716 0.86,-3.962c0.573,-1.246 1.482,-2.342 2.728,-3.289c1.246,-0.947 2.865,-1.707 4.859,-2.28c1.993,-0.573 4.435,-0.86 7.325,-0.86c5.282,0 9.144,1.071 11.586,3.214c2.442,2.143 3.787,5.108 4.036,8.895l-9.343,0Zm14.8,25.638l0,-36.775l9.717,0l0,36.775l-9.717,0Zm0,-41.185l0,-9.044l9.717,0l0,9.044l-9.717,0Zm41.26,36.252c-0.698,1.644 -1.956,2.928 -3.775,3.849c-1.819,0.922 -3.924,1.383 -6.316,1.383c-3.04,0 -5.594,-0.536 -7.662,-1.607c-2.068,-1.071 -3.737,-2.479 -5.008,-4.223c-1.271,-1.744 -2.193,-3.762 -2.766,-6.054c-0.573,-2.292 -0.86,-4.634 -0.86,-7.026c0,-2.84 0.424,-5.444 1.271,-7.811c0.847,-2.367 1.993,-4.385 3.438,-6.054c1.445,-1.669 3.139,-2.965 5.083,-3.887c1.943,-0.922 4.036,-1.383 6.279,-1.383c4.584,0 8.023,1.844 10.315,5.531l0,-4.56l9.717,0l0,37.149c0,2.791 -0.473,5.245 -1.42,7.363c-0.947,2.118 -2.242,3.887 -3.887,5.307c-1.644,1.42 -3.588,3.476 -5.83,4.223c-2.242,0.747 -4.634,1.121 -7.176,1.121c-2.541,0 -4.908,-0.361 -7.101,-1.084c-2.193,-0.723 -4.074,-2.716 -5.643,-4.036c-1.57,-1.321 -2.803,-2.928 -3.7,-4.821c-0.897,-1.894 -1.345,-4.036 -1.345,-6.428l9.044,0c0,2.242 0.735,3.974 2.205,5.195c1.47,1.221 3.426,1.831 5.868,1.831c2.591,0 4.784,-0.71 6.578,-2.13c1.794,-1.42 2.691,-3.351 2.691,-5.793l0,-6.054Zm-7.998,-2.392c2.392,0 4.373,-0.909 5.942,-2.728c1.57,-1.819 2.355,-4.298 2.355,-7.437c0,-7.873 -2.766,-11.81 -8.297,-11.81c-5.531,0 -8.297,3.737 -8.297,11.212c0,3.289 0.785,5.905 2.355,7.848c1.57,1.943 3.55,2.915 5.942,2.915Zm46.941,7.325l0,-22.274c0,-2.84 -0.473,-4.759 -1.42,-5.755c-0.947,-0.997 -2.566,-1.495 -4.859,-1.495c-5.033,0 -7.549,2.815 -7.549,8.446l0,21.079l-9.717,0l0,-36.775l9.269,0l0,5.382c1.146,-2.093 2.666,-3.675 4.56,-4.746c1.894,-1.071 4.335,-1.607 7.325,-1.607c1.744,0 3.364,0.262 4.859,0.785c1.495,0.523 2.778,1.308 3.849,2.355c1.071,1.046 1.918,2.33 2.541,3.849c0.623,1.52 0.934,3.276 0.934,5.27l0,25.489l-9.792,0Zm-203.759,76.316l0,-49.632l10.39,0l0,49.632l-10.39,0Zm40.513,0l0,-22.274c0,-2.84 -0.473,-4.759 -1.42,-5.755c-0.947,-0.997 -2.566,-1.495 -4.859,-1.495c-5.033,0 -7.549,2.815 -7.549,8.446l0,21.079l-9.717,0l0,-36.775l9.269,0l0,5.382c1.146,-2.093 2.666,-3.675 4.56,-4.746c1.894,-1.071 4.335,-1.607 7.325,-1.607c1.744,0 3.364,0.262 4.859,0.785c1.495,0.523 2.778,1.308 3.849,2.355c1.071,1.046 1.918,2.33 2.541,3.849c0.623,1.52 0.934,3.276 0.934,5.27l0,25.489l-9.792,0Zm37.822,0l0,-22.274c0,-2.84 -0.473,-4.759 -1.42,-5.755c-0.947,-0.997 -2.566,-1.495 -4.859,-1.495c-5.033,0 -7.549,2.815 -7.549,8.446l0,21.079l-9.717,0l0,-36.775l9.269,0l0,5.382c1.146,-2.093 2.666,-3.675 4.56,-4.746c1.894,-1.071 4.335,-1.607 7.325,-1.607c1.744,0 3.364,0.262 4.859,0.785c1.495,0.523 2.778,1.308 3.849,2.355c1.071,1.046 1.918,2.33 2.541,3.849c0.623,1.52 0.934,3.276 0.934,5.27l0,25.489l-9.792,0Zm36.402,-25.638c-0.249,-1.694 -0.885,-2.928 -1.906,-3.7c-1.022,-0.772 -2.579,-1.159 -4.672,-1.159c-1.993,0 -3.501,0.237 -4.522,0.71c-1.022,0.473 -1.532,1.283 -1.532,2.429c0,0.997 0.511,1.794 1.532,2.392c1.022,0.598 2.504,1.171 4.447,1.719c3.189,0.897 5.88,1.657 8.073,2.28c2.193,0.623 3.949,1.358 5.27,2.205c1.321,0.847 2.267,1.906 2.84,3.177c0.573,1.271 0.86,2.977 0.86,5.12c0,3.289 -1.37,6.017 -4.111,8.185c-2.741,2.168 -6.802,3.251 -12.184,3.251c-2.641,0 -5.033,-0.299 -7.176,-0.897c-2.143,-0.598 -3.974,-1.458 -5.494,-2.579c-1.52,-1.121 -2.691,-2.467 -3.513,-4.036c-0.822,-1.57 -1.258,-3.326 -1.308,-5.27l10.016,0c0,1.744 0.685,3.09 2.056,4.036c1.37,0.947 3.152,1.42 5.344,1.42c1.844,0 3.426,-0.287 4.746,-0.86c1.321,-0.573 1.981,-1.458 1.981,-2.654c0,-1.345 -0.486,-2.317 -1.458,-2.915c-0.972,-0.598 -2.454,-1.121 -4.447,-1.57c-3.588,-0.797 -6.478,-1.632 -8.671,-2.504c-2.193,-0.872 -3.899,-1.831 -5.12,-2.878c-1.221,-1.046 -2.043,-2.193 -2.467,-3.438c-0.424,-1.246 -0.635,-2.641 -0.635,-4.186c0,-1.395 0.287,-2.716 0.86,-3.962c0.573,-1.246 1.482,-2.342 2.728,-3.289c1.246,-0.947 2.865,-1.707 4.859,-2.28c1.993,-0.573 4.435,-0.86 7.325,-0.86c5.282,0 9.144,1.071 11.586,3.214c2.442,2.143 3.787,5.108 4.036,8.895l-9.343,0Zm74.448,25.638l0,-36.775l9.717,0l0,36.775l-9.717,0Zm0,-41.185l0,-9.044l9.717,0l0,9.044l-9.717,0Zm35.28,16.967l9.044,0l0,10.465c0,1.943 -0.287,3.8 -0.86,5.569c-0.573,1.769 -1.47,3.339 -2.691,4.709c-1.221,1.37 -2.766,2.454 -4.634,3.251c-1.869,0.797 -4.099,1.196 -6.69,1.196c-2.691,0 -4.983,-0.399 -6.877,-1.196c-1.894,-0.797 -3.451,-1.869 -4.672,-3.214c-1.221,-1.345 -2.105,-2.915 -2.654,-4.709c-0.548,-1.794 -0.822,-3.687 -0.822,-5.681l0,-32.889l9.568,0l0,9.941l20.331,0l0,6.877l-20.331,0l0,15.099c0,2.342 0.436,4.148 1.308,5.419c0.872,1.271 2.305,1.906 4.298,1.906c1.943,0 3.376,-0.623 4.298,-1.869c0.922,-1.246 1.383,-3.015 1.383,-5.307l0,-9.568Z" style="fill:#00ffcf;"/><path d="M274.209,109.728c0.149,2.791 0.959,5.008 2.429,6.652c1.47,1.644 3.401,2.467 5.793,2.467c1.595,0 3.002,-0.361 4.223,-1.084c1.221,-0.723 2.006,-1.732 2.355,-3.027l10.016,0c-1.146,3.787 -3.139,6.702 -5.98,8.745c-2.84,2.043 -6.229,3.065 -10.166,3.065c-2.791,0 -5.494,-0.448 -8.11,-1.345c-2.616,-0.897 -4.846,-2.516 -6.69,-4.859c-1.794,2.093 -3.849,3.65 -6.167,4.672c-2.317,1.022 -5.145,1.532 -8.484,1.532c-4.236,0 -7.338,-0.934 -9.306,-2.803c-1.968,-1.869 -2.952,-4.298 -2.952,-7.288c0,-2.641 0.424,-4.746 1.271,-6.316c0.847,-1.57 2.018,-2.803 3.513,-3.7c1.495,-0.897 3.276,-1.557 5.344,-1.981c2.068,-0.424 4.323,-0.81 6.765,-1.159c2.442,-0.349 4.086,-0.81 4.933,-1.383c0.847,-0.573 1.271,-1.507 1.271,-2.803c0,-1.196 -0.561,-2.13 -1.682,-2.803c-1.121,-0.673 -2.629,-1.009 -4.522,-1.009c-2.242,0 -3.849,0.498 -4.821,1.495c-0.972,0.997 -1.582,2.317 -1.831,3.962l-9.044,0c0.05,-1.894 0.361,-3.638 0.934,-5.232c0.573,-1.595 1.495,-2.965 2.766,-4.111c1.271,-1.146 2.928,-2.031 4.971,-2.654c2.043,-0.623 4.535,-0.934 7.475,-0.934c2.89,0 5.319,0.311 7.288,0.934c1.968,0.623 3.575,1.557 4.821,2.803c3.09,-2.492 6.976,-3.737 11.66,-3.737c5.681,0 9.979,1.819 12.894,5.457c2.915,3.638 4.373,9.119 4.373,16.444l-25.339,0Zm-9.717,-2.168c-0.498,0.498 -1.221,0.897 -2.168,1.196c-0.947,0.299 -2.317,0.623 -4.111,0.972c-2.791,0.548 -4.709,1.246 -5.755,2.093c-1.046,0.847 -1.57,2.068 -1.57,3.663c0,2.741 1.57,4.111 4.709,4.111c1.246,0 2.404,-0.212 3.476,-0.635c1.071,-0.424 1.993,-0.997 2.766,-1.719c0.772,-0.723 1.395,-1.57 1.869,-2.541c0.473,-0.972 0.71,-2.006 0.71,-3.102l0.075,-4.036Zm25.04,-3.962c-0.05,-1.345 -0.287,-2.529 -0.71,-3.55c-0.424,-1.022 -0.984,-1.869 -1.682,-2.541c-0.698,-0.673 -1.495,-1.171 -2.392,-1.495c-0.897,-0.324 -1.819,-0.486 -2.766,-0.486c-1.943,0 -3.625,0.71 -5.045,2.13c-1.42,1.42 -2.23,3.401 -2.429,5.942l15.024,0Z" style="fill:#efe6ea;fill-rule:nonzero;"/><path d="M61.33,33.715c3.179,0.972 6.217,2.27 9.074,3.854l0,-36.972l12.255,0c6.759,0 12.238,5.479 12.238,12.238l0,113.71l-12.24,0c-4.764,-0 -8.892,-2.718 -10.92,-6.688c-7.105,4.247 -15.414,6.688 -24.289,6.688c-26.188,0 -47.448,-21.261 -47.448,-47.448c0,-21.508 14.341,-39.692 33.978,-45.506c-8.254,15.246 -17.196,34.329 -17.196,45.436c0,17.02 13.818,30.839 30.839,30.839c17.02,0 30.839,-13.818 30.839,-30.839c0,-11.076 -8.893,-30.084 -17.129,-45.313Z" style="fill:#00ffcf;"/><path d="M42.061,34.906c1.128,-2.041 3.276,-3.308 5.607,-3.308c2.332,-0 4.479,1.267 5.607,3.308c6.796,12.302 17.348,33.169 17.348,44.128c0,12.669 -10.286,22.955 -22.955,22.955c-12.669,0 -22.955,-10.286 -22.955,-22.955c0,-10.96 10.552,-31.826 17.348,-44.128Zm5.607,28.455c-8.685,0 -15.737,7.051 -15.737,15.737c0,8.685 7.051,15.737 15.737,15.737c8.685,0 15.737,-7.051 15.737,-15.737c0,-8.685 -7.051,-15.737 -15.737,-15.737Z" style="fill:#00ffcf;"/><circle cx="47.669" cy="79.098" r="7.909" style="fill:#00ffcf;"/></g></svg>