<?xml version="1.0" encoding="UTF-8" standalone="no"?><!DOCTYPE svg PUBLIC "-//W3C//DTD SVG 1.1//EN" "http://www.w3.org/Graphics/SVG/1.1/DTD/svg11.dtd"><svg width="100%" height="100%" viewBox="0 0 2092 2093" version="1.1" xmlns="http://www.w3.org/2000/svg" xmlns:xlink="http://www.w3.org/1999/xlink" xml:space="preserve" xmlns:serif="http://www.serif.com/" style="fill-rule:evenodd;clip-rule:evenodd;stroke-linejoin:round;stroke-miterlimit:2;"><rect id="Avarta-LogoMark" serif:id="Avarta LogoMark" x="0.16" y="0.773" width="2091.52" height="2091.52" style="fill:none;"/><g><path d="M314.327,1242.56c108.192,403.778 523.846,643.757 927.624,535.565c403.778,-108.192 643.757,-523.847 535.565,-927.625c-108.192,-403.778 -523.847,-643.757 -927.625,-535.565c-403.778,108.192 -643.756,523.847 -535.564,927.625Z" style="fill:none;"/><clipPath id="_clip1"><path d="M314.327,1242.56c108.192,403.778 523.846,643.757 927.624,535.565c403.778,-108.192 643.757,-523.847 535.565,-927.625c-108.192,-403.778 -523.847,-643.757 -927.625,-535.565c-403.778,108.192 -643.756,523.847 -535.564,927.625Z"/></clipPath><g clip-path="url(#_clip1)"><path d="M1211.46,1041.66c-1.426,-4.755 -3.046,-9.023 -4.789,-12.743c37.788,4.897 70.208,49.636 87.06,82.206c54.389,105.116 18.9,246.756 -41.497,342.301c-87.293,138.084 -237.352,205.534 -383.071,263.714c-36.835,21.53 -6.071,63.917 13.402,86.321c23.845,27.439 49.927,44.873 77.545,66.859c2.197,1.752 6.734,2.804 2.88,5.622c-93.471,-14.046 -183.798,-35.773 -269.789,-76.275c-67.177,-31.64 -133.358,-74.775 -192.725,-125.86c-14.291,-12.297 -28.186,-25.055 -41.606,-38.224c-45.269,-44.423 -85.121,-93.527 -116.439,-145.413c-4.544,-7.528 -8.545,-12.164 -10.721,-17.563c-1.816,-4.508 -2.361,-9.549 -0.885,-17.249c7.057,-36.838 -12.431,-199.893 -22.098,-171.827c-11.839,34.369 -13.897,65.674 -19.128,100.585c-0.296,1.962 0.293,4.759 -0.871,5.556c-0.485,0.332 -1.274,0.316 -2.558,-0.251c-11.83,-30.101 -22.696,-60.334 -32.191,-90.878c-18.254,-58.72 -31.438,-118.593 -36.648,-180.903c-3.79,-45.329 -3.658,-92.491 0.36,-139.92c1.377,-3.802 3.875,-7.561 8.494,-11.985c36.996,-35.44 64.258,-18.588 86.495,19.762c23.991,41.378 40.387,92.14 62.952,135.125c48.964,93.259 129.197,176.42 216.331,234.703c152.328,101.891 445.91,107.798 563.604,-51.767c80.081,-104.845 81.029,-199.612 55.893,-261.896Zm409.946,522.981c35.663,-7.045 63.758,-21.005 96.567,-34.034c2.612,-1.035 5.781,-4.448 6.309,0.297c-58.664,74.112 -122.43,141.677 -200.328,196.144c-124.92,87.344 -289.775,146.968 -442.942,150.436c-16.131,0.364 -22.904,3.987 -35.974,-7.242c-38.862,-33.382 -24.735,-62.15 11.276,-88.004c38.855,-27.893 87.787,-49.137 128.379,-75.766c88.068,-57.782 163.051,-145.706 212.604,-238.084c90.857,-169.377 51.81,-463.947 -132.189,-569.401c-168.271,-96.44 -285.391,-25.635 -315.237,17.448c-14.765,-35.127 7.61,-85.645 27.292,-116.587c63.521,-99.862 203.802,-140.394 316.759,-136.219c163.25,6.036 296.999,101.841 420.551,198.556c37.13,21.017 58.304,-26.887 67.882,-54.983c11.73,-34.407 13.688,-65.718 18.809,-100.646c0.41,-2.78 -0.962,-7.231 3.412,-5.316c34.85,87.862 61.48,176.866 69.701,271.562c13.183,151.856 -17.609,324.437 -91.19,458.817c-7.749,14.151 -7.998,21.829 -24.258,27.534c-35.391,12.42 -166.544,111.242 -137.423,105.488Zm-572.978,-355.316c-9.028,36.634 -55.956,64.386 -89.603,78.036c-109.67,44.496 -247.449,-3.863 -337.036,-72.788c-129.475,-99.616 -182.846,-255.24 -227.384,-405.691c-18.052,-38.658 -63.088,-11.92 -87.188,5.41c-29.514,21.222 -49.272,45.591 -73.704,71.071c-1.946,2.027 -3.411,6.448 -5.863,2.351c16.925,-68.801 37.986,-135.446 67.788,-199.005c7.835,-16.711 16.275,-33.208 25.403,-49.476c2.47,-4.401 4.99,-8.786 7.562,-13.154c17.376,-29.503 37.165,-58.571 58.97,-86.668c25.484,-32.836 53.72,-64.345 84.074,-93.671c7.352,-7.104 14.829,-14.079 22.42,-20.914c6.409,-5.77 12.899,-11.44 19.466,-17.002c48.397,-40.994 100.957,-76.164 155.502,-102.579c7.914,-3.832 12.898,-7.391 18.474,-9.061c0.099,-0.03 0.199,-0.059 0.299,-0.087c4.575,-1.31 9.587,-1.339 16.959,0.792c36.032,10.413 200.189,5.996 173.13,-6.21c-33.135,-14.948 -64.119,-19.875 -98.401,-28.294c-1.926,-0.474 -4.766,-0.145 -5.452,-1.377c-0.136,-0.245 -0.187,-0.55 -0.13,-0.936c0.063,-0.425 0.257,-0.946 0.615,-1.589c9.777,-2.836 19.557,-5.577 29.347,-8.208c21.312,-5.728 42.665,-10.937 64.105,-15.492c7.743,-1.645 15.497,-3.204 23.265,-4.672c3.927,0.364 8.124,1.778 13.458,4.948c44.045,26.167 35.099,56.944 4.095,88.63c-33.453,34.185 -77.979,63.561 -113.362,96.802c-76.762,72.126 -135.431,171.68 -168.283,271.229c-60.233,182.525 22.827,486.521 228.558,538.008c1.995,0.5 4.004,0.975 6.026,1.426c67.326,22.975 134.756,4.04 140.671,1.433c24.751,-10.909 36.324,-15.856 46.219,-23.262Zm-33.526,-995.751c94.514,1.16 186.96,10.359 277.673,38.749c145.469,45.527 293.394,139.605 389.72,258.741c10.144,12.547 17.151,15.695 16.247,32.903c-2.682,51.16 -34.089,57.553 -76.558,44.842c-45.82,-13.718 -59.696,-20.295 -105.578,-36.16c-99.551,-34.415 -214.968,-40.056 -318.375,-22.843c-189.598,31.559 -452.932,227.284 -402.838,433.359c12.393,50.987 42.901,103.01 93.882,122.759c-38.103,0.306 -76.324,-39.591 -97.463,-69.558c-68.223,-96.71 -52.392,-241.869 -5.597,-344.761c67.635,-148.703 207.087,-235.998 343.505,-313.517c33.553,-26.355 -2.708,-64.148 -25.055,-83.685c-27.366,-23.928 -55.583,-37.641 -85.943,-55.653c-2.416,-1.436 -7.054,-1.859 -3.62,-5.176Z" style="fill:#fff;"/></g></g></svg>