<?xml version="1.0" encoding="UTF-8" standalone="no"?><!DOCTYPE svg PUBLIC "-//W3C//DTD SVG 1.1//EN" "http://www.w3.org/Graphics/SVG/1.1/DTD/svg11.dtd"><svg width="100%" height="100%" viewBox="0 0 601 208" version="1.1" xmlns="http://www.w3.org/2000/svg" xmlns:xlink="http://www.w3.org/1999/xlink" xml:space="preserve" xmlns:serif="http://www.serif.com/" style="fill-rule:evenodd;clip-rule:evenodd;stroke-linejoin:round;stroke-miterlimit:2;"><rect id="White-Wordmark-TINY" serif:id="White Wordmark TINY" x="0.175" y="0.213" width="600" height="206.752" style="fill:none;"/><g><path d="M129.208,64.048c-0.318,0.585 -0.791,1.179 -1.377,1.778c-2.338,2.39 -5.451,4.443 -7.925,6.767c-5.367,5.043 -9.469,12.003 -11.766,18.963c-4.211,12.761 1.596,34.015 15.98,37.614c0.139,0.035 0.28,0.068 0.421,0.1c4.707,1.606 9.421,0.282 9.835,0.1c1.73,-0.763 2.54,-1.108 3.231,-1.626c-0.631,2.561 -3.912,4.501 -6.264,5.456c-7.668,3.11 -17.3,-0.271 -23.564,-5.089c-9.052,-6.965 -12.783,-17.845 -15.897,-28.364c-0.928,-1.988 -2.878,-1.502 -4.514,-0.624c5.552,-16.064 18.72,-29.183 36.359,-33.909c1.825,-0.489 3.655,-0.877 5.481,-1.166Zm-44.388,46.24c0.479,0.463 0.927,1.08 1.348,1.807c1.678,2.893 2.824,6.442 4.402,9.447c3.423,6.52 9.032,12.334 15.124,16.409c10.65,7.124 31.175,7.537 39.404,-3.619c5.599,-7.33 5.665,-13.956 3.907,-18.31c-0.099,-0.333 -0.212,-0.631 -0.334,-0.891c2.642,0.342 4.908,3.47 6.086,5.747c3.803,7.349 1.322,17.252 -2.901,23.932c-6.103,9.654 -16.594,14.369 -26.782,18.437c-1.897,1.109 -1.229,3.01 -0.201,4.56c-18.162,-4.458 -33.412,-18.415 -38.59,-37.739c-1.78,-6.644 -2.212,-13.335 -1.463,-19.78Zm95.107,-25.534c-0.667,-0.009 -1.415,-0.152 -2.22,-0.393c-3.204,-0.959 -4.174,-1.419 -7.382,-2.528c-6.96,-2.406 -15.029,-2.8 -22.258,-1.597c-13.256,2.206 -31.667,15.89 -28.164,30.298c0.866,3.564 2.999,7.202 6.563,8.582c-2.664,0.022 -5.336,-2.768 -6.814,-4.863c-4.769,-6.761 -3.663,-16.91 -0.391,-24.103c4.729,-10.397 14.478,-16.5 24.016,-21.919c1.731,-1.361 0.803,-3.156 -0.43,-4.553c14.733,1.523 28.243,9.212 37.08,21.076Zm-43.437,84.563c0.415,-0.523 0.985,-1.028 1.669,-1.519c2.716,-1.95 6.137,-3.435 8.975,-5.297c6.157,-4.04 11.4,-10.187 14.864,-16.645c6.352,-11.842 3.622,-32.436 -9.242,-39.809c-11.764,-6.743 -19.953,-1.792 -22.039,1.22c-1.032,-2.456 0.532,-5.988 1.908,-8.151c4.441,-6.982 14.248,-9.816 22.146,-9.524c11.413,0.422 20.764,7.12 29.402,13.882c1.912,1.082 3.218,-0.449 4.042,-2.116c0.127,0.43 0.249,0.864 0.365,1.299c7.565,28.23 -9.213,57.29 -37.443,64.854c-4.896,1.312 -9.817,1.892 -14.647,1.806Z" style="fill:#fff;"/><g><g><g><path d="M293.848,78.934l-13.231,41.497l-13.231,-41.497l-10.826,0l18.043,51.12l11.627,0l17.942,-51.12l-10.324,0Z" style="fill:#fff;"/><path d="M382.538,78.934l-22.619,0l-5.648,5.648l0,45.472l9.924,0l-0,-41.912c5.498,-0 4.61,0.014 13.13,0.014l5.213,-0l-0,-9.222Z" style="fill:#fff;"/><path d="M409.334,88.142l0,-9.208l-11.226,0l-0,-13.632l-10.024,0l0,13.632l8.931,9.208l-8.931,-0l0,28.881c0,8.821 2.707,13.031 12.129,13.031l9.121,0l0,-7.618l-6.114,0c-4.31,0 -5.112,-1.403 -5.112,-6.114l-0,-28.18l11.226,-0Z" style="fill:#fff;"/><path d="M429.424,131.257c9.622,-0 14.935,-4.711 16.739,-10.324l0,9.121l9.522,0l0,-45.446l-5.672,-5.666c-9.486,0.012 -28.017,0.036 -33.005,0.036l0,5.451l3.713,3.713l24.869,-0c0,-0 0,2.908 0,3.522c0,4.21 -5.441,5.212 -13.46,7.417c-12.529,3.308 -20.448,6.215 -20.448,16.539c0,10.024 7.819,15.637 17.742,15.637Zm2.806,-7.217c-5.813,-0 -10.123,-3.107 -10.123,-8.721c-0,-6.114 5.212,-8.419 13.131,-10.624c5.913,-1.704 9.522,-3.308 10.725,-6.215l-0,9.522c-0,8.52 -5.012,16.038 -13.733,16.038Z" style="fill:#fff;"/><path d="M321.822,131.257c9.623,-0 14.935,-4.711 16.739,-10.324l0,9.121l9.523,0l-0,-45.446l-5.673,-5.666c-9.486,0.012 -28.017,0.036 -33.005,0.036c0,-0 0,2.91 0,5.451l3.714,3.713l24.868,-0c0,-0 0,2.908 0,3.522c0,4.21 -5.441,5.212 -13.46,7.417c-12.529,3.308 -20.448,6.215 -20.448,16.539c0,10.024 7.819,15.637 17.742,15.637Zm2.807,-7.217c-5.814,-0 -10.124,-3.107 -10.124,-8.721c-0,-6.114 5.212,-8.419 13.131,-10.624c5.914,-1.704 9.522,-3.308 10.725,-6.215l-0,9.522c-0,8.52 -5.012,16.038 -13.732,16.038Z" style="fill:#fff;"/><path d="M228.371,131.257c9.623,-0 14.935,-4.711 16.74,-10.324l-0,9.121l9.522,0c-0,0 -0,-42.561 -0,-45.446l-5.673,-5.666c-9.485,0.012 -28.017,0.036 -33.004,0.036l-0,5.451l3.713,3.713l24.869,-0c-0,-0 -0,2.908 -0,3.522c-0,4.21 -5.442,5.212 -13.46,7.417c-12.53,3.308 -20.448,6.215 -20.448,16.539c-0,10.024 7.818,15.637 17.741,15.637Zm2.807,-7.217c-5.814,-0 -10.124,-3.107 -10.124,-8.721c0,-6.114 5.212,-8.419 13.131,-10.624c5.914,-1.704 9.522,-3.308 10.725,-6.215l0,9.522c0,8.52 -5.012,16.038 -13.732,16.038Z" style="fill:#fff;"/></g><g><rect x="212.213" y="143.504" width="1.651" height="17.481" style="fill:#fff;fill-rule:nonzero;"/><path d="M216.51,143.504l12.722,0l0,1.408l-5.535,0l-0,16.073l-1.651,0l-0,-16.073l-5.536,0l0,-1.408Z" style="fill:#fff;fill-rule:nonzero;"/><path d="M245.767,154.381c-0.615,0.259 -1.239,0.429 -1.87,0.51c-0.631,0.081 -1.262,0.146 -1.894,0.194c-1.117,0.081 -1.987,0.332 -2.61,0.753c-0.623,0.421 -0.934,1.06 -0.934,1.918c-0,0.389 0.076,0.724 0.23,1.008c0.154,0.283 0.356,0.518 0.607,0.704c0.251,0.186 0.542,0.323 0.874,0.412c0.332,0.09 0.668,0.134 1.008,0.134c0.583,0 1.149,-0.073 1.699,-0.218c0.551,-0.146 1.04,-0.369 1.469,-0.668c0.429,-0.3 0.773,-0.68 1.032,-1.141c0.259,-0.462 0.389,-1.008 0.389,-1.639l-0,-1.967Zm-2.453,-0.728c0.276,-0.033 0.603,-0.081 0.984,-0.146c0.38,-0.065 0.692,-0.154 0.934,-0.267c0.243,-0.113 0.393,-0.303 0.45,-0.57c0.056,-0.268 0.085,-0.514 0.085,-0.741c-0,-0.745 -0.239,-1.356 -0.717,-1.833c-0.477,-0.478 -1.282,-0.716 -2.415,-0.716c-0.502,-0 -0.963,0.044 -1.384,0.133c-0.421,0.089 -0.789,0.243 -1.105,0.462c-0.316,0.218 -0.575,0.509 -0.777,0.874c-0.202,0.364 -0.336,0.821 -0.401,1.371l-1.481,0c0.049,-0.744 0.219,-1.38 0.51,-1.906c0.292,-0.526 0.668,-0.955 1.129,-1.286c0.462,-0.332 0.996,-0.575 1.603,-0.729c0.607,-0.154 1.25,-0.23 1.93,-0.23c0.631,-0 1.226,0.068 1.784,0.206c0.559,0.138 1.044,0.356 1.457,0.656c0.413,0.299 0.737,0.7 0.971,1.201c0.235,0.502 0.352,1.117 0.352,1.846l0,6.846c0,0.567 0.102,0.927 0.304,1.081c0.202,0.154 0.611,0.117 1.226,-0.109l-0,1.141c-0.113,0.032 -0.279,0.081 -0.498,0.145c-0.218,0.065 -0.433,0.097 -0.643,0.097c-0.227,0 -0.445,-0.024 -0.656,-0.072c-0.242,-0.033 -0.437,-0.11 -0.582,-0.231c-0.146,-0.121 -0.263,-0.267 -0.352,-0.437c-0.089,-0.17 -0.15,-0.356 -0.183,-0.559c-0.032,-0.202 -0.048,-0.416 -0.048,-0.643c-0.615,0.68 -1.319,1.198 -2.112,1.554c-0.794,0.356 -1.651,0.534 -2.574,0.534c-0.55,0 -1.08,-0.073 -1.59,-0.218c-0.51,-0.146 -0.959,-0.373 -1.348,-0.68c-0.388,-0.308 -0.696,-0.684 -0.922,-1.129c-0.227,-0.445 -0.34,-0.975 -0.34,-1.591c-0,-2.136 1.465,-3.399 4.394,-3.787l2.015,-0.267Z" style="fill:#fff;fill-rule:nonzero;"/><path d="M252.201,160.985l-1.457,0l-0,-12.576l1.457,-0l-0,1.748c0.582,-0.615 1.185,-1.117 1.808,-1.506c0.624,-0.388 1.372,-0.582 2.246,-0.582c0.777,-0 1.497,0.133 2.161,0.4c0.664,0.267 1.222,0.733 1.675,1.396c0.308,0.453 0.49,0.919 0.547,1.396c0.056,0.478 0.085,0.976 0.085,1.494l-0,8.23l-1.457,0l-0,-8.206c-0,-1.133 -0.251,-1.983 -0.753,-2.55c-0.502,-0.566 -1.335,-0.849 -2.501,-0.849c-0.453,-0 -0.865,0.068 -1.238,0.206c-0.372,0.138 -0.708,0.32 -1.007,0.546c-0.3,0.227 -0.555,0.486 -0.765,0.777c-0.211,0.292 -0.372,0.599 -0.486,0.923c-0.145,0.405 -0.234,0.793 -0.267,1.165c-0.032,0.373 -0.048,0.777 -0.048,1.214l-0,6.774Z" style="fill:#fff;fill-rule:nonzero;"/><path d="M273.664,154.648c-0,-0.712 -0.098,-1.388 -0.292,-2.027c-0.194,-0.639 -0.473,-1.198 -0.837,-1.675c-0.365,-0.478 -0.81,-0.858 -1.336,-1.141c-0.526,-0.284 -1.121,-0.425 -1.784,-0.425c-0.761,-0 -1.417,0.149 -1.967,0.449c-0.55,0.299 -1.004,0.708 -1.36,1.226c-0.356,0.518 -0.615,1.121 -0.777,1.809c-0.161,0.688 -0.226,1.428 -0.194,2.221c0,0.793 0.109,1.493 0.328,2.1c0.219,0.607 0.522,1.121 0.91,1.542c0.389,0.421 0.842,0.741 1.36,0.959c0.518,0.219 1.085,0.328 1.7,0.328c0.679,0 1.286,-0.138 1.821,-0.413c0.534,-0.275 0.979,-0.651 1.335,-1.129c0.356,-0.477 0.627,-1.044 0.813,-1.699c0.186,-0.656 0.28,-1.364 0.28,-2.125Zm-0,-11.144l1.456,0l0,17.481l-1.456,0l-0,-2.209l-0.049,-0c-0.21,0.421 -0.482,0.789 -0.813,1.104c-0.332,0.316 -0.696,0.579 -1.093,0.79c-0.397,0.21 -0.805,0.372 -1.226,0.485c-0.421,0.113 -0.834,0.17 -1.238,0.17c-1.02,0 -1.886,-0.17 -2.598,-0.51c-0.712,-0.34 -1.299,-0.805 -1.76,-1.396c-0.462,-0.591 -0.798,-1.291 -1.008,-2.1c-0.21,-0.809 -0.316,-1.675 -0.316,-2.598c0,-0.874 0.114,-1.716 0.34,-2.525c0.227,-0.809 0.571,-1.517 1.032,-2.124c0.461,-0.607 1.044,-1.093 1.748,-1.457c0.704,-0.364 1.534,-0.546 2.489,-0.546c0.89,-0 1.744,0.198 2.561,0.594c0.818,0.397 1.461,0.984 1.931,1.761l-0,-6.92Z" style="fill:#fff;fill-rule:nonzero;"/><path d="M285.172,160.985l-0,-17.481l5.973,0c0.485,0 0.963,0.012 1.432,0.037c0.47,0.024 0.931,0.08 1.384,0.169c0.453,0.089 0.894,0.223 1.323,0.401c0.429,0.178 0.846,0.413 1.251,0.704c0.582,0.421 1.06,0.935 1.432,1.542c0.372,0.607 0.668,1.246 0.886,1.918c0.219,0.672 0.373,1.352 0.462,2.039c0.089,0.688 0.133,1.324 0.133,1.906c0,0.583 -0.036,1.174 -0.109,1.773c-0.073,0.599 -0.19,1.185 -0.352,1.76c-0.162,0.575 -0.376,1.125 -0.644,1.651c-0.267,0.526 -0.602,1.008 -1.007,1.445c-0.405,0.453 -0.846,0.817 -1.323,1.092c-0.478,0.275 -0.98,0.49 -1.506,0.644c-0.526,0.153 -1.072,0.259 -1.639,0.315c-0.566,0.057 -1.141,0.085 -1.723,0.085l-5.973,0Zm1.651,-1.408l3.957,-0c0.745,-0 1.445,-0.045 2.101,-0.134c0.655,-0.089 1.323,-0.311 2.003,-0.667c0.582,-0.292 1.06,-0.688 1.432,-1.19c0.372,-0.502 0.668,-1.048 0.886,-1.639c0.219,-0.591 0.373,-1.21 0.462,-1.857c0.089,-0.648 0.133,-1.271 0.133,-1.87c0,-0.631 -0.04,-1.274 -0.121,-1.93c-0.081,-0.655 -0.235,-1.279 -0.462,-1.869c-0.226,-0.591 -0.534,-1.133 -0.922,-1.627c-0.389,-0.494 -0.89,-0.902 -1.505,-1.226c-0.518,-0.275 -1.134,-0.453 -1.846,-0.534c-0.712,-0.081 -1.432,-0.122 -2.161,-0.122l-3.957,0l-0,14.665Z" style="fill:#fff;fill-rule:nonzero;"/><path d="M311.296,153.823c0,-0.615 -0.085,-1.194 -0.254,-1.736c-0.17,-0.542 -0.421,-1.012 -0.753,-1.408c-0.332,-0.397 -0.749,-0.713 -1.251,-0.947c-0.501,-0.235 -1.076,-0.352 -1.723,-0.352c-0.648,-0 -1.218,0.121 -1.712,0.364c-0.494,0.243 -0.915,0.566 -1.263,0.971c-0.348,0.405 -0.627,0.874 -0.837,1.408c-0.211,0.534 -0.348,1.101 -0.413,1.7l8.206,-0Zm-8.206,1.214c0,0.68 0.089,1.323 0.267,1.93c0.178,0.607 0.441,1.133 0.789,1.578c0.348,0.445 0.789,0.801 1.323,1.068c0.535,0.267 1.15,0.401 1.846,0.401c0.955,0 1.772,-0.251 2.452,-0.753c0.68,-0.501 1.133,-1.214 1.36,-2.136l1.626,-0c-0.178,0.599 -0.413,1.153 -0.704,1.663c-0.291,0.51 -0.655,0.955 -1.092,1.335c-0.437,0.381 -0.955,0.676 -1.554,0.886c-0.599,0.211 -1.295,0.316 -2.088,0.316c-1.004,0 -1.87,-0.17 -2.598,-0.51c-0.729,-0.34 -1.328,-0.805 -1.797,-1.396c-0.469,-0.591 -0.817,-1.287 -1.044,-2.088c-0.227,-0.801 -0.34,-1.663 -0.34,-2.586c0,-0.922 0.134,-1.788 0.401,-2.597c0.267,-0.81 0.647,-1.518 1.141,-2.125c0.494,-0.607 1.097,-1.084 1.809,-1.432c0.712,-0.348 1.521,-0.522 2.428,-0.522c1.732,-0 3.091,0.594 4.079,1.784c0.987,1.19 1.473,2.918 1.456,5.184l-9.76,-0Z" style="fill:#fff;fill-rule:nonzero;"/><path d="M316.249,157.052c0.227,1.084 0.636,1.849 1.227,2.294c0.59,0.445 1.436,0.668 2.537,0.668c0.534,0 0.995,-0.065 1.384,-0.194c0.388,-0.13 0.708,-0.304 0.959,-0.522c0.251,-0.219 0.441,-0.466 0.57,-0.741c0.13,-0.275 0.194,-0.566 0.194,-0.874c0,-0.615 -0.198,-1.072 -0.594,-1.372c-0.397,-0.299 -0.895,-0.534 -1.494,-0.704c-0.598,-0.17 -1.246,-0.315 -1.942,-0.437c-0.696,-0.121 -1.343,-0.303 -1.942,-0.546c-0.599,-0.243 -1.097,-0.591 -1.493,-1.044c-0.397,-0.453 -0.595,-1.093 -0.595,-1.918c-0,-1.052 0.384,-1.914 1.153,-2.586c0.769,-0.672 1.857,-1.007 3.266,-1.007c1.359,-0 2.464,0.303 3.314,0.91c0.849,0.607 1.363,1.623 1.541,3.047l-1.481,0c-0.129,-0.971 -0.497,-1.655 -1.104,-2.051c-0.607,-0.397 -1.372,-0.595 -2.295,-0.595c-0.922,-0 -1.626,0.198 -2.112,0.595c-0.486,0.396 -0.728,0.918 -0.728,1.566c-0,0.566 0.198,0.999 0.594,1.298c0.397,0.3 0.895,0.543 1.494,0.729c0.599,0.186 1.246,0.352 1.942,0.498c0.696,0.145 1.343,0.352 1.942,0.619c0.599,0.267 1.097,0.627 1.494,1.08c0.396,0.453 0.594,1.085 0.594,1.894c0,0.599 -0.129,1.129 -0.388,1.59c-0.259,0.462 -0.615,0.846 -1.068,1.153c-0.454,0.308 -0.992,0.539 -1.615,0.692c-0.623,0.154 -1.307,0.231 -2.052,0.231c-0.744,0 -1.404,-0.109 -1.978,-0.328c-0.575,-0.218 -1.065,-0.522 -1.469,-0.91c-0.405,-0.389 -0.721,-0.842 -0.947,-1.36c-0.227,-0.518 -0.356,-1.076 -0.389,-1.675l1.481,-0Z" style="fill:#fff;fill-rule:nonzero;"/><path d="M327.466,160.985l0,-12.576l1.457,-0l0,12.576l-1.457,0Zm-0.072,-15.32l-0,-2.161l1.602,0l0,2.161l-1.602,-0Z" style="fill:#fff;fill-rule:nonzero;"/><path d="M342.058,154.745c0,-0.76 -0.093,-1.468 -0.279,-2.124c-0.186,-0.656 -0.457,-1.222 -0.813,-1.7c-0.356,-0.477 -0.801,-0.853 -1.336,-1.129c-0.534,-0.275 -1.141,-0.412 -1.821,-0.412c-0.615,-0 -1.181,0.109 -1.699,0.327c-0.518,0.219 -0.971,0.539 -1.36,0.959c-0.388,0.421 -0.692,0.935 -0.91,1.542c-0.219,0.607 -0.328,1.307 -0.328,2.1c-0.032,0.794 0.032,1.534 0.194,2.222c0.162,0.688 0.421,1.291 0.777,1.809c0.356,0.518 0.81,0.926 1.36,1.226c0.55,0.299 1.206,0.449 1.966,0.449c0.664,0 1.259,-0.142 1.785,-0.425c0.526,-0.283 0.971,-0.664 1.335,-1.141c0.365,-0.477 0.644,-1.036 0.838,-1.675c0.194,-0.64 0.291,-1.315 0.291,-2.028Zm0,-6.336l1.457,-0l0,11.362c0,0.842 -0.085,1.647 -0.255,2.416c-0.17,0.769 -0.473,1.445 -0.91,2.027c-0.437,0.583 -1.036,1.048 -1.797,1.396c-0.761,0.348 -1.74,0.522 -2.938,0.522c-0.922,0 -1.716,-0.117 -2.379,-0.352c-0.664,-0.234 -1.206,-0.53 -1.627,-0.886c-0.421,-0.356 -0.74,-0.748 -0.959,-1.177c-0.218,-0.429 -0.336,-0.83 -0.352,-1.202l1.554,-0c0.113,0.469 0.291,0.854 0.534,1.153c0.243,0.3 0.53,0.534 0.862,0.704c0.332,0.17 0.7,0.287 1.105,0.352c0.404,0.065 0.825,0.097 1.262,0.097c0.988,0 1.781,-0.17 2.38,-0.51c0.598,-0.339 1.052,-0.785 1.359,-1.335c0.308,-0.55 0.506,-1.173 0.595,-1.869c0.089,-0.696 0.126,-1.409 0.109,-2.137c-0.469,0.777 -1.112,1.364 -1.93,1.76c-0.817,0.397 -1.671,0.595 -2.561,0.595c-0.955,0 -1.785,-0.182 -2.489,-0.546c-0.704,-0.364 -1.287,-0.85 -1.748,-1.457c-0.461,-0.607 -0.805,-1.315 -1.032,-2.124c-0.227,-0.81 -0.34,-1.651 -0.34,-2.525c0,-0.923 0.105,-1.789 0.316,-2.598c0.21,-0.81 0.546,-1.51 1.007,-2.1c0.462,-0.591 1.048,-1.057 1.761,-1.397c0.712,-0.339 1.578,-0.509 2.598,-0.509c0.404,-0 0.817,0.056 1.238,0.17c0.421,0.113 0.829,0.275 1.226,0.485c0.396,0.211 0.761,0.478 1.092,0.801c0.332,0.324 0.603,0.688 0.814,1.093l0.048,-0l0,-2.209Z" style="fill:#fff;fill-rule:nonzero;"/><path d="M348.347,160.985l-1.457,0l-0,-12.576l1.457,-0l-0,1.748c0.582,-0.615 1.185,-1.117 1.808,-1.506c0.624,-0.388 1.372,-0.582 2.246,-0.582c0.777,-0 1.498,0.133 2.161,0.4c0.664,0.267 1.222,0.733 1.675,1.396c0.308,0.453 0.49,0.919 0.547,1.396c0.056,0.478 0.085,0.976 0.085,1.494l-0,8.23l-1.457,0l-0,-8.206c-0,-1.133 -0.251,-1.983 -0.753,-2.55c-0.501,-0.566 -1.335,-0.849 -2.5,-0.849c-0.454,-0 -0.866,0.068 -1.239,0.206c-0.372,0.138 -0.708,0.32 -1.007,0.546c-0.3,0.227 -0.555,0.486 -0.765,0.777c-0.211,0.292 -0.372,0.599 -0.486,0.923c-0.145,0.405 -0.234,0.793 -0.267,1.165c-0.032,0.373 -0.048,0.777 -0.048,1.214l-0,6.774Z" style="fill:#fff;fill-rule:nonzero;"/><path d="M367.406,157.052c0.227,1.084 0.635,1.849 1.226,2.294c0.591,0.445 1.437,0.668 2.537,0.668c0.534,0 0.996,-0.065 1.384,-0.194c0.389,-0.13 0.708,-0.304 0.959,-0.522c0.251,-0.219 0.441,-0.466 0.571,-0.741c0.129,-0.275 0.194,-0.566 0.194,-0.874c-0,-0.615 -0.198,-1.072 -0.595,-1.372c-0.396,-0.299 -0.894,-0.534 -1.493,-0.704c-0.599,-0.17 -1.246,-0.315 -1.942,-0.437c-0.696,-0.121 -1.344,-0.303 -1.943,-0.546c-0.599,-0.243 -1.096,-0.591 -1.493,-1.044c-0.396,-0.453 -0.595,-1.093 -0.595,-1.918c0,-1.052 0.385,-1.914 1.154,-2.586c0.768,-0.672 1.857,-1.007 3.265,-1.007c1.36,-0 2.464,0.303 3.314,0.91c0.85,0.607 1.364,1.623 1.542,3.047l-1.481,0c-0.13,-0.971 -0.498,-1.655 -1.105,-2.051c-0.607,-0.397 -1.372,-0.595 -2.294,-0.595c-0.923,-0 -1.627,0.198 -2.112,0.595c-0.486,0.396 -0.729,0.918 -0.729,1.566c0,0.566 0.198,0.999 0.595,1.298c0.397,0.3 0.894,0.543 1.493,0.729c0.599,0.186 1.246,0.352 1.942,0.498c0.696,0.145 1.344,0.352 1.943,0.619c0.599,0.267 1.096,0.627 1.493,1.08c0.397,0.453 0.595,1.085 0.595,1.894c-0,0.599 -0.13,1.129 -0.389,1.59c-0.259,0.462 -0.615,0.846 -1.068,1.153c-0.453,0.308 -0.991,0.539 -1.614,0.692c-0.624,0.154 -1.308,0.231 -2.052,0.231c-0.745,0 -1.404,-0.109 -1.979,-0.328c-0.574,-0.218 -1.064,-0.522 -1.469,-0.91c-0.404,-0.389 -0.72,-0.842 -0.947,-1.36c-0.226,-0.518 -0.356,-1.076 -0.388,-1.675l1.481,-0Z" style="fill:#fff;fill-rule:nonzero;"/><path d="M383.406,161.325c-0.809,-0.016 -1.566,-0.162 -2.27,-0.437c-0.704,-0.275 -1.319,-0.688 -1.845,-1.238c-0.526,-0.55 -0.943,-1.238 -1.251,-2.064c-0.307,-0.825 -0.461,-1.788 -0.461,-2.889c-0,-0.923 0.121,-1.785 0.364,-2.586c0.243,-0.801 0.607,-1.501 1.093,-2.1c0.485,-0.599 1.092,-1.072 1.821,-1.42c0.728,-0.348 1.578,-0.522 2.549,-0.522c0.987,-0 1.845,0.174 2.574,0.522c0.728,0.348 1.335,0.817 1.821,1.408c0.485,0.591 0.845,1.291 1.08,2.1c0.235,0.809 0.352,1.675 0.352,2.598c0,1.003 -0.138,1.91 -0.413,2.719c-0.275,0.809 -0.667,1.505 -1.177,2.088c-0.51,0.583 -1.125,1.032 -1.845,1.348c-0.721,0.315 -1.518,0.473 -2.392,0.473Zm4.273,-6.628c0,-0.745 -0.081,-1.441 -0.243,-2.088c-0.162,-0.648 -0.412,-1.21 -0.752,-1.688c-0.34,-0.477 -0.777,-0.853 -1.311,-1.129c-0.535,-0.275 -1.19,-0.412 -1.967,-0.412c-0.761,-0 -1.412,0.149 -1.954,0.449c-0.543,0.299 -0.984,0.696 -1.324,1.19c-0.34,0.493 -0.591,1.06 -0.752,1.699c-0.162,0.639 -0.243,1.299 -0.243,1.979c-0,0.777 0.093,1.493 0.279,2.149c0.186,0.655 0.457,1.218 0.813,1.687c0.357,0.469 0.802,0.834 1.336,1.093c0.534,0.259 1.149,0.388 1.845,0.388c0.761,0 1.412,-0.15 1.954,-0.449c0.543,-0.3 0.984,-0.7 1.324,-1.202c0.34,-0.502 0.59,-1.068 0.752,-1.7c0.162,-0.631 0.243,-1.286 0.243,-1.966Z" style="fill:#fff;fill-rule:nonzero;"/><rect x="391.831" y="143.504" width="1.457" height="17.481" style="fill:#fff;fill-rule:nonzero;"/><path d="M405.233,148.409l1.457,-0l-0,12.576l-1.457,0l0,-1.748c-0.194,0.227 -0.413,0.461 -0.655,0.704c-0.243,0.243 -0.522,0.466 -0.838,0.668c-0.316,0.202 -0.684,0.372 -1.105,0.51c-0.421,0.137 -0.906,0.206 -1.457,0.206c-0.841,0 -1.545,-0.117 -2.112,-0.352c-0.566,-0.235 -1.024,-0.562 -1.372,-0.983c-0.348,-0.421 -0.599,-0.911 -0.752,-1.469c-0.154,-0.559 -0.231,-1.17 -0.231,-1.833l0,-8.279l1.457,-0l-0,8.254c-0,1.085 0.251,1.914 0.752,2.489c0.502,0.575 1.328,0.862 2.477,0.862c0.599,0 1.137,-0.117 1.615,-0.352c0.477,-0.235 0.878,-0.562 1.201,-0.983c0.324,-0.421 0.575,-0.923 0.753,-1.506c0.178,-0.582 0.267,-1.222 0.267,-1.918l0,-6.846Z" style="fill:#fff;fill-rule:nonzero;"/><path d="M414.338,161.034c-0.178,0.032 -0.413,0.089 -0.704,0.17c-0.292,0.081 -0.615,0.121 -0.971,0.121c-0.729,0 -1.283,-0.182 -1.664,-0.546c-0.38,-0.364 -0.57,-1.016 -0.57,-1.955l-0,-9.202l-1.773,0l0,-1.213l1.773,-0l-0,-3.497l1.457,0l-0,3.497l2.355,-0l-0,1.213l-2.355,0l-0,8.62c-0,0.307 0.008,0.574 0.024,0.801c0.016,0.226 0.065,0.413 0.146,0.558c0.081,0.146 0.206,0.251 0.376,0.316c0.17,0.065 0.409,0.097 0.716,0.097c0.194,0 0.393,-0.016 0.595,-0.049c0.202,-0.032 0.401,-0.072 0.595,-0.121l-0,1.19Z" style="fill:#fff;fill-rule:nonzero;"/><path d="M416.596,160.985l-0,-12.576l1.457,-0l-0,12.576l-1.457,0Zm-0.073,-15.32l-0,-2.161l1.602,0l0,2.161l-1.602,-0Z" style="fill:#fff;fill-rule:nonzero;"/><path d="M426.477,161.325c-0.809,-0.016 -1.566,-0.162 -2.27,-0.437c-0.704,-0.275 -1.319,-0.688 -1.845,-1.238c-0.526,-0.55 -0.943,-1.238 -1.25,-2.064c-0.308,-0.825 -0.462,-1.788 -0.462,-2.889c0,-0.923 0.122,-1.785 0.365,-2.586c0.242,-0.801 0.607,-1.501 1.092,-2.1c0.486,-0.599 1.093,-1.072 1.821,-1.42c0.729,-0.348 1.578,-0.522 2.549,-0.522c0.988,-0 1.846,0.174 2.574,0.522c0.728,0.348 1.335,0.817 1.821,1.408c0.486,0.591 0.846,1.291 1.08,2.1c0.235,0.809 0.353,1.675 0.353,2.598c-0,1.003 -0.138,1.91 -0.413,2.719c-0.275,0.809 -0.668,1.505 -1.178,2.088c-0.51,0.583 -1.125,1.032 -1.845,1.348c-0.72,0.315 -1.517,0.473 -2.392,0.473Zm4.274,-6.628c-0,-0.745 -0.081,-1.441 -0.243,-2.088c-0.162,-0.648 -0.413,-1.21 -0.753,-1.688c-0.34,-0.477 -0.777,-0.853 -1.311,-1.129c-0.534,-0.275 -1.19,-0.412 -1.967,-0.412c-0.76,-0 -1.412,0.149 -1.954,0.449c-0.542,0.299 -0.983,0.696 -1.323,1.19c-0.34,0.493 -0.591,1.06 -0.753,1.699c-0.162,0.639 -0.243,1.299 -0.243,1.979c0,0.777 0.093,1.493 0.28,2.149c0.186,0.655 0.457,1.218 0.813,1.687c0.356,0.469 0.801,0.834 1.335,1.093c0.534,0.259 1.149,0.388 1.845,0.388c0.761,0 1.413,-0.15 1.955,-0.449c0.542,-0.3 0.983,-0.7 1.323,-1.202c0.34,-0.502 0.591,-1.068 0.753,-1.7c0.162,-0.631 0.243,-1.286 0.243,-1.966Z" style="fill:#fff;fill-rule:nonzero;"/><path d="M436.141,160.985l-1.457,0l-0,-12.576l1.457,-0l-0,1.748c0.582,-0.615 1.185,-1.117 1.808,-1.506c0.624,-0.388 1.372,-0.582 2.246,-0.582c0.777,-0 1.498,0.133 2.161,0.4c0.664,0.267 1.222,0.733 1.675,1.396c0.308,0.453 0.49,0.919 0.547,1.396c0.056,0.478 0.085,0.976 0.085,1.494l-0,8.23l-1.457,0l-0,-8.206c-0,-1.133 -0.251,-1.983 -0.753,-2.55c-0.502,-0.566 -1.335,-0.849 -2.501,-0.849c-0.453,-0 -0.865,0.068 -1.238,0.206c-0.372,0.138 -0.708,0.32 -1.007,0.546c-0.3,0.227 -0.555,0.486 -0.765,0.777c-0.211,0.292 -0.372,0.599 -0.486,0.923c-0.145,0.405 -0.234,0.793 -0.267,1.165c-0.032,0.373 -0.048,0.777 -0.048,1.214l-0,6.774Z" style="fill:#fff;fill-rule:nonzero;"/><path d="M448.742,157.052c0.226,1.084 0.635,1.849 1.226,2.294c0.591,0.445 1.436,0.668 2.537,0.668c0.534,0 0.995,-0.065 1.384,-0.194c0.388,-0.13 0.708,-0.304 0.959,-0.522c0.251,-0.219 0.441,-0.466 0.57,-0.741c0.13,-0.275 0.195,-0.566 0.195,-0.874c-0,-0.615 -0.199,-1.072 -0.595,-1.372c-0.397,-0.299 -0.894,-0.534 -1.493,-0.704c-0.599,-0.17 -1.247,-0.315 -1.943,-0.437c-0.696,-0.121 -1.343,-0.303 -1.942,-0.546c-0.599,-0.243 -1.097,-0.591 -1.493,-1.044c-0.397,-0.453 -0.595,-1.093 -0.595,-1.918c-0,-1.052 0.384,-1.914 1.153,-2.586c0.769,-0.672 1.858,-1.007 3.266,-1.007c1.359,-0 2.464,0.303 3.314,0.91c0.85,0.607 1.364,1.623 1.542,3.047l-1.481,0c-0.13,-0.971 -0.498,-1.655 -1.105,-2.051c-0.607,-0.397 -1.372,-0.595 -2.295,-0.595c-0.922,-0 -1.626,0.198 -2.112,0.595c-0.485,0.396 -0.728,0.918 -0.728,1.566c-0,0.566 0.198,0.999 0.595,1.298c0.396,0.3 0.894,0.543 1.493,0.729c0.599,0.186 1.246,0.352 1.942,0.498c0.696,0.145 1.344,0.352 1.943,0.619c0.598,0.267 1.096,0.627 1.493,1.08c0.396,0.453 0.595,1.085 0.595,1.894c-0,0.599 -0.13,1.129 -0.389,1.59c-0.259,0.462 -0.615,0.846 -1.068,1.153c-0.453,0.308 -0.992,0.539 -1.615,0.692c-0.623,0.154 -1.307,0.231 -2.051,0.231c-0.745,0 -1.405,-0.109 -1.979,-0.328c-0.575,-0.218 -1.064,-0.522 -1.469,-0.91c-0.405,-0.389 -0.72,-0.842 -0.947,-1.36c-0.227,-0.518 -0.356,-1.076 -0.388,-1.675l1.481,-0Z" style="fill:#fff;fill-rule:nonzero;"/></g></g></g></g></svg>